<?xml version="1.0" encoding="utf-8"?>
<!-- Generator: Adobe Illustrator 24.3.0, SVG Export Plug-In . SVG Version: 6.00 Build 0)  -->
<svg version="1.1" xmlns="http://www.w3.org/2000/svg" xmlns:xlink="http://www.w3.org/1999/xlink" x="0px" y="0px"
	 viewBox="0 0 500 500" style="enable-background:new 0 0 500 500;" xml:space="preserve">
<style type="text/css">
	.st0{fill:none;}
	.st1{fill:#E0E0E0;}
	.st2{fill-rule:evenodd;clip-rule:evenodd;fill:#E0E0E0;}
	.st3{fill-rule:evenodd;clip-rule:evenodd;fill:#EBEBEB;}
	.st4{fill:#EBEBEB;}
	.st5{fill:#F5F5F5;}
	.st6{display:none;}
	.st7{display:inline;fill:#EBEBEB;}
	.st8{fill:#263238;}
	.st9{fill:#FFBE9D;}
	.st10{fill:#EB996E;}
	.st11{fill:#E8505B;}
	.st12{opacity:0.4;}
	.st13{fill:#FAFAFA;}
	.st14{fill:#FFFFFF;}
	.st15{fill:#455A64;}
	.st16{opacity:0.6;}
	.st17{opacity:0.3;}
	.st18{opacity:0.2;}
</style>
<g id="Background_Complete">
	<g>
		<g>
			<g>
				<g>
					<g>
						<g>
							<g>
								<g>
									<path class="st0" d="M361.98,264.44c-2.31,0.71-4.67,1.1-7.03,1.17l-2.87,5.95l-10.65-2.46l0.03-6.61
										c-2.09-1.1-4.04-2.49-5.8-4.14l-6.24,2.17l-5.79-9.28l4.69-4.65c-0.71-2.31-1.1-4.67-1.17-7.03l-5.95-2.88l2.46-10.65
										l6.61,0.03c1.1-2.09,2.49-4.04,4.14-5.8l-2.18-6.24l9.28-5.79l4.65,4.69c2.31-0.71,4.67-1.1,7.03-1.17l2.88-5.95
										l10.65,2.46l-0.03,6.61c2.09,1.1,4.04,2.49,5.8,4.14l6.24-2.17l5.79,9.27l-4.69,4.65c0.71,2.31,1.1,4.67,1.17,7.03
										l5.95,2.88l-2.46,10.65l-6.61-0.03c-1.1,2.09-2.49,4.04-4.14,5.8l2.17,6.24l-9.27,5.79L361.98,264.44L361.98,264.44z
										 M359.85,248.89c5.49-3.43,7.17-10.67,3.74-16.16c-3.43-5.5-10.67-7.17-16.16-3.74c-5.5,3.43-7.17,10.67-3.74,16.16
										C347.12,250.65,354.36,252.32,359.85,248.89z"/>
								</g>
							</g>
						</g>
					</g>
				</g>
				<g>
					<g>
						<g>
							<g>
								<g>
									<g>
										<path class="st1" d="M359.85,248.89c0,0-0.8,0.69-2.58,1.33c-1.74,0.62-4.64,1.08-7.86-0.1c-1.59-0.59-3.24-1.57-4.6-3.05
											c-1.34-1.48-2.48-3.39-2.93-5.62c-0.26-1.1-0.33-2.27-0.24-3.45c0.08-1.18,0.35-2.38,0.81-3.52
											c0.88-2.31,2.59-4.37,4.8-5.77c2.23-1.37,4.83-2,7.29-1.78c1.23,0.08,2.42,0.37,3.52,0.82c1.1,0.43,2.12,1.02,3,1.73
											c1.8,1.38,3.02,3.25,3.76,5.1c0.74,1.87,0.89,3.79,0.72,5.47c-0.36,3.42-2.04,5.81-3.36,7.11
											C360.83,248.47,359.85,248.89,359.85,248.89c-0.05-0.07,0.87-0.57,2.14-1.92c1.24-1.32,2.79-3.68,3.08-6.97
											c0.13-1.62-0.05-3.45-0.77-5.22c-0.73-1.76-1.9-3.52-3.62-4.82c-0.84-0.67-1.81-1.22-2.85-1.62
											c-1.04-0.42-2.17-0.68-3.33-0.76c-2.33-0.2-4.78,0.4-6.89,1.69c-2.08,1.33-3.7,3.27-4.54,5.44
											c-0.44,1.08-0.7,2.21-0.78,3.33c-0.1,1.12-0.03,2.23,0.2,3.27c0.41,2.11,1.48,3.94,2.74,5.37
											c1.28,1.43,2.84,2.39,4.36,2.99c3.08,1.19,5.88,0.83,7.61,0.3C358.95,249.42,359.81,248.82,359.85,248.89z"/>
									</g>
								</g>
							</g>
						</g>
					</g>
				</g>
				<g>
					<g>
						<g>
							<g>
								<g>
									<g>
										<path class="st1" d="M361.98,264.44c0-0.01,0.11,0.08,0.31,0.28c0.22,0.21,0.52,0.5,0.9,0.87
											c0.82,0.81,1.99,1.97,3.52,3.47l-0.13-0.02c2.37-1.5,5.48-3.46,9.24-5.84l-0.07,0.2c-0.67-1.89-1.41-3.98-2.2-6.23
											l-0.04-0.11l0.08-0.09c1.51-1.63,2.93-3.56,4.09-5.77l0.06-0.12l0.13,0c2.06,0,4.29,0.01,6.61,0.01l-0.23,0.19
											c0.77-3.36,1.58-6.92,2.44-10.66l0.14,0.3c-1.84-0.89-3.87-1.86-5.96-2.86l-0.15-0.07l-0.01-0.17
											c-0.07-2.19-0.44-4.6-1.17-6.96l-0.05-0.17l0.13-0.12c1.45-1.44,3.05-3.04,4.69-4.66l-0.04,0.37
											c-1.82-2.91-3.79-6.05-5.8-9.27l0.37,0.13c-1.94,0.68-4.07,1.42-6.24,2.18l-0.18,0.06l-0.14-0.13
											c-1.61-1.51-3.57-2.95-5.74-4.08l-0.17-0.09l0-0.2c0.01-2.07,0.02-4.33,0.03-6.61l0.26,0.32
											c-3.37-0.78-6.99-1.61-10.65-2.46l0.38-0.18c-0.91,1.88-1.89,3.91-2.87,5.95l-0.09,0.18l-0.2,0.01
											c-2.24,0.07-4.63,0.44-6.94,1.15l0,0l0,0c-0.15-0.04,0.34,0.09-0.34-0.08l0,0l-0.01-0.01l-0.02-0.02l-0.04-0.04
											l-0.07-0.07l-0.15-0.15l-0.29-0.3l-0.58-0.59l-1.17-1.18c-0.78-0.78-1.55-1.56-2.32-2.34l0.42,0.05
											c-3.13,1.96-6.23,3.89-9.28,5.79l0.14-0.39c0.73,2.1,1.46,4.18,2.17,6.24l0.07,0.19l-0.14,0.15
											c-1.63,1.74-3.01,3.67-4.09,5.73l-0.09,0.17l-0.2,0c-2.23-0.01-4.44-0.02-6.61-0.03l0.31-0.25
											c-0.84,3.64-1.67,7.19-2.47,10.65l-0.17-0.35c2.02,0.98,4,1.94,5.95,2.88l0.16,0.08l0.01,0.18
											c0.07,2.41,0.47,4.75,1.15,6.96l0.05,0.17l-0.13,0.12c-1.61,1.59-3.17,3.13-4.7,4.64l0.04-0.35
											c2.03,3.27,3.95,6.35,5.77,9.29l-0.3-0.11c2.2-0.76,4.26-1.47,6.24-2.16l0.14-0.05l0.11,0.1
											c1.84,1.73,3.78,3.07,5.74,4.12l0.12,0.06l0,0.13c-0.02,2.4-0.04,4.56-0.05,6.61l-0.15-0.19
											c4.12,0.97,7.63,1.8,10.64,2.51l-0.17,0.08c1.16-2.37,2.12-4.31,2.91-5.93l0.03-0.06l0.07,0c2.4-0.07,4.16-0.4,5.32-0.65
											c0.55-0.13,0.98-0.24,1.29-0.31C361.84,264.46,361.98,264.43,361.98,264.44c0,0.01-0.14,0.06-0.41,0.15
											c-0.28,0.09-0.7,0.22-1.28,0.36c-1.15,0.29-2.92,0.66-5.33,0.76l0.09-0.06c-0.77,1.63-1.7,3.58-2.84,5.97l-0.05,0.11
											l-0.12-0.03c-3.01-0.68-6.53-1.48-10.66-2.42l-0.15-0.04l0-0.16c0-2.04,0-4.21,0.01-6.61l0.12,0.2
											c-2-1.05-3.99-2.41-5.87-4.16l0.24,0.05c-1.98,0.7-4.04,1.42-6.23,2.19l-0.19,0.07l-0.11-0.18
											c-1.84-2.93-3.76-6-5.81-9.26l-0.12-0.19l0.16-0.16c1.52-1.51,3.08-3.06,4.68-4.66l-0.07,0.29
											c-0.7-2.25-1.11-4.65-1.19-7.11l0.17,0.26c-1.95-0.94-3.93-1.89-5.95-2.87l-0.22-0.11l0.06-0.24
											c0.8-3.46,1.62-7.02,2.45-10.65l0.06-0.25l0.26,0c2.17,0.01,4.37,0.02,6.61,0.02l-0.29,0.17
											c1.11-2.11,2.52-4.09,4.19-5.88l-0.07,0.33c-0.72-2.06-1.44-4.14-2.18-6.24l-0.09-0.25l0.23-0.14
											c3.05-1.9,6.14-3.84,9.27-5.79l0.23-0.14l0.19,0.19c0.77,0.78,1.54,1.56,2.32,2.34l1.17,1.18l0.58,0.59l0.29,0.3
											l0.15,0.15l0.07,0.07l0.04,0.04l0.02,0.02l0.01,0.01l0,0c-0.68-0.17-0.19-0.05-0.34-0.09l0,0l0,0
											c2.37-0.73,4.82-1.11,7.11-1.18l-0.29,0.19c0.99-2.04,1.97-4.07,2.88-5.95l0.12-0.24l0.26,0.06
											c3.66,0.85,7.28,1.69,10.65,2.47l0.26,0.06l0,0.26c-0.01,2.28-0.02,4.54-0.03,6.61l-0.17-0.29
											c2.21,1.17,4.22,2.64,5.87,4.19l-0.32-0.07c2.16-0.75,4.3-1.49,6.24-2.17l0.24-0.08l0.13,0.21
											c2.01,3.22,3.96,6.37,5.78,9.28l0.13,0.2l-0.17,0.17c-1.64,1.62-3.24,3.2-4.7,4.64l0.07-0.29
											c0.74,2.41,1.11,4.87,1.17,7.11l-0.16-0.24c2.08,1.01,4.11,1.99,5.95,2.89l0.19,0.09l-0.05,0.21
											c-0.87,3.74-1.7,7.29-2.49,10.65l-0.04,0.19l-0.19,0c-2.32-0.02-4.55-0.03-6.61-0.05l0.2-0.12
											c-1.2,2.24-2.64,4.2-4.19,5.83l0.04-0.2c0.77,2.25,1.5,4.35,2.15,6.25l0.04,0.13l-0.12,0.07
											c-3.79,2.34-6.92,4.27-9.31,5.74l-0.07,0.05l-0.06-0.06c-1.48-1.53-2.62-2.7-3.41-3.52c-0.37-0.39-0.66-0.69-0.87-0.92
											C362.07,264.56,361.97,264.44,361.98,264.44z"/>
									</g>
								</g>
							</g>
						</g>
					</g>
				</g>
			</g>
			<g>
				<g>
					<g>
						<g>
							<g>
								<path class="st2" d="M383.75,185.32c-3.26,1-6.61,1.55-9.94,1.66l-4.06,8.41l-15.06-3.48l0.04-9.34
									c-2.95-1.56-5.71-3.52-8.21-5.85l-8.82,3.07l-8.19-13.11l6.63-6.57c-1.01-3.26-1.55-6.61-1.65-9.94l-8.41-4.07l3.48-15.06
									l9.34,0.04c1.56-2.95,3.52-5.71,5.86-8.2l-3.08-8.82l13.11-8.19l6.57,6.64c3.26-1.01,6.61-1.55,9.94-1.66l4.07-8.42
									l15.06,3.48l-0.04,9.35c2.95,1.56,5.71,3.52,8.2,5.85l8.82-3.07l8.19,13.11l-6.63,6.57c1.01,3.26,1.55,6.61,1.66,9.94
									l8.41,4.07l-3.48,15.06l-9.35-0.04c-1.56,2.95-3.52,5.71-5.85,8.21l3.07,8.82l-13.11,8.19L383.75,185.32L383.75,185.32z
									 M380.75,163.35c7.77-4.85,10.14-15.08,5.29-22.85c-4.85-7.77-15.08-10.13-22.85-5.29c-7.77,4.85-10.14,15.08-5.29,22.85
									C362.75,165.83,372.98,168.2,380.75,163.35z"/>
							</g>
						</g>
					</g>
				</g>
			</g>
		</g>
		<g>
			<g>
				<g>
					<g>
						<g>
							<path class="st3" d="M419.23,235.14c-1.74,0.53-3.51,0.82-5.29,0.88l-2.16,4.48l-8.01-1.85l0.02-4.97
								c-1.57-0.83-3.04-1.87-4.37-3.11l-4.69,1.64l-4.35-6.98l3.53-3.5c-0.54-1.74-0.82-3.52-0.88-5.29l-4.48-2.16l1.85-8.01
								l4.97,0.02c0.83-1.57,1.87-3.04,3.11-4.36l-1.64-4.69l6.98-4.36l3.5,3.53c1.74-0.54,3.51-0.82,5.29-0.88l2.16-4.48l8.01,1.85
								l-0.02,4.97c1.57,0.83,3.04,1.87,4.36,3.11l4.69-1.63l4.36,6.98l-3.53,3.5c0.54,1.74,0.82,3.52,0.88,5.29l4.48,2.16
								l-1.85,8.01l-4.97-0.02c-0.83,1.57-1.87,3.04-3.11,4.37l1.64,4.69l-6.98,4.36L419.23,235.14L419.23,235.14z M417.64,223.45
								c4.13-2.58,5.39-8.02,2.81-12.16c-2.58-4.13-8.02-5.39-12.16-2.81c-4.13,2.58-5.39,8.02-2.81,12.16
								C408.06,224.77,413.5,226.03,417.64,223.45z"/>
						</g>
					</g>
				</g>
			</g>
		</g>
	</g>
	<g>
		<g>
			<g>
				<path class="st1" d="M112.36,146.65c0.1,0.1-4.59,4.91-10.47,10.73c-5.89,5.82-10.74,10.46-10.84,10.36
					c-0.1-0.1,4.59-4.9,10.47-10.73C107.41,151.19,112.26,146.55,112.36,146.65z"/>
			</g>
		</g>
		<g>
			<g>
				<path class="st1" d="M112.41,167.69c-0.1,0.1-4.98-4.51-10.89-10.3c-5.91-5.8-10.63-10.58-10.52-10.68
					c0.1-0.1,4.97,4.51,10.89,10.31C107.8,162.8,112.52,167.58,112.41,167.69z"/>
			</g>
		</g>
	</g>
	<g>
		<g>
			<g>
				<g>
					<path class="st1" d="M133.57,279.74c-0.02,0.14-6-0.37-13.36-1.15c-7.37-0.78-13.32-1.52-13.31-1.67
						c0.02-0.14,6,0.37,13.36,1.15C127.63,278.85,133.59,279.59,133.57,279.74z"/>
				</g>
			</g>
		</g>
		<g>
			<g>
				<g>
					<path class="st1" d="M132.51,289.78c-0.02,0.14-6-0.37-13.36-1.15c-7.37-0.78-13.32-1.52-13.31-1.67
						c0.02-0.14,6,0.37,13.36,1.15C126.57,288.89,132.53,289.64,132.51,289.78z"/>
				</g>
			</g>
		</g>
	</g>
	<g>
		<g>
			<g>
				<path class="st4" d="M60.4,257.69c0,0-7.92-0.57-7.19,17.19c0.73,17.76,2.54,27.23,2.54,27.23s-0.23,3.94-3.28,3.17
					c-3.05-0.77-8.79-4.61-11.62-1.74c-2.94,2.97-1.89,7.53,2,12.9c3.9,5.37,12.01,17.45,12.74,18.54c0.72,1.07,1,3.09-1.16,2.9
					c-2.16-0.19-16.76-5.14-18.69,1.93c-1.93,7.07,11.39,20.24,12.81,21.71c1.43,1.47,1.51,2.39,0.93,3.28
					c-0.58,0.89-5.33-1.24-9.54-2.47c-4.21-1.24-9.31-1.93-10.08,2.24c-0.77,4.17,5.09,16.38,27.06,29.2l10.57,5.28l10-6.38
					c20.58-14.96,25.19-27.69,24.01-31.76c-1.19-4.07-6.19-2.87-10.25-1.22c-4.06,1.65-8.58,4.24-9.24,3.42
					c-0.67-0.83-0.68-1.76,0.59-3.36c1.27-1.6,13.21-16.04,10.58-22.88c-2.63-6.84-16.66-0.46-18.79-0.05
					c-2.13,0.41-2.05-1.62-1.44-2.77c0.62-1.16,7.48-13.99,10.82-19.72c3.34-5.73,3.93-10.37,0.7-13.03
					c-3.11-2.57-8.43,1.82-11.39,2.89s-3.58-2.82-3.58-2.82s0.86-9.6-0.19-27.34c-1.05-17.75-9.06-16.32-9.06-16.32"/>
			</g>
			<g>
				<g>
					<path class="st1" d="M61.02,273.6c0,0,0.02,0.13,0.04,0.37c0.02,0.26,0.05,0.62,0.08,1.09c0.07,0.98,0.16,2.39,0.28,4.2
						c0.24,3.64,0.55,8.92,0.91,15.44c0.72,13.04,1.57,31.06,2.44,50.96c0.87,19.91,1.67,37.93,2.32,50.97
						c0.33,6.51,0.6,11.78,0.79,15.44c0.09,1.81,0.16,3.22,0.21,4.2c0.02,0.47,0.03,0.83,0.04,1.09c0.01,0.25,0,0.37,0,0.37
						s-0.02-0.13-0.04-0.37c-0.02-0.26-0.05-0.62-0.08-1.09c-0.07-0.98-0.16-2.39-0.28-4.19c-0.24-3.64-0.55-8.92-0.91-15.44
						c-0.72-13.04-1.57-31.06-2.44-50.97c-0.87-19.9-1.67-37.92-2.32-50.96c-0.33-6.51-0.6-11.78-0.79-15.44
						c-0.09-1.81-0.16-3.22-0.21-4.2c-0.02-0.47-0.03-0.83-0.04-1.09C61.02,273.73,61.02,273.6,61.02,273.6z"/>
				</g>
			</g>
			<g>
				<g>
					<path class="st1" d="M48.66,309.22c0.02-0.02,0.25,0.18,0.66,0.55c0.41,0.37,0.98,0.92,1.68,1.61c1.39,1.38,3.27,3.34,5.3,5.54
						c1.99,2.17,3.78,4.14,5.17,5.66c0.62,0.67,1.14,1.24,1.57,1.71c0.37,0.4,0.57,0.63,0.55,0.65c-0.02,0.02-0.25-0.17-0.66-0.54
						c-0.41-0.37-0.98-0.92-1.67-1.62c-1.38-1.4-3.23-3.38-5.26-5.58c-2-2.16-3.81-4.11-5.21-5.62c-0.62-0.67-1.15-1.23-1.58-1.7
						C48.83,309.48,48.64,309.24,48.66,309.22z"/>
				</g>
			</g>
			<g>
				<g>
					<path class="st1" d="M64.63,324.59c-0.08-0.08,3.79-4.13,8.63-9.04c4.85-4.92,8.84-8.84,8.92-8.76
						c0.08,0.08-3.78,4.13-8.63,9.04C68.71,320.75,64.71,324.67,64.63,324.59z"/>
				</g>
			</g>
			<g>
				<g>
					<path class="st1" d="M64.59,355.22c-0.01-0.02,0.25-0.19,0.74-0.47c0.56-0.32,1.25-0.7,2.07-1.16
						c1.74-0.98,4.15-2.34,6.75-3.94c2.6-1.59,4.91-3.11,6.57-4.23c0.78-0.52,1.43-0.96,1.97-1.32c0.47-0.31,0.74-0.47,0.75-0.44
						c0.02,0.02-0.22,0.23-0.66,0.57c-0.44,0.35-1.09,0.84-1.9,1.42c-1.62,1.18-3.91,2.74-6.53,4.34c-2.61,1.6-5.04,2.93-6.82,3.85
						c-0.89,0.46-1.62,0.81-2.13,1.05C64.89,355.12,64.6,355.24,64.59,355.22z"/>
				</g>
			</g>
			<g>
				<g>
					<path class="st1" d="M47.08,344.5c0.01-0.02,0.27,0.1,0.73,0.34c0.46,0.24,1.11,0.61,1.92,1.06c1.61,0.91,3.82,2.2,6.24,3.64
						c2.43,1.44,4.61,2.77,6.18,3.75c0.79,0.49,1.42,0.89,1.85,1.18c0.43,0.29,0.66,0.45,0.65,0.48c-0.01,0.02-0.27-0.1-0.73-0.34
						c-0.46-0.24-1.11-0.61-1.92-1.06c-1.61-0.91-3.82-2.2-6.24-3.64c-2.43-1.44-4.61-2.77-6.18-3.75
						c-0.79-0.49-1.42-0.89-1.85-1.18C47.3,344.69,47.06,344.52,47.08,344.5z"/>
				</g>
			</g>
			<g>
				<g>
					<path class="st1" d="M43.61,371.53c0.01-0.02,0.34,0.14,0.93,0.45c0.65,0.36,1.48,0.81,2.46,1.36
						c2.07,1.16,4.91,2.79,8.04,4.61c3.13,1.82,5.95,3.49,7.98,4.71c0.96,0.59,1.76,1.08,2.4,1.47c0.56,0.35,0.86,0.56,0.85,0.59
						c-0.01,0.02-0.34-0.14-0.93-0.45c-0.65-0.36-1.48-0.81-2.46-1.36c-2.07-1.16-4.91-2.79-8.04-4.61
						c-3.13-1.82-5.95-3.49-7.98-4.71c-0.96-0.59-1.76-1.08-2.4-1.47C43.89,371.76,43.59,371.56,43.61,371.53z"/>
				</g>
			</g>
			<g>
				<g>
					<path class="st1" d="M65.81,384.25c-0.01-0.02,0.31-0.24,0.92-0.62c0.67-0.41,1.54-0.93,2.57-1.56
						c2.17-1.32,5.16-3.16,8.4-5.27c3.25-2.11,6.14-4.1,8.22-5.55c0.99-0.69,1.82-1.27,2.47-1.72c0.59-0.4,0.92-0.61,0.93-0.59
						c0.02,0.02-0.28,0.28-0.84,0.72c-0.56,0.44-1.37,1.07-2.4,1.82c-2.04,1.51-4.91,3.54-8.17,5.66c-3.25,2.12-6.27,3.92-8.48,5.18
						c-1.11,0.63-2.01,1.12-2.64,1.45C66.17,384.1,65.82,384.27,65.81,384.25z"/>
				</g>
			</g>
		</g>
		<g>
			<g>
				<g>
					<polygon class="st1" points="81.69,402.49 52.45,402.49 61.99,474.73 72.15,474.73 					"/>
				</g>
			</g>
			<g>
				<g>
					<g>
						<path class="st5" d="M53.97,411.37c-0.01,0.01,0.03,0.1,0.16,0.26c0.12,0.15,0.35,0.35,0.71,0.5c0.69,0.3,1.91,0.33,3.09-0.38
							c1.18-0.65,2.21-1.93,3.79-2.5c1.57-0.6,3.51-0.49,5.38,0.11c1.89,0.58,3.52,1.54,5.01,2.43c1.49,0.88,2.85,1.67,4.07,2.18
							c1.21,0.53,2.27,0.77,3,0.87c0.37,0.05,0.65,0.06,0.85,0.06c0.19,0,0.3-0.01,0.3-0.02c0.02-0.1-1.65-0.08-4.01-1.21
							c-1.18-0.54-2.51-1.35-3.98-2.25c-1.47-0.91-3.15-1.9-5.09-2.5c-1.92-0.62-3.99-0.73-5.68-0.06
							c-0.84,0.32-1.55,0.82-2.14,1.32c-0.6,0.49-1.13,0.96-1.67,1.3c-1.07,0.69-2.19,0.72-2.85,0.49
							C54.22,411.72,54.01,411.33,53.97,411.37z"/>
					</g>
				</g>
			</g>
			<g>
				<g>
					<g>
						<path class="st5" d="M55.04,424.67c0.04,0.02,0.23-0.3,0.69-0.78c0.47-0.46,1.23-1.07,2.34-1.48c1.1-0.42,2.51-0.67,4.07-0.61
							c1.57,0.05,3.27,0.4,5.09,0.69c1.81,0.3,3.61,0.44,5.21,0.22c1.6-0.21,2.99-0.67,4.1-1.17c1.11-0.51,1.93-1.06,2.46-1.47
							c0.54-0.41,0.8-0.68,0.78-0.7c-0.05-0.08-1.18,0.93-3.38,1.86c-1.1,0.45-2.46,0.87-4.02,1.04c-1.56,0.19-3.28,0.05-5.08-0.25
							c-1.8-0.29-3.53-0.63-5.15-0.66c-1.62-0.04-3.08,0.26-4.21,0.74c-1.14,0.47-1.91,1.15-2.35,1.67
							c-0.21,0.27-0.36,0.49-0.44,0.65C55.06,424.58,55.02,424.66,55.04,424.67z"/>
					</g>
				</g>
			</g>
			<g>
				<g>
					<g>
						<path class="st5" d="M78.38,431.79c0.01-0.02-0.26-0.2-0.81-0.42c-0.54-0.22-1.37-0.44-2.42-0.52
							c-1.05-0.08-2.3-0.02-3.66,0.21c-1.36,0.22-2.83,0.6-4.36,0.92c-1.53,0.32-3.01,0.54-4.35,0.49
							c-1.34-0.05-2.53-0.34-3.46-0.75c-1.88-0.83-2.55-2.03-2.62-1.95c-0.02,0.01,0.11,0.31,0.49,0.76
							c0.38,0.45,1.03,1.02,1.99,1.49c0.95,0.47,2.18,0.81,3.58,0.88c1.4,0.08,2.92-0.14,4.47-0.46c1.55-0.33,3-0.72,4.34-0.96
							c1.33-0.24,2.55-0.34,3.57-0.31C77.18,431.26,78.35,431.88,78.38,431.79z"/>
					</g>
				</g>
			</g>
			<g>
				<g>
					<g>
						<path class="st5" d="M57.62,441.81c0.01,0.08,1.04-0.65,2.84-0.29c0.88,0.16,1.86,0.6,2.97,1.11c1.1,0.51,2.43,0.95,3.86,1.06
							c2.87,0.28,5.43-0.65,6.99-1.62c0.8-0.48,1.36-0.99,1.74-1.34c0.36-0.38,0.54-0.6,0.51-0.62c-0.06-0.07-0.83,0.79-2.42,1.67
							c-1.57,0.87-4.03,1.7-6.78,1.44c-2.77-0.16-4.89-1.81-6.81-2.03c-0.94-0.14-1.72-0.01-2.21,0.19
							C57.81,441.58,57.6,441.8,57.62,441.81z"/>
					</g>
				</g>
			</g>
			<g>
				<g>
					<g>
						<path class="st5" d="M59.25,455.68c0,0.05,0.98,0.05,2.44-0.48c1.47-0.49,3.29-1.62,5.41-2.46c1.07-0.41,2.13-0.66,3.11-0.65
							c0.97,0,1.84,0.24,2.5,0.57c1.34,0.67,1.73,1.62,1.81,1.56c0.02-0.01-0.04-0.25-0.28-0.62c-0.24-0.37-0.68-0.85-1.37-1.24
							c-0.68-0.39-1.6-0.68-2.65-0.71c-1.05-0.03-2.18,0.22-3.28,0.64c-2.2,0.88-3.96,2.04-5.37,2.59
							C60.18,455.48,59.24,455.6,59.25,455.68z"/>
					</g>
				</g>
			</g>
			<g>
				<g>
					<g>
						<path class="st5" d="M60.68,462.13c-0.02,0.06,0.68,0.31,1.85,0.6c1.17,0.29,2.8,0.6,4.63,0.78c1.83,0.18,3.49,0.19,4.69,0.14
							c1.2-0.06,1.94-0.17,1.93-0.23c-0.01-0.14-2.96-0.02-6.58-0.38C63.59,462.69,60.72,461.99,60.68,462.13z"/>
					</g>
				</g>
			</g>
		</g>
	</g>
</g>
<g id="Background_Simple" class="st6">
	<path class="st7" d="M227.44,142.08c-18.28-31.58-59.1-46.96-94.61-38.56c-35.51,8.41-64.15,38.25-74.62,73.2
		s-3.81,73.89,14.48,105.47s47.44,56.06,80.11,72.3c86.03,42.76,205.35,41.42,274.11-25.67c14.67-14.31,36.18-31.33,40.25-58.93
		c4.49-30.43-7.86-50.67-26.73-68.62c-24.57-23.37-61.62-15.85-88.83-8.5c-27.22,7.35-52.86,21.32-76.04,5.28"/>
</g>
<g id="Floor">
	<g>
		<g>
			<path class="st8" d="M471.27,473.56c0,0.14-99.52,0.26-222.24,0.26c-122.77,0-222.27-0.12-222.27-0.26
				c0-0.14,99.49-0.26,222.27-0.26C371.75,473.3,471.27,473.42,471.27,473.56z"/>
		</g>
	</g>
</g>
<g id="Character">
	<g>
		<g>
			<path class="st9" d="M152.36,160.96c0,0,2.72-16.31,3.37-17.55c0.65-1.24,8.17-8.87,9.05-9.02c0.89-0.16,12.74-3.88,12.08-2.03
				c-0.66,1.85-8.97,4.34-8.97,4.34l-0.79,0.99c0,0,7.1-2.31,8.87-2.25c1.63,0.05,1.91,1.74,0.65,2.23
				c-1.27,0.49-7.53,2.31-7.76,2.7c-0.23,0.39,6.97-1.67,7.88-1.63c1.22,0.05,2.1,1.59,0.86,2.12c-0.73,0.31-7.7,1.91-7.7,1.91
				s5.81-0.68,6.47-0.5c1.07,0.29,0.98,1.59-0.2,1.9c-0.81,0.21-5.06,0.4-6.14,0.69c0,0-0.8,0.69-0.77,2.84
				c0.03,2.15-2.77,7.89-2.77,7.89L152.36,160.96z"/>
			<g>
				<path class="st10" d="M176.85,132.4c0.05,0.05-0.55,0.71-1.74,1.52c-0.6,0.4-1.34,0.83-2.22,1.22
					c-0.88,0.33-1.86,0.67-2.89,1.02c-0.76,0.26-1.49,0.51-2.19,0.74l0.12-0.07c-2.26,2.25-3.95,3.83-4.04,3.75
					c-0.09-0.08,1.45-1.8,3.66-4.1l0.04-0.05l0.07-0.03c0.68-0.24,1.41-0.49,2.16-0.76c1-0.34,1.96-0.66,2.87-0.97
					c0.85-0.34,1.59-0.73,2.2-1.08C176.11,132.89,176.8,132.33,176.85,132.4z"/>
			</g>
		</g>
		<g>
			<path class="st11" d="M334.74,340.12l-161.42-16.63c-4.94-0.51-8.53-4.92-8.02-9.86l27.96-271.38
				c0.72-7.01,6.99-12.11,14.01-11.39l153.9,15.85c7.01,0.72,12.11,6.99,11.39,14.01L344.6,332.1
				C344.09,337.04,339.67,340.63,334.74,340.12z"/>
			<path class="st12" d="M334.74,340.12l-161.42-16.63c-4.94-0.51-8.53-4.92-8.02-9.86l27.96-271.38
				c0.72-7.01,6.99-12.11,14.01-11.39l153.9,15.85c7.01,0.72,12.11,6.99,11.39,14.01L344.6,332.1
				C344.09,337.04,339.67,340.63,334.74,340.12z"/>
			<g>
				<g>
					<path class="st11" d="M318.45,338.44l-161.42-16.63c-4.94-0.51-8.53-4.92-8.02-9.86l27.96-271.38
						c0.72-7.01,6.99-12.11,14.01-11.39l153.9,15.85c7.01,0.72,12.11,6.99,11.39,14.01l-27.96,271.38
						C327.8,335.36,323.39,338.95,318.45,338.44z"/>
				</g>
				<g>
					<path class="st11" d="M233.61,291.3l-55.66-5.73c-1.33-0.14-2.3-1.33-2.16-2.66l2.26-21.9c0.14-1.33,1.33-2.3,2.66-2.16
						l55.66,5.73c1.33,0.14,2.3,1.33,2.16,2.66l-2.26,21.9C236.13,290.47,234.94,291.43,233.61,291.3z"/>
				</g>
				<g class="st12">
					<path d="M233.61,291.3l-55.66-5.73c-1.33-0.14-2.3-1.33-2.16-2.66l2.26-21.9c0.14-1.33,1.33-2.3,2.66-2.16l55.66,5.73
						c1.33,0.14,2.3,1.33,2.16,2.66l-2.26,21.9C236.13,290.47,234.94,291.43,233.61,291.3z"/>
				</g>
				<g>
					<g>
						
							<rect x="231.53" y="20.43" transform="matrix(0.1025 -0.9947 0.9947 0.1025 137.9662 347.8721)" class="st13" width="60.45" height="154.1"/>
					</g>
					<g>
						<g>
							<path class="st8" d="M335.31,135.44c0,0,0.03-0.37,0.09-1.07c0.07-0.71,0.17-1.75,0.3-3.11c0.27-2.74,0.67-6.76,1.19-11.95
								c1.04-10.37,2.56-25.38,4.44-44.02l0.16,0.2c-38.58-3.95-93.02-9.53-153.29-15.71l-0.01,0l0.29-0.23
								c-2.17,21.03-4.27,41.35-6.21,60.13l-0.22-0.27c44.36,4.62,82.64,8.6,109.85,11.43c13.61,1.43,24.45,2.57,31.9,3.36
								c3.72,0.4,6.59,0.7,8.54,0.91c0.97,0.11,1.7,0.19,2.21,0.24C335.05,135.41,335.31,135.44,335.31,135.44s-0.24-0.01-0.73-0.06
								c-0.5-0.05-1.23-0.12-2.19-0.21c-1.94-0.19-4.8-0.48-8.5-0.84c-7.44-0.75-18.26-1.84-31.86-3.21
								c-27.26-2.78-65.61-6.69-110.04-11.22l-0.25-0.03l0.03-0.25c1.93-18.78,4.02-39.1,6.18-60.13l0.03-0.26l0.26,0.03l0.01,0
								c60.26,6.24,114.7,11.88,153.27,15.87l0.18,0.02l-0.02,0.18c-1.97,18.67-3.55,33.72-4.64,44.1
								c-0.55,5.17-0.98,9.17-1.27,11.9c-0.15,1.35-0.26,2.37-0.34,3.08C335.35,135.1,335.31,135.44,335.31,135.44z"/>
						</g>
					</g>
				</g>
				<g>
					<g>
						<path class="st11" d="M209.41,173.04l-21.91-2.26c-1.14-0.12-1.98-1.14-1.86-2.28l2.26-21.91c0.12-1.14,1.14-1.98,2.28-1.86
							l21.91,2.26c1.14,0.12,1.98,1.14,1.86,2.28l-2.26,21.91C211.58,172.32,210.56,173.16,209.41,173.04z"/>
					</g>
					<g class="st12">
						<path d="M209.41,173.04l-21.91-2.26c-1.14-0.12-1.98-1.14-1.86-2.28l2.26-21.91c0.12-1.14,1.14-1.98,2.28-1.86l21.91,2.26
							c1.14,0.12,1.98,1.14,1.86,2.28l-2.26,21.91C211.58,172.32,210.56,173.16,209.41,173.04z"/>
					</g>
					<g>
						<path class="st8" d="M205.39,172.62l-21.91-2.26c-1.14-0.12-1.98-1.14-1.86-2.28l2.26-21.91c0.12-1.14,1.14-1.98,2.28-1.86
							l21.91,2.26c1.14,0.12,1.98,1.14,1.86,2.28l-2.26,21.91C207.56,171.91,206.53,172.74,205.39,172.62z"/>
					</g>
					<g>
						<path class="st14" d="M198.18,153.11l-1.12,10.86l-2.51-0.26l0.91-8.84l-2.17-0.22l0.21-2.02L198.18,153.11z"/>
					</g>
				</g>
				<g>
					<g>
						<path class="st11" d="M245.75,176.78l-21.91-2.26c-1.14-0.12-1.98-1.14-1.86-2.28l2.26-21.91c0.12-1.14,1.14-1.98,2.28-1.86
							l21.91,2.26c1.14,0.12,1.98,1.14,1.86,2.28l-2.26,21.91C247.91,176.07,246.89,176.9,245.75,176.78z"/>
					</g>
					<g class="st12">
						<path d="M245.75,176.78l-21.91-2.26c-1.14-0.12-1.98-1.14-1.86-2.28l2.26-21.91c0.12-1.14,1.14-1.98,2.28-1.86l21.91,2.26
							c1.14,0.12,1.98,1.14,1.86,2.28l-2.26,21.91C247.91,176.07,246.89,176.9,245.75,176.78z"/>
					</g>
					<g>
						<path class="st8" d="M241.72,176.37l-21.91-2.26c-1.14-0.12-1.98-1.14-1.86-2.28l2.26-21.91c0.12-1.14,1.14-1.98,2.28-1.86
							l21.91,2.26c1.14,0.12,1.98,1.14,1.86,2.28l-2.26,21.91C243.89,175.65,242.87,176.48,241.72,176.37z"/>
					</g>
					<g>
						<path class="st14" d="M237.53,166.07l-0.21,2.05l-8.21-0.85l0.17-1.63l4.6-3.52c1.06-0.82,1.28-1.36,1.34-1.88
							c0.09-0.85-0.45-1.41-1.6-1.53c-0.93-0.1-1.76,0.18-2.36,0.85l-1.71-1.37c0.96-1.14,2.57-1.77,4.52-1.57
							c2.42,0.25,3.91,1.66,3.7,3.63c-0.11,1.05-0.5,1.99-2.17,3.24l-2.74,2.1L237.53,166.07z"/>
					</g>
				</g>
				<g>
					<g>
						<path class="st11" d="M283.41,180.66l-21.91-2.26c-1.14-0.12-1.98-1.14-1.86-2.28l2.26-21.91c0.12-1.14,1.14-1.98,2.28-1.86
							l21.91,2.26c1.14,0.12,1.98,1.14,1.86,2.28l-2.26,21.91C285.58,179.95,284.56,180.78,283.41,180.66z"/>
					</g>
					<g class="st12">
						<path d="M283.41,180.66l-21.91-2.26c-1.14-0.12-1.98-1.14-1.86-2.28l2.26-21.91c0.12-1.14,1.14-1.98,2.28-1.86l21.91,2.26
							c1.14,0.12,1.98,1.14,1.86,2.28l-2.26,21.91C285.58,179.95,284.56,180.78,283.41,180.66z"/>
					</g>
					<g>
						<path class="st8" d="M279.39,180.25l-21.91-2.26c-1.14-0.12-1.98-1.14-1.86-2.28l2.26-21.91c0.12-1.14,1.14-1.98,2.28-1.86
							l21.91,2.26c1.14,0.12,1.98,1.14,1.86,2.28l-2.26,21.91C281.56,179.53,280.53,180.36,279.39,180.25z"/>
					</g>
					<g>
						<path class="st14" d="M275.24,168.66c-0.19,1.83-1.77,3.36-4.86,3.04c-1.52-0.16-3.04-0.74-4.02-1.59l1.18-1.82
							c0.76,0.71,1.87,1.18,3,1.3c1.26,0.13,2.08-0.3,2.18-1.19c0.08-0.82-0.47-1.4-1.89-1.54l-1.15-0.12l0.17-1.66l2.5-2.3
							l-4.62-0.48l0.21-2.02l7.6,0.78l-0.17,1.63l-2.74,2.54C274.54,165.75,275.4,167.07,275.24,168.66z"/>
					</g>
				</g>
				<g>
					<g>
						<path class="st11" d="M321.08,184.54l-21.91-2.26c-1.14-0.12-1.98-1.14-1.86-2.28l2.26-21.91c0.12-1.14,1.14-1.98,2.28-1.86
							l21.91,2.26c1.14,0.12,1.98,1.14,1.86,2.28l-2.26,21.91C323.25,183.83,322.22,184.66,321.08,184.54z"/>
					</g>
					<g class="st12">
						<path d="M321.08,184.54l-21.91-2.26c-1.14-0.12-1.98-1.14-1.86-2.28l2.26-21.91c0.12-1.14,1.14-1.98,2.28-1.86l21.91,2.26
							c1.14,0.12,1.98,1.14,1.86,2.28l-2.26,21.91C323.25,183.83,322.22,184.66,321.08,184.54z"/>
					</g>
					<g>
						<path class="st8" d="M317.15,184.13l-21.91-2.26c-1.14-0.12-1.98-1.14-1.86-2.28l2.26-21.91c0.12-1.14,1.14-1.98,2.28-1.86
							l21.91,2.26c1.14,0.12,1.98,1.14,1.86,2.28l-2.26,21.91C319.31,183.41,318.29,184.24,317.15,184.13z"/>
					</g>
					<g>
						<g>
							
								<rect x="306.92" y="163.69" transform="matrix(0.1025 -0.9947 0.9947 0.1025 107.2639 457.9641)" class="st14" width="1" height="11.7"/>
						</g>
						<g>
							<path class="st14" d="M309.83,164.66c-0.11,1.04-1.04,1.8-2.08,1.69c-1.04-0.11-1.8-1.04-1.69-2.08
								c0.11-1.04,1.04-1.8,2.08-1.69C309.18,162.69,309.93,163.62,309.83,164.66z"/>
						</g>
						<g>
							<path class="st14" d="M308.78,174.81c-0.11,1.04-1.04,1.8-2.08,1.69c-1.04-0.11-1.8-1.04-1.69-2.08
								c0.11-1.04,1.04-1.8,2.08-1.69C308.13,172.83,308.89,173.77,308.78,174.81z"/>
						</g>
					</g>
				</g>
				<g>
					<g>
						<path class="st11" d="M205.48,211.21l-21.91-2.26c-1.14-0.12-1.98-1.14-1.86-2.28l2.26-21.91c0.12-1.14,1.14-1.98,2.28-1.86
							l21.91,2.26c1.14,0.12,1.98,1.14,1.86,2.28l-2.26,21.91C207.65,210.49,206.62,211.33,205.48,211.21z"/>
					</g>
					<g class="st12">
						<path d="M205.48,211.21l-21.91-2.26c-1.14-0.12-1.98-1.14-1.86-2.28l2.26-21.91c0.12-1.14,1.14-1.98,2.28-1.86l21.91,2.26
							c1.14,0.12,1.98,1.14,1.86,2.28l-2.26,21.91C207.65,210.49,206.62,211.33,205.48,211.21z"/>
					</g>
					<g>
						<path class="st8" d="M201.46,210.79l-21.91-2.26c-1.14-0.12-1.98-1.14-1.86-2.28l2.26-21.91c0.12-1.14,1.14-1.98,2.28-1.86
							l21.91,2.26c1.14,0.12,1.98,1.14,1.86,2.28l-2.26,21.91C203.62,210.08,202.6,210.91,201.46,210.79z"/>
					</g>
					<g>
						<path class="st14" d="M196.54,200.18l-1.77-0.18l-0.23,2.28l-2.45-0.25l0.23-2.28l-5.85-0.6l0.17-1.69l5.83-6.36l2.64,0.27
							l-5.42,6.04l2.92,0.3l0.21-2.03l2.37,0.24l-0.21,2.03l1.77,0.18L196.54,200.18z"/>
					</g>
				</g>
				<g>
					<g>
						<path class="st11" d="M241.81,214.95l-21.91-2.26c-1.14-0.12-1.98-1.14-1.86-2.28l2.26-21.91c0.12-1.14,1.14-1.98,2.28-1.86
							l21.91,2.26c1.14,0.12,1.98,1.14,1.86,2.28l-2.26,21.91C243.98,214.24,242.96,215.07,241.81,214.95z"/>
					</g>
					<g class="st12">
						<path d="M241.81,214.95l-21.91-2.26c-1.14-0.12-1.98-1.14-1.86-2.28l2.26-21.91c0.12-1.14,1.14-1.98,2.28-1.86l21.91,2.26
							c1.14,0.12,1.98,1.14,1.86,2.28l-2.26,21.91C243.98,214.24,242.96,215.07,241.81,214.95z"/>
					</g>
					<g>
						<path class="st8" d="M237.79,214.54l-21.91-2.26c-1.14-0.12-1.98-1.14-1.86-2.28l2.26-21.91c0.12-1.14,1.14-1.98,2.28-1.86
							l21.91,2.26c1.14,0.12,1.98,1.14,1.86,2.28l-2.26,21.91C239.96,213.82,238.93,214.65,237.79,214.54z"/>
					</g>
					<g>
						<path class="st14" d="M232.54,202.75c-0.2,1.92-1.78,3.45-4.88,3.13c-1.5-0.16-3.04-0.74-4.02-1.59l1.19-1.82
							c0.76,0.71,1.85,1.18,2.98,1.3c1.26,0.13,2.09-0.32,2.18-1.2c0.09-0.85-0.41-1.47-2.38-1.67l-2.78-0.29l1.19-6.05l6.62,0.68
							l-0.21,2.02l-4.53-0.47l-0.38,2.04l0.88,0.09C231.62,199.25,232.74,200.82,232.54,202.75z"/>
					</g>
				</g>
				<g>
					<g>
						<path class="st11" d="M279.48,218.83l-21.91-2.26c-1.14-0.12-1.98-1.14-1.86-2.28l2.26-21.91c0.12-1.14,1.14-1.98,2.28-1.86
							l21.91,2.26c1.14,0.12,1.98,1.14,1.86,2.28l-2.26,21.91C281.65,218.12,280.62,218.95,279.48,218.83z"/>
					</g>
					<g class="st12">
						<path d="M279.48,218.83l-21.91-2.26c-1.14-0.12-1.98-1.14-1.86-2.28l2.26-21.91c0.12-1.14,1.14-1.98,2.28-1.86l21.91,2.26
							c1.14,0.12,1.98,1.14,1.86,2.28l-2.26,21.91C281.65,218.12,280.62,218.95,279.48,218.83z"/>
					</g>
					<g>
						<path class="st8" d="M275.46,218.42l-21.91-2.26c-1.14-0.12-1.98-1.14-1.86-2.28l2.26-21.91c0.12-1.14,1.14-1.98,2.28-1.86
							l21.91,2.26c1.14,0.12,1.98,1.14,1.86,2.28l-2.26,21.91C277.62,217.7,276.6,218.53,275.46,218.42z"/>
					</g>
					<g>
						<path class="st14" d="M270.97,206.69c-0.23,2.22-2.19,3.43-4.48,3.19c-2.99-0.31-4.66-2.38-4.3-5.88
							c0.39-3.75,2.87-5.62,6.14-5.28c1.15,0.12,2.24,0.5,2.95,1.06l-1.12,1.75c-0.56-0.47-1.25-0.68-1.98-0.75
							c-1.81-0.19-3.09,0.76-3.38,2.83c0.7-0.57,1.65-0.8,2.78-0.69C269.68,203.14,271.18,204.64,270.97,206.69z M268.52,206.56
							c0.1-0.99-0.56-1.7-1.68-1.82c-1.1-0.11-1.95,0.49-2.05,1.44c-0.1,0.93,0.53,1.69,1.74,1.81
							C267.61,208.1,268.42,207.55,268.52,206.56z"/>
					</g>
				</g>
				<g>
					<g>
						<path class="st11" d="M317.15,222.71l-21.91-2.26c-1.14-0.12-1.98-1.14-1.86-2.28l2.26-21.91c0.12-1.14,1.14-1.98,2.28-1.86
							l21.91,2.26c1.14,0.12,1.98,1.14,1.86,2.28l-2.26,21.91C319.31,222,318.29,222.83,317.15,222.71z"/>
					</g>
					<g class="st12">
						<path d="M317.15,222.71l-21.91-2.26c-1.14-0.12-1.98-1.14-1.86-2.28l2.26-21.91c0.12-1.14,1.14-1.98,2.28-1.86l21.91,2.26
							c1.14,0.12,1.98,1.14,1.86,2.28l-2.26,21.91C319.31,222,318.29,222.83,317.15,222.71z"/>
					</g>
					<g>
						<path class="st8" d="M313.12,222.3l-21.91-2.26c-1.14-0.12-1.98-1.14-1.86-2.28l2.26-21.91c0.12-1.14,1.14-1.98,2.28-1.86
							l21.91,2.26c1.14,0.12,1.98,1.14,1.86,2.28l-2.26,21.91C315.29,221.58,314.27,222.41,313.12,222.3z"/>
					</g>
					<g>
						<g>
							
								<rect x="297.66" y="207.64" transform="matrix(0.7852 -0.6192 0.6192 0.7852 -63.696 232.6414)" class="st14" width="11.7" height="1"/>
						</g>
						<g>
							
								<rect x="303.01" y="202.29" transform="matrix(0.7758 -0.631 0.631 0.7758 -63.2838 238.1871)" class="st14" width="1" height="11.7"/>
						</g>
					</g>
				</g>
				<g>
					<g>
						<path class="st11" d="M201.58,249.07l-21.91-2.26c-1.14-0.12-1.98-1.14-1.86-2.28l2.26-21.91c0.12-1.14,1.14-1.98,2.28-1.86
							l21.91,2.26c1.14,0.12,1.98,1.14,1.86,2.28l-2.26,21.91C203.75,248.35,202.72,249.18,201.58,249.07z"/>
					</g>
					<g class="st12">
						<path d="M201.58,249.07l-21.91-2.26c-1.14-0.12-1.98-1.14-1.86-2.28l2.26-21.91c0.12-1.14,1.14-1.98,2.28-1.86l21.91,2.26
							c1.14,0.12,1.98,1.14,1.86,2.28l-2.26,21.91C203.75,248.35,202.72,249.18,201.58,249.07z"/>
					</g>
					<g>
						<path class="st8" d="M197.56,248.65l-21.91-2.26c-1.14-0.12-1.98-1.14-1.86-2.28l2.26-21.91c0.12-1.14,1.14-1.98,2.28-1.86
							l21.91,2.26c1.14,0.12,1.98,1.14,1.86,2.28l-2.26,21.91C199.72,247.94,198.7,248.77,197.56,248.65z"/>
					</g>
					<g>
						<path class="st14" d="M192.08,229.31l-0.17,1.63l-4.99,8.81l-2.73-0.28l4.8-8.41l-3.6-0.37l-0.18,1.77l-2.23-0.23l0.39-3.82
							L192.08,229.31z"/>
					</g>
				</g>
				<g>
					<g>
						<path class="st11" d="M237.91,252.81L216,250.55c-1.14-0.12-1.98-1.14-1.86-2.28l2.26-21.91c0.12-1.14,1.14-1.98,2.28-1.86
							l21.91,2.26c1.14,0.12,1.98,1.14,1.86,2.28l-2.26,21.91C240.08,252.1,239.06,252.93,237.91,252.81z"/>
					</g>
					<g class="st12">
						<path d="M237.91,252.81L216,250.55c-1.14-0.12-1.98-1.14-1.86-2.28l2.26-21.91c0.12-1.14,1.14-1.98,2.28-1.86l21.91,2.26
							c1.14,0.12,1.98,1.14,1.86,2.28l-2.26,21.91C240.08,252.1,239.06,252.93,237.91,252.81z"/>
					</g>
					<g>
						<path class="st8" d="M233.89,252.39l-21.91-2.26c-1.14-0.12-1.98-1.14-1.86-2.28l2.26-21.91c0.12-1.14,1.14-1.98,2.28-1.86
							l21.91,2.26c1.14,0.12,1.98,1.14,1.86,2.28l-2.26,21.91C236.06,251.68,235.03,252.51,233.89,252.39z"/>
					</g>
					<g>
						<path class="st14" d="M229.5,240.96c-0.21,2.05-2.17,3.15-4.93,2.86c-2.75-0.28-4.43-1.76-4.22-3.8
							c0.12-1.16,0.81-1.97,1.91-2.39c-0.76-0.58-1.13-1.39-1.03-2.36c0.2-1.91,2.03-2.93,4.49-2.67c2.5,0.26,4.08,1.63,3.88,3.54
							c-0.1,0.98-0.64,1.69-1.5,2.1C229.11,238.87,229.62,239.8,229.5,240.96z M226.96,240.62c0.1-0.96-0.63-1.63-1.89-1.76
							c-1.24-0.13-2.08,0.38-2.18,1.34c-0.1,0.96,0.61,1.65,1.85,1.77C226.01,242.11,226.87,241.58,226.96,240.62z M223.72,235.63
							c-0.08,0.82,0.52,1.4,1.54,1.51c1.04,0.11,1.76-0.34,1.84-1.16c0.09-0.85-0.54-1.44-1.57-1.54
							C224.52,234.33,223.8,234.78,223.72,235.63z"/>
					</g>
				</g>
				<g>
					<g>
						<path class="st11" d="M275.58,256.69l-21.91-2.26c-1.14-0.12-1.98-1.14-1.86-2.28l2.26-21.91c0.12-1.14,1.14-1.98,2.28-1.86
							l21.91,2.26c1.14,0.12,1.98,1.14,1.86,2.28l-2.26,21.91C277.75,255.98,276.72,256.81,275.58,256.69z"/>
					</g>
					<g class="st12">
						<path d="M275.58,256.69l-21.91-2.26c-1.14-0.12-1.98-1.14-1.86-2.28l2.26-21.91c0.12-1.14,1.14-1.98,2.28-1.86l21.91,2.26
							c1.14,0.12,1.98,1.14,1.86,2.28l-2.26,21.91C277.75,255.98,276.72,256.81,275.58,256.69z"/>
					</g>
					<g>
						<path class="st8" d="M271.56,256.27l-21.91-2.26c-1.14-0.12-1.98-1.14-1.86-2.28l2.26-21.91c0.12-1.14,1.14-1.98,2.28-1.86
							l21.91,2.26c1.14,0.12,1.98,1.14,1.86,2.28l-2.26,21.91C273.72,255.56,272.7,256.39,271.56,256.27z"/>
					</g>
					<g>
						<path class="st14" d="M267.01,242.28c-0.39,3.75-2.85,5.62-6.14,5.28c-1.15-0.12-2.22-0.5-2.93-1.05l1.12-1.75
							c0.55,0.46,1.23,0.68,1.98,0.75c1.8,0.19,3.09-0.76,3.38-2.85c-0.7,0.57-1.67,0.82-2.8,0.7c-2.09-0.22-3.6-1.72-3.39-3.77
							c0.23-2.22,2.19-3.43,4.48-3.19C265.72,236.71,267.37,238.78,267.01,242.28z M264.4,240.1c0.1-0.93-0.53-1.69-1.73-1.81
							c-1.07-0.11-1.88,0.43-1.98,1.43c-0.1,0.99,0.56,1.7,1.68,1.82C263.47,241.65,264.3,241.05,264.4,240.1z"/>
					</g>
				</g>
				<g>
					<g>
						<path class="st11" d="M313.25,260.57l-21.91-2.26c-1.14-0.12-1.98-1.14-1.86-2.28l2.26-21.91c0.12-1.14,1.14-1.98,2.28-1.86
							l21.91,2.26c1.14,0.12,1.98,1.14,1.86,2.28l-2.26,21.91C315.41,259.86,314.39,260.69,313.25,260.57z"/>
					</g>
					<g class="st12">
						<path d="M313.25,260.57l-21.91-2.26c-1.14-0.12-1.98-1.14-1.86-2.28l2.26-21.91c0.12-1.14,1.14-1.98,2.28-1.86l21.91,2.26
							c1.14,0.12,1.98,1.14,1.86,2.28l-2.26,21.91C315.41,259.86,314.39,260.69,313.25,260.57z"/>
					</g>
					<g>
						<path class="st8" d="M309.22,260.15l-21.91-2.26c-1.14-0.12-1.98-1.14-1.86-2.28l2.26-21.91c0.12-1.14,1.14-1.98,2.28-1.86
							l21.91,2.26c1.14,0.12,1.98,1.14,1.86,2.28l-2.26,21.91C311.39,259.44,310.37,260.27,309.22,260.15z"/>
					</g>
					<g>
						<g>
							
								<rect x="299.11" y="240.15" transform="matrix(0.1024 -0.9947 0.9947 0.1024 24.2224 518.8412)" class="st14" width="1" height="11.7"/>
						</g>
					</g>
				</g>
				<g>
					<g>
						<path class="st11" d="M271.65,294.88l-21.91-2.26c-1.14-0.12-1.98-1.14-1.86-2.28l2.26-21.91c0.12-1.14,1.14-1.98,2.28-1.86
							l21.91,2.26c1.14,0.12,1.98,1.14,1.86,2.28l-2.26,21.91C273.81,294.16,272.79,295,271.65,294.88z"/>
					</g>
					<g class="st12">
						<path d="M271.65,294.88l-21.91-2.26c-1.14-0.12-1.98-1.14-1.86-2.28l2.26-21.91c0.12-1.14,1.14-1.98,2.28-1.86l21.91,2.26
							c1.14,0.12,1.98,1.14,1.86,2.28l-2.26,21.91C273.81,294.16,272.79,295,271.65,294.88z"/>
					</g>
					<g>
						<path class="st8" d="M267.62,294.46l-21.91-2.26c-1.14-0.12-1.98-1.14-1.86-2.28l2.26-21.91c0.12-1.14,1.14-1.98,2.28-1.86
							l21.91,2.26c1.14,0.12,1.98,1.14,1.86,2.28l-2.26,21.91C269.79,293.75,268.77,294.58,267.62,294.46z"/>
					</g>
				</g>
				<g>
					<g>
						<path class="st11" d="M309.31,298.76l-21.91-2.26c-1.14-0.12-1.98-1.14-1.86-2.28l2.26-21.91c0.12-1.14,1.14-1.98,2.28-1.86
							L312,272.7c1.14,0.12,1.98,1.14,1.86,2.28l-2.26,21.91C311.48,298.05,310.46,298.88,309.31,298.76z"/>
					</g>
					<g class="st12">
						<path d="M309.31,298.76l-21.91-2.26c-1.14-0.12-1.98-1.14-1.86-2.28l2.26-21.91c0.12-1.14,1.14-1.98,2.28-1.86L312,272.7
							c1.14,0.12,1.98,1.14,1.86,2.28l-2.26,21.91C311.48,298.05,310.46,298.88,309.31,298.76z"/>
					</g>
					<g>
						<path class="st15" d="M305.29,298.34l-21.91-2.26c-1.14-0.12-1.98-1.14-1.86-2.28l2.26-21.91c0.12-1.14,1.14-1.98,2.28-1.86
							l21.91,2.26c1.14,0.12,1.98,1.14,1.86,2.28l-2.26,21.91C307.46,297.63,306.43,298.46,305.29,298.34z"/>
					</g>
					<g>
						<g>
							<g>
								
									<rect x="295.32" y="276.9" transform="matrix(0.1024 -0.9947 0.9947 0.1024 -15.7274 548.0756)" class="st14" width="1" height="11.7"/>
							</g>
						</g>
						<g>
							<g>
								
									<rect x="294.87" y="281.33" transform="matrix(0.1024 -0.9947 0.9947 0.1024 -20.542 551.5976)" class="st14" width="1" height="11.7"/>
							</g>
						</g>
					</g>
				</g>
				<g>
					<path class="st8" d="M228.64,290.78l-57.92-5.97c-1.37-0.14-2.37-1.37-2.23-2.74l2.24-21.74c0.14-1.37,1.37-2.37,2.74-2.23
						l57.92,5.97c1.37,0.14,2.37,1.37,2.23,2.74l-2.24,21.74C231.25,289.93,230.02,290.92,228.64,290.78z"/>
				</g>
				<g>
					<path class="st14" d="M198.72,273.68c0.37-3.58,2.56-5.41,5.23-5.14c2.68,0.28,4.44,2.51,4.08,6.09
						c-0.37,3.58-2.55,5.41-5.23,5.14C200.13,279.5,198.35,277.26,198.72,273.68z M205.5,274.38c0.25-2.47-0.51-3.58-1.77-3.71
						c-1.24-0.13-2.21,0.81-2.47,3.27c-0.25,2.47,0.51,3.58,1.75,3.71C204.27,277.78,205.25,276.84,205.5,274.38z"/>
				</g>
				<g>
					<g>
						
							<rect x="252.16" y="279.81" transform="matrix(0.1172 -0.9931 0.9931 0.1172 -50.6083 503.6835)" class="st14" width="11.7" height="1"/>
					</g>
					<g>
						
							<rect x="257.51" y="274.46" transform="matrix(0.1024 -0.9947 0.9947 0.1024 -47.2549 508.2459)" class="st14" width="1" height="11.7"/>
					</g>
				</g>
				<g>
					<path class="st8" d="M246.8,96.24l-1.67,16.23l-0.77-0.08l1.6-15.52l-4.08-0.42l0.07-0.72L246.8,96.24z"/>
					<path class="st8" d="M260.14,113.29l-0.07,0.72l-10.99-1.13l0.06-0.56l7.68-6.29c2.2-1.79,2.74-2.93,2.88-4.25
						c0.22-2.16-1.14-3.7-3.97-4c-2.16-0.22-3.8,0.24-5.07,1.45l-0.48-0.56c1.35-1.27,3.26-1.84,5.65-1.6
						c3.11,0.32,4.91,2.12,4.64,4.74c-0.16,1.53-0.78,2.83-3.14,4.74l-6.99,5.73L260.14,113.29z"/>
					<path class="st8" d="M273,110.79c-0.28,2.69-2.38,4.4-5.95,4.03c-2.44-0.25-4.5-1.4-5.4-2.83l0.47-0.51
						c0.83,1.28,2.66,2.38,4.98,2.62c3.11,0.32,4.89-1.04,5.13-3.39c0.24-2.37-1.18-4.04-4.61-4.39l-0.9-0.09l0.06-0.56l5.74-6.07
						l-8.95-0.92l0.07-0.72l9.97,1.03l-0.06,0.56l-5.76,6.09C271.59,106.03,273.28,108.08,273,110.79z"/>
					<path class="st8" d="M288.98,112.25l-3.53-0.36l-0.48,4.68l-0.77-0.08l0.48-4.69l-9.32-0.96l0.06-0.56l10.11-10.07l0.9,0.09
						l-9.98,9.94l8.3,0.85l0.42-4.13l0.77,0.08l-0.42,4.13l3.53,0.36L288.98,112.25z"/>
					<path class="st8" d="M292.37,116.63c-0.03,0.3-0.12,0.48-0.23,0.84l-1.16,3.02l-0.6-0.06l1.05-3.13
						c-0.39-0.11-0.64-0.44-0.59-0.83c0.04-0.42,0.4-0.73,0.84-0.69C292.14,115.84,292.4,116.26,292.37,116.63z"/>
					<path class="st8" d="M308.45,114.26l-3.53-0.36l-0.48,4.69l-0.77-0.08l0.48-4.69l-9.32-0.96l0.06-0.56l10.11-10.07l0.9,0.09
						l-9.98,9.94l8.3,0.86l0.42-4.13l0.77,0.08L305,113.2l3.53,0.36L308.45,114.26z"/>
					<path class="st8" d="M320.51,115.6c-0.27,2.64-2.32,4.5-6,4.12c-2.39-0.25-4.47-1.4-5.38-2.83l0.5-0.51
						c0.81,1.28,2.66,2.38,4.96,2.62c3.18,0.33,4.9-1.18,5.14-3.48c0.26-2.51-1.07-4.14-5.71-4.62l-3.15-0.33l1.65-7.57l8.37,0.86
						l-0.07,0.72l-7.72-0.8l-1.34,6.14l2.5,0.26C319.2,110.7,320.8,112.72,320.51,115.6z"/>
				</g>
			</g>
		</g>
		<g>
			<g>
				<g>
					<g>
						<g>
							<g>
								<g>
									<g>
										<g>
											<polygon class="st11" points="143.12,448.17 136.77,471.68 157.43,473.56 161.77,451.18 											"/>
										</g>
									</g>
								</g>
								<g>
									<g>
										<g>
											<g>
												<path class="st8" d="M158.03,471.65c-0.01,0.08-1.16,0.05-3.03-0.1c-1.86-0.15-4.43-0.43-7.25-0.8
													c-2.72-0.37-5.18-0.7-7.22-0.97c-1.85-0.26-2.99-0.43-2.98-0.52c0.01-0.08,1.16-0.04,3.03,0.11
													c1.86,0.15,4.43,0.44,7.25,0.8c2.72,0.36,5.18,0.69,7.22,0.96C156.89,471.4,158.04,471.57,158.03,471.65z"/>
											</g>
										</g>
									</g>
								</g>
								<g class="st16">
									<g>
										<g>
											<polyline class="st14" points="136.77,471.68 157.43,473.56 157.76,471.84 137.36,469.25 136.79,471.44 											"/>
										</g>
									</g>
								</g>
							</g>
						</g>
						<g>
							<g>
								<g>
									<path class="st8" d="M147.03,470.63c-0.13-0.03,0.75-4.06,1.96-9.01c1.22-4.94,2.31-8.92,2.44-8.89
										c0.13,0.03-0.75,4.06-1.96,9.01C148.25,466.68,147.16,470.66,147.03,470.63z"/>
								</g>
							</g>
						</g>
						<g>
							<g>
								<g>
									<path class="st8" d="M156.89,471.5c-0.13-0.01,0.66-1.69,0.05-4.37c-0.32-1.31-1-2.83-2.26-4.09
										c-1.24-1.27-3.1-2.15-5.14-2.36c-2.05-0.2-4.04,0.3-5.53,1.26c-1.51,0.95-2.55,2.24-3.22,3.42
										c-1.31,2.41-1.19,4.22-1.3,4.19c-0.02,0-0.03-0.11-0.03-0.31c-0.01-0.21,0.01-0.51,0.05-0.89
										c0.09-0.77,0.35-1.89,0.98-3.15c0.65-1.24,1.7-2.61,3.28-3.63c1.56-1.04,3.67-1.57,5.82-1.36
										c2.15,0.22,4.12,1.17,5.41,2.53c1.31,1.35,1.99,2.96,2.28,4.33c0.27,1.38,0.18,2.54,0.01,3.3
										c-0.09,0.38-0.17,0.67-0.25,0.86C156.95,471.4,156.9,471.5,156.89,471.5z"/>
								</g>
							</g>
						</g>
					</g>
					<g>
						<g>
							<g>
								<g>
									<path class="st11" d="M228.37,445.49l-1.23,18.51c0,0,18.43,6.11,18.53,9.56l-36,0.26l0.73-28.92L228.37,445.49z"/>
								</g>
							</g>
							<g class="st16">
								<g>
									<g>
										<path class="st14" d="M216.06,462.11c-0.7,0.17-1.21,0.94-1.07,1.65c0.14,0.71,0.92,1.23,1.62,1.07
											c0.7-0.16,1.34-1.06,1.12-1.75c-0.22-0.69-1.16-1.25-1.81-0.93"/>
									</g>
								</g>
							</g>
							<g class="st16">
								<g>
									<path class="st14" d="M209.67,473.83l0.19-2.91l34.66,0.96c0,0,1.16,0.5,1.34,1.96L209.67,473.83z"/>
								</g>
							</g>
							<g>
								<g>
									<g>
										<path class="st8" d="M227.73,463.84c-0.01,0.18-0.89,0.23-1.77,0.77c-0.9,0.52-1.36,1.26-1.52,1.19
											c-0.16-0.04,0.13-1.08,1.21-1.72C226.71,463.44,227.77,463.68,227.73,463.84z"/>
									</g>
								</g>
							</g>
							<g>
								<g>
									<g>
										<path class="st8" d="M231.45,465.52c0.04,0.17-0.73,0.45-1.35,1.17c-0.64,0.71-0.82,1.51-0.99,1.49
											c-0.17,0.02-0.26-1.01,0.53-1.9C230.42,465.39,231.46,465.35,231.45,465.52z"/>
									</g>
								</g>
							</g>
							<g>
								<g>
									<g>
										<path class="st8" d="M233.46,470.1c-0.16,0.03-0.38-0.85,0.1-1.8c0.47-0.95,1.31-1.31,1.38-1.16
											c0.09,0.15-0.45,0.65-0.84,1.43C233.71,469.35,233.64,470.09,233.46,470.1z"/>
									</g>
								</g>
							</g>
							<g>
								<g>
									<g>
										<path class="st8" d="M227.54,459.59c-0.08,0.16-0.88-0.11-1.87-0.07c-1,0.02-1.78,0.33-1.87,0.17
											c-0.1-0.13,0.68-0.76,1.85-0.79C226.82,458.87,227.63,459.46,227.54,459.59z"/>
									</g>
								</g>
							</g>
						</g>
						<g class="st17">
							<g>
								<polygon points="228.12,449.16 227.9,452.46 210.22,451.76 210.29,448.79 								"/>
							</g>
						</g>
						<g>
							<g>
								<g>
									<path class="st8" d="M227.72,455.85c0,0.07-0.7,0.16-1.8-0.06c-0.55-0.11-1.19-0.31-1.87-0.64
										c-0.34-0.16-0.68-0.35-1.02-0.58c-0.16-0.11-0.36-0.23-0.53-0.44c-0.19-0.19-0.29-0.66-0.05-0.94
										c0.19-0.27,0.52-0.38,0.78-0.38c0.27,0,0.48,0.06,0.67,0.11c0.4,0.11,0.77,0.25,1.11,0.42c0.68,0.33,1.22,0.75,1.63,1.14
										c0.81,0.8,1.08,1.46,1.02,1.5c-0.08,0.06-0.47-0.51-1.3-1.17c-0.41-0.33-0.95-0.68-1.58-0.95
										c-0.32-0.14-0.66-0.26-1.02-0.35c-0.38-0.11-0.7-0.12-0.81,0.04c-0.04,0.06-0.04,0.09,0.03,0.2
										c0.08,0.11,0.23,0.21,0.39,0.32c0.31,0.22,0.63,0.41,0.94,0.57c0.62,0.33,1.21,0.56,1.72,0.72
										C227.05,455.69,227.72,455.76,227.72,455.85z"/>
								</g>
							</g>
						</g>
						<g>
							<g>
								<g>
									<path class="st8" d="M227.48,456.1c-0.06,0.03-0.39-0.62-0.42-1.75c-0.01-0.57,0.07-1.25,0.31-1.97
										c0.12-0.36,0.28-0.72,0.49-1.08c0.22-0.35,0.49-0.82,1.18-0.88c0.36,0,0.64,0.28,0.74,0.53c0.11,0.25,0.13,0.46,0.16,0.67
										c0.05,0.42,0.03,0.83-0.04,1.21c-0.14,0.76-0.47,1.39-0.83,1.84c-0.73,0.91-1.47,1.1-1.48,1.04
										c-0.06-0.09,0.57-0.41,1.13-1.29c0.28-0.43,0.53-1.01,0.62-1.68c0.05-0.33,0.05-0.69,0-1.04c-0.04-0.38-0.18-0.7-0.32-0.66
										c-0.18-0.01-0.49,0.27-0.65,0.57c-0.19,0.32-0.35,0.64-0.48,0.96c-0.25,0.64-0.36,1.26-0.4,1.79
										C227.41,455.41,227.58,456.07,227.48,456.1z"/>
								</g>
							</g>
						</g>
					</g>
					<g>
						<path class="st15" d="M150.31,157.14c0,0-3.9,21.3-7.04,34.19c-2.43,10.01-8.74,28.77,2.67,34.22
							c11.41,5.45,26.75-16.54,26.75-16.54l6.51-50.13c-4.54,0.85-9.67,6.1-15.14,13.84l0.99-19.02L150.31,157.14z"/>
					</g>
					<g>
						<path class="st9" d="M307.33,188.61l-6,2.86l-5.52-8.67l3.23-6.69c0.31-0.62,0.63-1.32,0.98-2.12
							c0.4-0.93,0.64-1.93,0.71-2.94c0.09-1.23,0.14-2.86-0.1-3.77c-0.3-1.12,0.88-2.03,1.69-1.38c0.8,0.65,1.7,3.71,1.1,7.39
							c-0.6,3.69,3.7-0.22,5.29-1.62c1.59-1.4,6.7-5.48,7.5-5.32c1.18,0.23,1.14,1.57-0.47,2.93c-1.64,1.37-6.19,5.78-5.44,6.6
							c0,0,0.01,0,0.04,0c1.92,0.2,3.49,1.62,3.92,3.5c0.41,1.82,0.74,4.32-0.28,5.15C312.04,186.09,307.33,188.61,307.33,188.61z"
							/>
					</g>
					<g>
						<g>
							<g>
								<path class="st9" d="M190.99,107.79l-0.16,52.11l22.36,1.07l0.65-12.68c0,0,7.94,1.58,9.99-5.8
									c1.31-4.71,0.98-41.12,0.98-41.12L190.99,107.79z"/>
							</g>
							<g>
								<path class="st8" d="M229.85,106.51c-1.51,3.11-8.68,8.81-8.68,8.81l-3.24,8.68c-2.81-2.2-6.59-2.08-7.31,2.87
									c-0.52,3.57,3.93,4.3,3.93,4.3c-2.59,4.4-4.34,7.96-8.11,12.15c-4.08,4.53-6.36,4.99-10.78,5.06h-4.87
									c0,0-9.97-8.33-8-30.28c1.97-21.95,21.7-15.55,26.41-21.03C216.88,88.13,234.88,96.12,229.85,106.51z"/>
							</g>
						</g>
						<g>
							<g>
								<path class="st15" d="M183.9,136.44c0,0,0.22-0.01,0.62,0c0.41-0.02,1.01-0.04,1.77-0.2c1.51-0.3,3.65-1.18,5.73-3.03
									c2.1-1.83,3.94-4.61,5.81-7.77c0.95-1.57,1.94-3.24,3.14-4.85c1.2-1.6,2.61-3.17,4.39-4.37c1.77-1.21,3.77-1.92,5.7-2.43
									c1.94-0.51,3.85-0.82,5.65-1.17c3.6-0.66,6.83-1.67,9.03-3.37c2.21-1.69,3.31-3.79,3.65-5.28c0.2-0.75,0.2-1.36,0.21-1.76
									c-0.02-0.41-0.02-0.62-0.02-0.62s0.03,0.21,0.06,0.62c0,0.41,0.01,1.02-0.18,1.78c-0.33,1.51-1.42,3.65-3.64,5.38
									c-2.22,1.75-5.48,2.77-9.08,3.45c-1.8,0.36-3.71,0.67-5.64,1.18c-1.92,0.51-3.89,1.21-5.63,2.4
									c-1.75,1.18-3.15,2.73-4.34,4.32c-1.19,1.6-2.18,3.25-3.13,4.82c-1.87,3.15-3.74,5.95-5.87,7.78
									c-2.11,1.85-4.28,2.72-5.81,3c-0.77,0.16-1.38,0.16-1.79,0.17C184.11,136.47,183.9,136.44,183.9,136.44z"/>
							</g>
						</g>
						<g>
							<g>
								<path class="st15" d="M182.75,118.59c0,0,0.35-0.14,1.04-0.37c0.68-0.22,1.7-0.57,3.06-0.73c1.34-0.15,3.15-0.09,4.8,1.04
									c0.8,0.55,1.52,1.44,1.71,2.56c0.19,1.08-0.05,2.4-0.99,3.27c-0.46,0.43-1.1,0.67-1.75,0.7c-0.66,0.03-1.32-0.18-1.91-0.51
									c-1.17-0.68-2.12-1.85-2.56-3.24c-0.47-1.38-0.55-2.93-0.19-4.44c0.35-1.51,1.18-2.96,2.41-4.04
									c1.21-1.09,2.8-1.84,4.51-2.02c1.71-0.18,3.45,0.19,5.14,0.67c1.7,0.47,3.4,1.02,5.2,1.25c1.79,0.24,3.64,0.25,5.48,0.01
									c1.83-0.25,3.64-0.69,5.27-1.46c1.61-0.76,3.07-2.01,3.53-3.7c0.47-1.65,0.02-3.54-1.17-4.69c-1.19-1.17-3.1-1.33-4.52-0.67
									c-0.71,0.33-1.33,0.87-1.67,1.56c-0.36,0.68-0.45,1.47-0.36,2.21c0.2,1.49,1.09,2.82,2.27,3.58
									c1.19,0.78,2.59,1.07,3.91,1.1c1.33,0.04,2.59-0.21,3.75-0.56c2.33-0.72,4.19-2.02,5.55-3.38c1.38-1.36,2.28-2.8,2.87-4.02
									c0.61-1.22,0.86-2.26,1.05-2.95c0.14-0.71,0.22-1.07,0.22-1.07s-0.05,0.37-0.18,1.08c-0.18,0.69-0.42,1.74-1.02,2.98
									c-0.58,1.24-1.47,2.69-2.86,4.07c-1.37,1.38-3.23,2.7-5.59,3.44c-1.17,0.37-2.45,0.61-3.8,0.58c-1.34-0.03-2.77-0.32-4-1.11
									c-1.23-0.78-2.15-2.15-2.36-3.7c-0.1-0.77,0-1.6,0.37-2.32c0.36-0.73,1.01-1.31,1.75-1.65c1.48-0.69,3.47-0.54,4.73,0.7
									c1.26,1.21,1.71,3.16,1.23,4.89c-0.49,1.77-2,3.06-3.64,3.83c-1.66,0.79-3.48,1.22-5.33,1.48
									c-1.86,0.24-3.73,0.23-5.53-0.01c-1.82-0.23-3.54-0.78-5.22-1.25c-1.68-0.47-3.39-0.84-5.06-0.66
									c-1.66,0.17-3.22,0.9-4.4,1.96c-2.45,2.12-3.1,5.61-2.18,8.28c0.42,1.36,1.34,2.49,2.47,3.15c0.57,0.32,1.2,0.52,1.82,0.5
									c0.62-0.03,1.22-0.26,1.66-0.66c0.89-0.81,1.14-2.09,0.95-3.13c-0.18-1.08-0.87-1.94-1.65-2.48
									c-1.6-1.11-3.39-1.19-4.72-1.05c-1.36,0.15-2.37,0.48-3.06,0.69C183.11,118.48,182.75,118.59,182.75,118.59z"/>
							</g>
						</g>
					</g>
					<g>
						<g>
							<polygon class="st8" points="168.01,260.45 138.25,455.93 162.97,459.06 197.85,295.11 206.63,460.16 233.42,459.7 
								228.98,260.91 							"/>
							<path class="st8" d="M206.15,460.67l-0.03-0.48l-8.58-161.28l-34.19,160.71l-25.68-3.26l29.9-196.41l61.88,0.47l4.46,199.77
								L206.15,460.67z M198.14,291.3l8.96,168.36l25.81-0.45l-4.42-197.8l-60.05-0.45l-29.62,194.54l23.75,3.02L198.14,291.3z"/>
						</g>
						<g>
							<g>
								<path class="st15" d="M225.46,459.38c-0.14,0-0.26-39.17-0.26-87.47c0-48.32,0.12-87.48,0.26-87.48
									c0.14,0,0.26,39.16,0.26,87.48C225.72,420.22,225.6,459.38,225.46,459.38z"/>
							</g>
						</g>
						<g>
							<g>
								<path class="st15" d="M157.53,458.67c-0.01,0,0.01-0.15,0.06-0.43c0.06-0.3,0.13-0.71,0.23-1.24
									c0.22-1.11,0.52-2.71,0.92-4.75c0.83-4.15,2.03-10.1,3.5-17.45c3-14.72,7.25-35.04,12.13-57.45
									c4.88-22.41,9.47-42.66,12.87-57.3c1.71-7.3,3.1-13.21,4.07-17.32c0.49-2.02,0.87-3.6,1.14-4.7
									c0.13-0.52,0.23-0.92,0.31-1.22c0.07-0.27,0.11-0.41,0.12-0.41c0.01,0-0.02,0.15-0.07,0.42c-0.06,0.3-0.15,0.71-0.26,1.23
									c-0.24,1.11-0.6,2.69-1.05,4.72c-0.93,4.12-2.26,10.05-3.91,17.36c-3.3,14.66-7.84,34.92-12.72,57.33
									c-4.88,22.4-9.19,42.71-12.28,57.41c-1.54,7.33-2.8,13.28-3.67,17.41c-0.44,2.03-0.78,3.62-1.01,4.73
									c-0.12,0.52-0.21,0.93-0.28,1.23C157.58,458.53,157.54,458.67,157.53,458.67z"/>
							</g>
						</g>
						<g>
							<g>
								<path class="st15" d="M206.63,294.93c0,0.04-0.4,0.09-1.13,0.15c-0.84,0.06-1.87,0.13-3.09,0.22
									c-2.61,0.17-6.21,0.35-10.17,0.74c-3.96,0.4-7.53,0.93-10.12,1.27c-1.21,0.15-2.24,0.28-3.07,0.39
									c-0.73,0.08-1.13,0.11-1.14,0.07c-0.01-0.04,0.39-0.13,1.11-0.27c0.72-0.14,1.76-0.33,3.05-0.55
									c2.58-0.43,6.15-1.02,10.13-1.42c3.98-0.39,7.6-0.51,10.21-0.59c1.31-0.04,2.37-0.05,3.1-0.05
									C206.22,294.88,206.63,294.9,206.63,294.93z"/>
							</g>
						</g>
						<g>
							<g>
								<path class="st15" d="M229.5,282.24c0.01,0.03-0.27,0.11-0.77,0.19c-0.5,0.08-1.24,0.14-2.16,0.1
									c-1.82-0.07-4.39-0.69-6.69-2.34c-2.3-1.65-3.7-3.9-4.35-5.59c-0.33-0.85-0.51-1.57-0.6-2.08c-0.08-0.5-0.09-0.79-0.06-0.79
									c0.09-0.02,0.26,1.1,1,2.72c0.72,1.62,2.11,3.73,4.31,5.31c2.2,1.58,4.65,2.23,6.41,2.39
									C228.37,282.34,229.48,282.14,229.5,282.24z"/>
							</g>
						</g>
					</g>
					<g>
						<g>
							<g>
								<g>
									<path class="st15" d="M162.92,264.29l68.47-0.22l-3.75-45.19c-0.41-10.34-0.35-11.57-0.61-21.12
										c0,0,9.72,11.75,17.37,19.99c4.62,4.98,11.94,6.37,18.08,3.47l40.01-27.91l-7.49-19.16l-36.36,22.25
										c-1.67-1.03-15.82-21.22-25.6-31.08c-6.26-6.31-14.7-9.94-23.59-10.2c-6.72-0.2-14.84,0.12-22.09,0.89
										c-11.02,1.17-19.64,10.02-20.56,21.06c-0.71,8.45-0.14,18.26-0.14,34.93L162.92,264.29z"/>
								</g>
							</g>
							<g>
								<g>
									<path class="st8" d="M166.14,181.63c0,0,0.01,0.18,0.01,0.53c0,0.4-0.01,0.9-0.01,1.51c-0.02,1.31-0.02,3.21,0,5.56
										c0.03,4.7,0.22,11.18,0.42,18.35c0.2,7.17,0.24,13.67,0.06,18.36c-0.08,2.35-0.19,4.25-0.3,5.56
										c-0.05,0.61-0.09,1.1-0.12,1.51c-0.03,0.34-0.06,0.52-0.06,0.52s0-0.18,0.02-0.53c0.02-0.4,0.05-0.9,0.08-1.51
										c0.09-1.31,0.17-3.21,0.23-5.56c0.14-4.7,0.08-11.19-0.12-18.35c-0.2-7.17-0.37-13.66-0.36-18.36
										c0-2.35,0.03-4.25,0.07-5.57c0.02-0.61,0.04-1.11,0.05-1.51C166.12,181.81,166.14,181.63,166.14,181.63z"/>
								</g>
							</g>
							<g>
								<g>
									<path class="st8" d="M257.15,202.87c-0.03-0.01,0.03-0.36,0.14-0.94c0.12-0.58,0.29-1.37,0.49-2.25
										c0.2-0.88,0.4-1.67,0.55-2.23c0.15-0.57,0.26-0.92,0.29-0.91c0.03,0.01-0.03,0.37-0.15,0.95
										c-0.12,0.58-0.29,1.37-0.49,2.24c-0.2,0.87-0.4,1.66-0.55,2.23C257.29,202.52,257.18,202.87,257.15,202.87z"/>
								</g>
							</g>
							<g>
								<g>
									<path class="st8" d="M260.8,203.43c-0.06,0.01-0.47-1.6-0.93-3.6c-0.46-2-0.78-3.63-0.73-3.65c0.06-0.01,0.47,1.6,0.93,3.6
										C260.53,201.78,260.85,203.42,260.8,203.43z"/>
								</g>
							</g>
							<g>
								<g>
									<path class="st8" d="M228.73,199.45c0,0-0.13-0.11-0.37-0.34c-0.28-0.27-0.63-0.61-1.04-1.01
										c-0.9-0.89-2.21-2.17-3.76-3.82c-1.55-1.65-3.35-3.66-5.11-6.09c-1.75-2.42-3.46-5.28-4.65-8.54
										c-1.2-3.25-1.71-6.58-1.53-9.58c0.14-2.99,0.71-5.69,1.72-7.73c1-2.06,2.36-3.38,3.36-4.14c0.51-0.37,0.92-0.65,1.22-0.8
										c0.29-0.17,0.45-0.25,0.45-0.25c0.02,0.03-0.62,0.34-1.61,1.11c-0.99,0.77-2.31,2.1-3.28,4.14
										c-0.99,2.03-1.54,4.7-1.66,7.68c-0.17,2.98,0.34,6.27,1.54,9.5c1.18,3.24,2.87,6.08,4.61,8.5c1.74,2.42,3.53,4.44,5.06,6.1
										c1.54,1.66,2.82,2.96,3.71,3.86c0.41,0.42,0.74,0.76,1.02,1.04C228.62,199.32,228.73,199.45,228.73,199.45z"/>
								</g>
							</g>
						</g>
						<g>
							<g>
								<path class="st13" d="M184.22,180.86c-0.11,0.09-1.16-1.05-2.35-2.54c-1.19-1.5-2.05-2.78-1.94-2.87
									c0.11-0.09,1.16,1.05,2.35,2.54C183.46,179.48,184.33,180.77,184.22,180.86z"/>
							</g>
						</g>
						<g>
							<g>
								<path class="st13" d="M199.78,198.52c0.1,0.1-1.35,1.72-3.24,3.6c-1.89,1.89-3.51,3.34-3.61,3.24
									c-0.1-0.1,1.35-1.72,3.24-3.6C198.06,199.87,199.68,198.42,199.78,198.52z"/>
							</g>
						</g>
						<g>
							<g>
								<path class="st13" d="M214.84,223.87c-0.15,0.04-0.7-1.5-1.71-3.22c-1-1.73-2.08-2.97-1.97-3.07
									c0.09-0.1,1.38,1.01,2.42,2.81C214.63,222.17,214.97,223.84,214.84,223.87z"/>
							</g>
						</g>
						<g>
							<g>
								<path class="st13" d="M175.8,221c-0.12,0.05-1.11-2.12-1.61-5.01c-0.51-2.88-0.33-5.26-0.2-5.25c0.16,0,0.2,2.34,0.71,5.16
									C175.2,218.73,175.95,220.94,175.8,221z"/>
							</g>
						</g>
						<g>
							<g>
								<path class="st13" d="M196.53,232.16c-0.12,0.05-0.92-1.78-1.13-4.22c-0.23-2.44,0.24-4.38,0.37-4.35
									c0.15,0.02-0.07,1.95,0.15,4.31C196.12,230.25,196.68,232.11,196.53,232.16z"/>
							</g>
						</g>
						<g>
							<g>
								<path class="st13" d="M188.33,248.37c-0.08,0.12-2.18-1.06-4.7-2.63c-2.52-1.58-4.5-2.95-4.43-3.07
									c0.08-0.12,2.18,1.06,4.7,2.63C186.43,246.88,188.41,248.25,188.33,248.37z"/>
							</g>
						</g>
						<g>
							<g>
								<path class="st13" d="M220.57,243.58c0.06,0.14-2.26,1.29-4.95,3c-2.7,1.69-4.74,3.29-4.83,3.17
									c-0.09-0.1,1.82-1.9,4.56-3.61C218.07,244.41,220.52,243.45,220.57,243.58z"/>
							</g>
						</g>
						<g>
							<g>
								<path class="st13" d="M180.02,261.91c-0.03,0.14-2.29-0.19-5.04-0.74c-2.76-0.55-4.97-1.11-4.94-1.25
									c0.03-0.14,2.29,0.19,5.04,0.74C177.84,261.21,180.05,261.77,180.02,261.91z"/>
							</g>
						</g>
						<g>
							<g>
								<path class="st13" d="M201.64,258.39c-0.1,0.09-1.34-1.21-2.38-3.14c-1.05-1.93-1.46-3.67-1.33-3.71
									c0.14-0.05,0.76,1.58,1.79,3.46C200.73,256.88,201.76,258.29,201.64,258.39z"/>
							</g>
						</g>
						<g>
							<g>
								<path class="st13" d="M225.96,260.08c0.11,0.09-0.59,1.11-1.56,2.27c-0.97,1.16-1.85,2.03-1.96,1.94
									c-0.11-0.09,0.59-1.11,1.56-2.27C224.97,260.86,225.85,259.99,225.96,260.08z"/>
							</g>
						</g>
						<g>
							<g>
								<path class="st13" d="M181.47,191.34c0.08,0.12-0.81,0.86-1.99,1.64c-1.18,0.79-2.2,1.33-2.28,1.21
									c-0.08-0.12,0.81-0.86,1.99-1.64C180.37,191.76,181.39,191.22,181.47,191.34z"/>
							</g>
						</g>
						<g>
							<g>
								<path class="st13" d="M198.35,172.49c-0.13,0.05-1.02-2.23-1.8-5.14c-0.78-2.91-1.15-5.33-1.01-5.36
									c0.14-0.03,0.74,2.33,1.52,5.22C197.83,170.1,198.49,172.44,198.35,172.49z"/>
							</g>
						</g>
						<g>
							<g>
								<path class="st13" d="M214.56,189.65c-0.06,0.14-1.52-0.42-3.4-0.77c-1.87-0.37-3.44-0.38-3.44-0.54
									c-0.01-0.13,1.59-0.35,3.54,0.02C213.2,188.73,214.62,189.53,214.56,189.65z"/>
							</g>
						</g>
						<g>
							<g>
								<path class="st13" d="M225.7,175.07c0.02,0.13-1.7,0.46-3.82,0.12c-2.12-0.32-3.66-1.15-3.6-1.27
									c0.06-0.14,1.64,0.45,3.68,0.75C223.99,175,225.68,174.92,225.7,175.07z"/>
							</g>
						</g>
						<g>
							<g>
								<path class="st13" d="M237.09,191.33c-0.13,0-0.22-2.49,0.28-5.51c0.48-3.03,1.35-5.36,1.48-5.32
									c0.15,0.04-0.49,2.42-0.96,5.4C237.4,188.88,237.25,191.34,237.09,191.33z"/>
							</g>
						</g>
						<g>
							<g>
								<path class="st13" d="M250.49,210.49c-0.1,0.1-1.7-1.38-3.56-3.29c-1.86-1.92-3.29-3.56-3.18-3.66
									c0.1-0.1,1.7,1.38,3.56,3.3C249.16,208.75,250.59,210.39,250.49,210.49z"/>
							</g>
						</g>
						<g>
							<g>
								<path class="st13" d="M261.63,209.01c0.12,0.08-0.68,1.54-1.8,3.27c-1.11,1.73-2.11,3.06-2.23,2.99
									c-0.12-0.08,0.68-1.54,1.8-3.27C260.51,210.27,261.51,208.94,261.63,209.01z"/>
							</g>
						</g>
						<g>
							<g>
								<path class="st13" d="M274.56,202.71c-0.13,0.06-1.1-1.66-2.16-3.85c-1.06-2.19-1.82-4.01-1.69-4.08
									c0.13-0.06,1.09,1.66,2.16,3.85C273.93,200.83,274.69,202.65,274.56,202.71z"/>
							</g>
						</g>
						<g>
							<g>
								<path class="st13" d="M292.16,195.43c-0.03,0.14-2.08-0.11-4.59-0.55c-2.51-0.45-4.53-0.92-4.5-1.07
									c0.03-0.14,2.08,0.11,4.59,0.55C290.17,194.81,292.19,195.29,292.16,195.43z"/>
							</g>
						</g>
						<g>
							<g>
								<path class="st13" d="M152.36,214.16c-0.13-0.06,0.7-2.1,1.86-4.56c1.16-2.46,2.2-4.4,2.33-4.33
									c0.13,0.06-0.7,2.1-1.86,4.56C153.53,212.28,152.49,214.22,152.36,214.16z"/>
							</g>
						</g>
						<g>
							<g>
								<path class="st13" d="M161.69,197.7c-0.11,0.1-1.46-1.24-3.03-2.98c-1.57-1.74-2.75-3.23-2.64-3.33
									c0.11-0.1,1.46,1.24,3.03,2.98C160.61,196.11,161.79,197.6,161.69,197.7z"/>
							</g>
						</g>
						<g>
							<g>
								<path class="st13" d="M160.91,224.13c0.09,0.11-0.6,0.84-1.55,1.62c-0.95,0.79-1.79,1.34-1.88,1.22
									c-0.09-0.11,0.6-0.84,1.55-1.62C159.98,224.57,160.82,224.02,160.91,224.13z"/>
							</g>
						</g>
						<g>
							<g>
								<path class="st13" d="M164.06,180.21c0.11,0.09-0.31,0.8-0.94,1.59c-0.63,0.79-1.23,1.35-1.34,1.26
									c-0.11-0.09,0.31-0.8,0.94-1.59C163.35,180.68,163.95,180.12,164.06,180.21z"/>
							</g>
						</g>
						<g class="st17">
							<g>
								<path d="M216.33,184.75c4.23,13.29,7.49,27.24,11.72,40.53l-1.01-27.53C223.12,194.14,219.56,189.79,216.33,184.75z"/>
							</g>
						</g>
					</g>
					<g>
						<g>
							<path class="st8" d="M147.52,202.14c-0.01,0,0.04-0.12,0.13-0.33c0.12-0.27,0.25-0.57,0.41-0.92
								c0.36-0.8,0.89-1.95,1.57-3.36c1.36-2.82,3.32-6.67,5.67-10.83c2.36-4.15,4.65-7.82,6.37-10.43
								c0.86-1.31,1.57-2.35,2.07-3.07c0.22-0.31,0.41-0.58,0.58-0.82c0.13-0.19,0.21-0.28,0.21-0.28c0.01,0-0.06,0.11-0.18,0.3
								c-0.16,0.25-0.34,0.52-0.55,0.84c-0.53,0.82-1.21,1.86-2.02,3.11c-1.69,2.63-3.96,6.3-6.31,10.45
								c-2.35,4.15-4.33,7.99-5.72,10.79c-0.65,1.33-1.2,2.45-1.63,3.33c-0.17,0.34-0.31,0.64-0.44,0.9
								C147.58,202.04,147.53,202.15,147.52,202.14z"/>
						</g>
					</g>
					<g>
						<g>
							<path class="st8" d="M154.27,189.41c0.01,0.03-0.42,0.17-1.09,0.46c-0.67,0.29-1.57,0.74-2.48,1.37
								c-0.91,0.64-1.65,1.32-2.15,1.85c-0.5,0.53-0.78,0.88-0.81,0.86c-0.01-0.01,0.05-0.11,0.16-0.28
								c0.11-0.17,0.3-0.41,0.54-0.69c0.48-0.56,1.22-1.28,2.14-1.92c0.93-0.64,1.86-1.09,2.55-1.34c0.35-0.13,0.63-0.22,0.83-0.27
								C154.15,189.42,154.26,189.4,154.27,189.41z"/>
						</g>
					</g>
				</g>
			</g>
			<g>
				<g>
					<path class="st13" d="M155.21,168.9c0.12,0.08-1.24,2.17-3.04,4.65c-1.8,2.48-3.35,4.43-3.46,4.34
						c-0.12-0.08,1.24-2.16,3.04-4.65C153.54,170.76,155.09,168.82,155.21,168.9z"/>
				</g>
			</g>
		</g>
		<g>
			<path class="st9" d="M162.43,152.64c0.96,0.31,1.98-0.36,2.54-1.2c0.56-0.84,0.82-1.84,1.31-2.71c1.49-2.61,4.87-3.75,6.23-6.44
				c0.19-0.37,0.31-0.89-0.02-1.16c-0.3-0.25-0.75-0.08-1.09,0.09c-2.97,1.49-5.94,2.97-8.91,4.46"/>
			<g>
				<path class="st10" d="M162.49,145.68c-0.02-0.04,0.31-0.24,0.91-0.58c0.61-0.34,1.49-0.82,2.59-1.4
					c1.15-0.59,2.45-1.27,3.87-2.01c0.37-0.19,0.74-0.38,1.12-0.57c0.37-0.15,0.78-0.52,1.45-0.35c0.33,0.1,0.55,0.47,0.54,0.77
					c0.01,0.3-0.07,0.56-0.18,0.8c-0.23,0.44-0.48,0.85-0.8,1.23c-1.27,1.52-2.87,2.44-4.04,3.53c-0.59,0.54-1.1,1.11-1.45,1.71
					c-0.36,0.6-0.59,1.24-0.87,1.81c-0.5,1.17-1.4,1.93-2.11,2.09c-0.73,0.18-1.12-0.07-1.09-0.09c0.01-0.06,0.4,0.11,1.03-0.12
					c0.63-0.22,1.37-0.91,1.81-2.05c0.25-0.56,0.46-1.21,0.82-1.88c0.37-0.67,0.9-1.29,1.51-1.86c1.21-1.16,2.79-2.1,3.96-3.51
					c0.29-0.35,0.53-0.73,0.73-1.11c0.18-0.37,0.17-0.76-0.04-0.8c-0.23-0.09-0.64,0.12-1.02,0.31c-0.38,0.19-0.76,0.37-1.13,0.56
					c-1.44,0.7-2.76,1.33-3.92,1.9c-1.12,0.53-2.03,0.95-2.67,1.23C162.86,145.58,162.5,145.72,162.49,145.68z"/>
			</g>
		</g>
	</g>
</g>
<g id="Plant">
	<g>
		<g>
			<g>
				<rect x="378.31" y="420.39" class="st8" width="63.3" height="8.7"/>
			</g>
			<g>
				<path class="st8" d="M441.71,429.19H378.2v-8.91h63.51V429.19z M378.42,428.97h63.08v-8.48h-63.08V428.97z"/>
			</g>
		</g>
		<g>
			<g>
				<polygon class="st8" points="384.18,426.19 393.29,471.13 427,471.13 435.8,429.08 				"/>
			</g>
		</g>
		<g>
			<g>
				<polygon class="st15" points="384.18,466.88 389.04,473.56 430.01,473.56 435.8,466.88 				"/>
			</g>
		</g>
		<g>
			<g>
				<g>
					<path class="st8" d="M407.58,427.5c-0.12,0-0.28-20.82-0.36-46.5c-0.07-25.69-0.03-46.51,0.09-46.51
						c0.12,0,0.28,20.82,0.36,46.51C407.75,406.68,407.7,427.5,407.58,427.5z"/>
				</g>
			</g>
		</g>
		<g>
			<g>
				<g>
					<path class="st8" d="M421.68,375.39c0.01,0.01-0.05,0.17-0.17,0.48c-0.15,0.35-0.34,0.8-0.57,1.35
						c-0.13,0.3-0.26,0.62-0.41,0.97c-0.13,0.37-0.27,0.76-0.42,1.18c-0.15,0.43-0.32,0.88-0.49,1.36c-0.17,0.48-0.3,1.01-0.47,1.55
						c-0.69,2.16-1.24,4.8-1.77,7.75c-0.46,2.96-0.81,6.24-0.98,9.69c-0.31,6.92,0.08,13.19,0.5,17.7c0.2,2.26,0.41,4.09,0.56,5.35
						c0.06,0.59,0.12,1.07,0.16,1.45c0.03,0.33,0.04,0.51,0.03,0.51c-0.02,0-0.05-0.17-0.12-0.5c-0.06-0.38-0.14-0.86-0.24-1.44
						c-0.2-1.25-0.46-3.08-0.7-5.34c-0.5-4.52-0.94-10.81-0.63-17.76c0.17-3.47,0.53-6.77,1.02-9.74c0.55-2.96,1.14-5.62,1.88-7.77
						c0.18-0.54,0.32-1.07,0.5-1.55c0.18-0.48,0.36-0.93,0.52-1.35c0.16-0.42,0.32-0.81,0.46-1.17c0.16-0.35,0.32-0.67,0.45-0.96
						c0.26-0.54,0.48-0.97,0.64-1.32C421.58,375.54,421.66,375.39,421.68,375.39z"/>
				</g>
			</g>
		</g>
		<g>
			<g>
				<g>
					<path class="st8" d="M420.06,358.55c0.01,0.01-0.06,0.24-0.2,0.69c-0.16,0.48-0.38,1.13-0.66,1.94
						c-0.15,0.42-0.31,0.89-0.48,1.4c-0.16,0.52-0.33,1.08-0.51,1.68c-0.37,1.2-0.8,2.57-1.18,4.11c-0.2,0.77-0.41,1.57-0.64,2.41
						c-0.19,0.85-0.39,1.72-0.59,2.63c-0.44,1.81-0.76,3.78-1.17,5.84c-0.7,4.14-1.31,8.71-1.74,13.53
						c-0.4,4.83-0.57,9.44-0.64,13.63c-0.01,4.2,0.04,7.98,0.21,11.15c0.06,1.59,0.16,3.02,0.24,4.28c0.07,1.26,0.15,2.34,0.23,3.23
						c0.06,0.85,0.12,1.53,0.15,2.04c0.03,0.47,0.04,0.71,0.02,0.71c-0.02,0-0.05-0.24-0.11-0.71c-0.06-0.51-0.14-1.18-0.24-2.03
						c-0.11-0.88-0.21-1.97-0.31-3.22c-0.11-1.26-0.23-2.69-0.31-4.28c-0.21-3.17-0.3-6.96-0.31-11.17c0.04-4.21,0.2-8.83,0.6-13.67
						c0.42-4.84,1.05-9.42,1.78-13.56c0.42-2.06,0.75-4.03,1.21-5.85c0.21-0.91,0.42-1.79,0.62-2.63c0.23-0.84,0.45-1.64,0.67-2.41
						c0.4-1.54,0.85-2.91,1.25-4.11c0.2-0.6,0.38-1.16,0.55-1.67c0.19-0.5,0.36-0.97,0.52-1.39c0.31-0.8,0.56-1.43,0.74-1.91
						C419.95,358.77,420.05,358.55,420.06,358.55z"/>
				</g>
			</g>
		</g>
		<g>
			<g>
				<g>
					<path class="st8" d="M403.58,431.18c-0.01,0-0.02-0.08-0.04-0.24c-0.02-0.19-0.04-0.42-0.06-0.72
						c-0.04-0.66-0.11-1.59-0.19-2.76c-0.15-2.43-0.37-5.89-0.63-10.14c-0.55-8.56-1.34-20.39-2.78-33.4
						c-0.74-6.5-1.59-12.68-2.48-18.28c-0.47-2.8-0.9-5.46-1.39-7.93c-0.45-2.48-0.93-4.78-1.37-6.88c-0.42-2.1-0.88-3.99-1.25-5.65
						c-0.37-1.66-0.72-3.09-1.02-4.25c-0.28-1.14-0.5-2.04-0.66-2.68c-0.07-0.29-0.12-0.52-0.16-0.7c-0.03-0.16-0.05-0.24-0.04-0.24
						c0.01,0,0.04,0.08,0.08,0.23c0.05,0.18,0.12,0.41,0.2,0.69c0.18,0.64,0.43,1.53,0.74,2.66c0.32,1.16,0.7,2.58,1.09,4.24
						c0.4,1.66,0.88,3.54,1.32,5.64c0.46,2.1,0.96,4.39,1.42,6.88c0.5,2.47,0.94,5.14,1.43,7.93c0.91,5.6,1.78,11.79,2.52,18.3
						c1.44,13.02,2.19,24.86,2.65,33.43c0.23,4.29,0.39,7.75,0.49,10.15c0.04,1.17,0.08,2.1,0.1,2.76c0.01,0.29,0.01,0.53,0.02,0.72
						C403.59,431.1,403.58,431.18,403.58,431.18z"/>
				</g>
			</g>
		</g>
		<g>
			<g>
				<path class="st11" d="M407.06,344.5c-0.27-2.95-3.26-5.18-6.22-5.21c-2.96-0.03-5.72,1.75-7.54,4.09
					c-1.81,2.34-2.81,5.21-3.63,8.05c-1.99,6.95-3.09,14.25-2.23,21.43c0.85,7.18,3.77,14.25,8.92,19.32
					c0.84,0.82,1.92,1.65,3.07,1.4c0.63-0.13,1.14-0.57,1.62-1c10.12-9.14,15.97-22.84,15.57-36.47c-0.08-2.73-0.44-5.57-1.95-7.85
					C413.16,346,409.64,343.59,407.06,344.5"/>
			</g>
		</g>
		<g>
			<g>
				<g>
					<path class="st11" d="M384.94,320.87c-1.39,2.52-2.78,5.04-4.17,7.56c-0.1,0.18-0.23,0.37-0.43,0.39
						c-0.22,0.02-0.38-0.19-0.5-0.37c-3.68-5.64-7.35-11.29-11.03-16.93l2.54-1.44L384.94,320.87z"/>
				</g>
			</g>
			<g class="st18">
				<g>
					<g>
						<path d="M384.94,320.87c-1.39,2.52-2.78,5.04-4.17,7.56c-0.1,0.18-0.23,0.37-0.43,0.39c-0.22,0.02-0.38-0.19-0.5-0.37
							c-3.68-5.64-7.35-11.29-11.03-16.93l2.54-1.44L384.94,320.87z"/>
					</g>
				</g>
			</g>
			<g>
				<g>
					<path class="st11" d="M407.32,334.49c-12.54-7.4-25.09-14.8-37.63-22.21c-0.38-0.23-0.8-0.49-0.92-0.92
						c-0.15-0.56,0.27-1.09,0.67-1.51c5.18-5.34,12.69-8.43,20.11-7.9c7.42,0.53,14.55,4.82,18.18,11.31
						C411.36,319.75,411.48,328.33,407.32,334.49"/>
				</g>
			</g>
			<g>
				<g>
					<g>
						<path class="st8" d="M375.11,305.2c0-0.02,0.17-0.04,0.49-0.06c0.32-0.02,0.8-0.07,1.42-0.07c1.24-0.03,3.03,0.05,5.22,0.41
							c2.19,0.36,4.75,1.06,7.44,2.26c2.68,1.19,5.45,2.91,7.98,5.18c2.51,2.29,4.5,4.88,5.95,7.43c1.46,2.55,2.41,5.04,2.99,7.17
							c0.58,2.14,0.84,3.92,0.93,5.15c0.07,0.61,0.04,0.77,0.06,1.1c0.01,0.33-0.27,0.82-0.29,0.82c-0.04,0,0.21-0.68,0.06-1.9
							c-0.15-1.22-0.45-2.98-1.06-5.09c-1.19-4.19-3.95-9.84-8.93-14.35c-4.99-4.51-10.88-6.69-15.17-7.46
							c-2.16-0.4-3.94-0.53-5.17-0.55C375.79,305.21,375.11,305.24,375.11,305.2z"/>
					</g>
				</g>
			</g>
			<g>
				<g>
					<g>
						<path class="st8" d="M402.22,319.16c0.02,0.06-0.7,0.39-1.9,0.86c-1.2,0.47-2.87,1.08-4.75,1.67
							c-1.87,0.6-3.59,1.07-4.84,1.37c-1.25,0.31-2.04,0.45-2.05,0.39c-0.02-0.06,0.74-0.31,1.97-0.7c1.39-0.43,3-0.94,4.79-1.5
							c1.78-0.58,3.39-1.1,4.78-1.54C401.44,319.33,402.2,319.1,402.22,319.16z"/>
					</g>
				</g>
			</g>
			<g>
				<g>
					<g>
						<path class="st8" d="M396.3,303.24c0.12-0.01,0.39,1.87,0.45,4.2c0.06,2.33-0.11,4.22-0.23,4.22c-0.13,0-0.16-1.89-0.22-4.2
							C396.24,305.14,396.17,303.26,396.3,303.24z"/>
					</g>
				</g>
			</g>
			<g>
				<g>
					<g>
						<path class="st8" d="M369.36,311.86c-0.02-0.06,1.02-0.44,2.73-0.96c1.71-0.53,4.09-1.19,6.74-1.83
							c2.66-0.64,5.08-1.13,6.84-1.44c1.76-0.31,2.86-0.45,2.87-0.39c0.01,0.06-1.07,0.31-2.81,0.7c-1.74,0.39-4.15,0.93-6.8,1.56
							c-2.65,0.64-5.03,1.26-6.76,1.7C370.45,311.65,369.38,311.92,369.36,311.86z"/>
					</g>
				</g>
			</g>
		</g>
		<g>
			<g>
				<g>
					<path class="st11" d="M391.44,338.1c-3.24-2.45-6.66-2.94-10.72-2.78c-4.06,0.16-8.01,1.4-11.73,3.03
						c-6.35,2.78-12.31,6.88-16.1,12.67c-3.79,5.8-5.11,13.47-2.27,19.79c0.28,0.63,0.65,1.29,1.29,1.56
						c0.67,0.29,1.43,0.06,2.12-0.16c7.22-2.35,14.49-4.73,21.12-8.42c6.64-3.69,12.68-8.81,16.24-15.52
						c0.85-1.61,1.57-3.33,1.71-5.15C393.24,341.31,392.74,339.38,391.44,338.1"/>
				</g>
			</g>
			<g>
				<g>
					<g>
						<path class="st8" d="M391.51,337.34c0,0.02-0.17,0.09-0.52,0.21c-0.39,0.13-0.89,0.31-1.51,0.52c-0.33,0.11-0.7,0.23-1.1,0.37
							c-0.4,0.14-0.82,0.32-1.28,0.5c-0.91,0.37-1.97,0.74-3.09,1.28c-0.57,0.26-1.16,0.53-1.77,0.81
							c-0.61,0.28-1.23,0.63-1.88,0.96c-1.31,0.64-2.63,1.46-4.04,2.3c-2.77,1.75-5.69,3.85-8.55,6.34
							c-2.83,2.51-5.29,5.15-7.38,7.67c-1.01,1.29-1.99,2.5-2.79,3.72c-0.41,0.6-0.83,1.16-1.19,1.74c-0.36,0.57-0.7,1.12-1.02,1.65
							c-0.68,1.04-1.18,2.04-1.66,2.9c-0.23,0.43-0.46,0.83-0.66,1.21c-0.18,0.38-0.35,0.72-0.5,1.04
							c-0.29,0.59-0.53,1.06-0.71,1.43c-0.17,0.33-0.26,0.49-0.28,0.49c-0.01-0.01,0.05-0.19,0.19-0.52
							c0.16-0.38,0.37-0.87,0.63-1.47c0.14-0.32,0.3-0.68,0.47-1.06c0.18-0.38,0.4-0.79,0.63-1.23c0.46-0.87,0.95-1.89,1.61-2.95
							c0.32-0.54,0.66-1.09,1.01-1.68c0.35-0.58,0.77-1.15,1.18-1.76c0.8-1.23,1.77-2.46,2.78-3.76c2.08-2.55,4.55-5.22,7.4-7.75
							c2.87-2.5,5.83-4.61,8.62-6.35c1.42-0.83,2.76-1.64,4.09-2.27c0.66-0.33,1.28-0.67,1.9-0.94c0.62-0.27,1.22-0.53,1.79-0.78
							c1.13-0.53,2.2-0.88,3.13-1.22c0.47-0.17,0.89-0.33,1.3-0.46c0.4-0.12,0.77-0.23,1.11-0.33c0.63-0.18,1.14-0.33,1.54-0.44
							C391.32,337.37,391.5,337.32,391.51,337.34z"/>
					</g>
				</g>
			</g>
			<g>
				<g>
					<g>
						<path class="st8" d="M366.22,351.03c0.03,0.12-3.49,1.26-7.87,2.54c-4.38,1.28-7.96,2.22-8,2.1
							c-0.04-0.12,3.49-1.26,7.87-2.54C362.61,351.85,366.19,350.91,366.22,351.03z"/>
					</g>
				</g>
			</g>
			<g>
				<g>
					<g>
						<path class="st8" d="M365.9,368.4c-0.06,0-0.13-0.94-0.17-2.45c-0.04-1.52-0.05-3.61,0.02-5.93c0.07-2.31,0.19-4.41,0.31-5.92
							c0.13-1.51,0.25-2.44,0.31-2.44c0.06,0,0.05,0.94,0.01,2.46c-0.05,1.66-0.11,3.68-0.18,5.91c-0.06,2.23-0.11,4.25-0.15,5.91
							C366,367.46,365.96,368.4,365.9,368.4z"/>
					</g>
				</g>
			</g>
			<g>
				<g>
					<g>
						<path class="st8" d="M380.78,360.82c-0.12,0.01-0.52-4.25-0.88-9.51c-0.36-5.26-0.56-9.54-0.43-9.55
							c0.12-0.01,0.52,4.25,0.88,9.51C380.71,356.54,380.91,360.81,380.78,360.82z"/>
					</g>
				</g>
			</g>
			<g>
				<g>
					<g>
						<path class="st8" d="M362.26,341.35c0-0.06,0.97-0.09,2.52-0.08c1.56,0.01,3.7,0.06,6.07,0.13c2.37,0.08,4.52,0.17,6.07,0.27
							c1.55,0.09,2.51,0.18,2.51,0.24c0,0.06-0.96,0.09-2.52,0.08c-1.56-0.01-3.71-0.06-6.08-0.13c-2.37-0.08-4.52-0.17-6.07-0.27
							C363.21,341.5,362.25,341.41,362.26,341.35z"/>
					</g>
				</g>
			</g>
		</g>
		<g>
			<g>
				<g>
					<path class="st8" d="M397.98,393.18c-0.02,0-0.03-0.17-0.05-0.5c-0.02-0.38-0.04-0.86-0.07-1.45
						c-0.06-1.26-0.07-3.08-0.02-5.33c0.04-2.25,0.19-4.93,0.46-7.89c0.29-2.96,0.72-6.21,1.32-9.6c0.62-3.38,1.37-6.58,2.14-9.46
						c0.79-2.87,1.59-5.44,2.35-7.57c0.75-2.13,1.4-3.83,1.9-4.99c0.23-0.54,0.42-0.99,0.57-1.34c0.14-0.3,0.21-0.46,0.23-0.45
						c0.01,0.01-0.04,0.17-0.14,0.49c-0.13,0.36-0.29,0.81-0.49,1.36c-0.45,1.18-1.05,2.9-1.76,5.03c-0.71,2.13-1.48,4.7-2.25,7.57
						c-0.75,2.88-1.48,6.06-2.1,9.43c-0.61,3.37-1.04,6.61-1.35,9.56c-0.29,2.95-0.48,5.62-0.56,7.86
						c-0.09,2.24-0.12,4.06-0.12,5.32c-0.01,0.59-0.01,1.07-0.02,1.45C398.01,393.01,397.99,393.18,397.98,393.18z"/>
				</g>
			</g>
		</g>
		<g>
			<g>
				<g>
					<path class="st8" d="M399.96,368.54c0.04,0.04-0.53,0.68-1.5,1.65c-0.97,0.97-2.36,2.27-3.93,3.66
						c-1.58,1.38-3.05,2.58-4.14,3.42c-1.09,0.84-1.79,1.32-1.83,1.27c-0.04-0.05,0.59-0.62,1.63-1.52c1.16-1,2.53-2.2,4.05-3.51
						c1.5-1.33,2.87-2.54,4.01-3.55C399.27,369.05,399.92,368.5,399.96,368.54z"/>
				</g>
			</g>
		</g>
		<g>
			<g>
				<g>
					<path class="st8" d="M411.88,378.14c-0.05,0.03-0.65-0.82-1.6-2.21c-1.03-1.5-2.31-3.37-3.72-5.43
						c-1.44-2.04-2.75-3.89-3.8-5.37c-0.98-1.37-1.57-2.23-1.52-2.27c0.05-0.04,0.73,0.75,1.78,2.08c1.04,1.33,2.44,3.19,3.91,5.31
						c1.47,2.11,2.74,4.07,3.62,5.51C411.42,377.19,411.93,378.11,411.88,378.14z"/>
				</g>
			</g>
		</g>
		<g>
			<g>
				<g>
					<path class="st8" d="M405.64,347.96c0.07,0.1-3.89,2.77-8.84,5.95c-4.95,3.18-9.01,5.67-9.08,5.57
						c-0.07-0.1,3.89-2.77,8.84-5.95C401.5,350.35,405.57,347.86,405.64,347.96z"/>
				</g>
			</g>
		</g>
		<g>
			<g>
				<g>
					<path class="st8" d="M416.79,360c-0.09,0.09-2.77-2.39-5.98-5.53c-3.22-3.14-5.76-5.76-5.67-5.85
						c0.09-0.09,2.77,2.39,5.99,5.53C414.34,357.29,416.88,359.91,416.79,360z"/>
				</g>
			</g>
		</g>
		<g>
			<g>
				<g>
					<path class="st11" d="M419.6,359.76l3.4-0.28c2.41-0.2,4.75-0.91,6.86-2.1c1.04-0.59,2.09-1.16,3.2-1.61
						c4.2-1.69,8.88-1.38,13.4-1.61c7.38-0.37,14.67-2.24,21.32-5.45c0.38-0.19,0.72-0.47,0.93-0.84c0.7-1.27-0.6-2.4-1.71-3.09
						c-5.72-3.53-11.55-7.1-18.04-8.85c-6.49-1.75-13.86-1.45-19.39,2.36C423.06,342.76,420.7,351.95,419.6,359.76"/>
				</g>
			</g>
			<g>
				<g>
					<g>
						<path class="st8" d="M468.78,347.45c-0.01,0.01-0.21-0.08-0.58-0.27c-0.41-0.21-0.94-0.49-1.61-0.84
							c-1.4-0.73-3.41-1.82-5.95-3.04c-2.54-1.2-5.62-2.56-9.2-3.55c-3.57-0.99-7.68-1.51-11.93-0.97
							c-4.23,0.56-8.12,2.2-10.88,4.67c-2.77,2.46-4.47,5.43-5.66,7.95c-1.19,2.55-1.93,4.71-2.46,6.19
							c-0.25,0.71-0.45,1.28-0.6,1.71c-0.14,0.39-0.22,0.59-0.24,0.59s0.04-0.22,0.15-0.62c0.13-0.44,0.31-1.02,0.52-1.74
							c0.48-1.5,1.18-3.69,2.34-6.27c1.17-2.56,2.85-5.59,5.68-8.13c2.81-2.55,6.79-4.24,11.09-4.81c4.32-0.55,8.5-0.01,12.1,1.01
							c3.61,1.02,6.7,2.42,9.23,3.66c2.53,1.26,4.52,2.39,5.89,3.17c0.65,0.38,1.17,0.69,1.57,0.92
							C468.61,347.32,468.79,347.44,468.78,347.45z"/>
					</g>
				</g>
			</g>
			<g>
				<g>
					<g>
						<path class="st8" d="M460.63,351.83c-0.07,0.1-4.51-2.77-9.92-6.42c-5.41-3.65-9.74-6.69-9.67-6.79
							c0.07-0.1,4.51,2.77,9.92,6.42C456.37,348.69,460.7,351.73,460.63,351.83z"/>
					</g>
				</g>
			</g>
			<g>
				<g>
					<g>
						<path class="st8" d="M455.89,338.39c0.02,0.1-1.42,0.43-3.23,0.58c-1.82,0.15-3.3,0.06-3.3-0.04c0-0.11,1.46-0.18,3.26-0.33
							C454.41,338.45,455.87,338.28,455.89,338.39z"/>
					</g>
				</g>
			</g>
			<g>
				<g>
					<g>
						<path class="st8" d="M436.44,335.86c0.11,0.05-0.55,1.07-1.46,2.28c-0.91,1.21-1.74,2.15-1.85,2.1
							c-0.11-0.05,0.55-1.07,1.46-2.28C435.51,336.75,436.33,335.81,436.44,335.86z"/>
					</g>
				</g>
			</g>
			<g>
				<g>
					<g>
						<path class="st8" d="M440.42,354.45c-0.03,0.05-0.85-0.38-2.14-1.16c-1.28-0.78-3.02-1.92-4.87-3.27
							c-1.85-1.35-3.49-2.62-4.66-3.55c-1.17-0.93-1.88-1.53-1.84-1.58c0.04-0.05,0.81,0.46,2.04,1.33
							c1.33,0.97,2.95,2.14,4.73,3.44c1.85,1.34,3.54,2.52,4.78,3.36C439.69,353.87,440.46,354.4,440.42,354.45z"/>
					</g>
				</g>
			</g>
		</g>
		<g>
			<g>
				<g>
					<path class="st11" d="M424.6,374.19c-3.24-0.86-7.1,2.3-7.77,5.58c-0.67,3.28,0.56,6.64,2.01,9.67
						c3.19,6.7,7.6,12.91,13.4,17.53c5.8,4.62,13.07,7.58,20.48,7.54c-1.37-6.36,0.36-13.01-0.4-19.47
						c-0.67-5.64-3.3-11.03-7.33-15.03c-4.04-4-9.45-6.57-15.1-7.18C427.82,372.61,425.42,372.28,424.6,374.19"/>
				</g>
			</g>
			<g>
				<g>
					<g>
						<path class="st8" d="M452.72,414.51c-0.01,0.01-0.17-0.06-0.46-0.21c-0.29-0.16-0.71-0.42-1.21-0.81
							c-1.02-0.77-2.18-2.26-3.2-4.28c-0.52-1-1.09-2.09-1.66-3.3c-0.55-1.21-1.13-2.5-1.74-3.85c-0.62-1.35-1.3-2.75-2.14-4.12
							c-0.84-1.37-1.84-2.71-2.95-4.01c-2.22-2.61-4.6-4.86-6.66-7.01c-2.07-2.14-3.82-4.21-5.08-6.09
							c-1.27-1.88-2.04-3.56-2.48-4.74c-0.21-0.6-0.36-1.06-0.43-1.39c-0.08-0.32-0.12-0.49-0.1-0.5c0.04-0.01,0.23,0.66,0.7,1.82
							c0.48,1.15,1.29,2.79,2.58,4.62c1.28,1.84,3.03,3.86,5.11,5.98c2.07,2.13,4.47,4.38,6.71,7.01c1.12,1.31,2.13,2.67,2.98,4.07
							c0.85,1.39,1.53,2.82,2.14,4.18c0.6,1.36,1.17,2.65,1.7,3.87c0.54,1.2,1.11,2.3,1.6,3.31c0.98,2.02,2.06,3.49,3.03,4.29
							C452.1,414.16,452.74,414.47,452.72,414.51z"/>
					</g>
				</g>
			</g>
			<g>
				<g>
					<g>
						<path class="st8" d="M435.96,409.22c-0.06-0.01,0.04-0.85,0.3-2.18c0.25-1.33,0.67-3.17,1.23-5.16c0.56-2,1.16-3.78,1.64-5.05
							c0.48-1.27,0.83-2.04,0.88-2.02c0.06,0.02-0.18,0.83-0.58,2.12c-0.4,1.29-0.95,3.08-1.51,5.06c-0.56,1.99-1.02,3.8-1.35,5.11
							C436.24,408.42,436.03,409.24,435.96,409.22z"/>
					</g>
				</g>
			</g>
			<g>
				<g>
					<g>
						<path class="st8" d="M452.1,393.61c-0.02,0.06-0.89-0.16-2.28-0.52c-1.4-0.36-3.32-0.86-5.47-1.35
							c-2.15-0.48-4.1-0.86-5.52-1.13c-1.42-0.27-2.3-0.44-2.29-0.5c0.01-0.06,0.9,0,2.34,0.19c1.43,0.19,3.41,0.52,5.57,1
							c2.16,0.49,4.08,1.04,5.46,1.48C451.29,393.22,452.12,393.55,452.1,393.61z"/>
					</g>
				</g>
			</g>
			<g>
				<g>
					<g>
						<path class="st8" d="M423.94,398.14c-0.06-0.01,0.07-0.98,0.35-2.52c0.28-1.55,0.74-3.67,1.34-6c0.61-2.32,1.25-4.4,1.76-5.89
							c0.51-1.49,0.87-2.39,0.93-2.37c0.06,0.02-0.19,0.96-0.62,2.47c-0.43,1.51-1.02,3.59-1.63,5.91c-0.6,2.31-1.1,4.42-1.47,5.95
							C424.24,397.21,424.01,398.16,423.94,398.14z"/>
					</g>
				</g>
			</g>
			<g>
				<g>
					<g>
						<path class="st8" d="M444.67,380c-0.01,0.12-4.06-0.2-9.03-0.73c-4.98-0.53-9-1.06-8.99-1.18c0.01-0.12,4.06,0.2,9.03,0.73
							C440.66,379.35,444.68,379.88,444.67,380z"/>
					</g>
				</g>
			</g>
		</g>
		<g>
			<g>
				<g>
					<path class="st15" d="M441.71,429.05c0,0.12-14.22,0.23-31.75,0.23c-17.54,0-31.75-0.1-31.75-0.23
						c0-0.12,14.21-0.23,31.75-0.23C427.49,428.82,441.71,428.92,441.71,429.05z"/>
				</g>
			</g>
		</g>
		<g>
			<g>
				<g>
					<path class="st15" d="M431.82,447.34c0,0.12-9.58,0.23-21.39,0.23c-11.82,0-21.39-0.1-21.39-0.23c0-0.12,9.58-0.23,21.39-0.23
						C422.24,447.12,431.82,447.22,431.82,447.34z"/>
				</g>
			</g>
		</g>
		<g>
			<g>
				<g>
					<path class="st15" d="M431.44,449.96c0,0.12-9.41,0.23-21.02,0.23c-11.61,0-21.02-0.1-21.02-0.23c0-0.12,9.41-0.23,21.02-0.23
						C422.03,449.73,431.44,449.83,431.44,449.96z"/>
				</g>
			</g>
		</g>
		<g>
			<g>
				<g>
					<path class="st15" d="M432.19,445.19c0,0.12-9.91,0.23-22.13,0.23c-12.22,0-22.13-0.1-22.13-0.23c0-0.12,9.91-0.23,22.13-0.23
						C422.28,444.96,432.19,445.06,432.19,445.19z"/>
				</g>
			</g>
		</g>
	</g>
</g>
<g id="Numerical_Signs">
	<g>
		<g>
			<g>
				<path class="st8" d="M427.95,59.87c0,0.14-6.71,0.22-14.99,0.18c-8.28-0.04-14.99-0.2-14.99-0.34c0-0.14,6.71-0.22,14.99-0.18
					C421.24,59.58,427.95,59.73,427.95,59.87z"/>
			</g>
		</g>
		<g>
			<g>
				<path class="st8" d="M413.11,74.78c-0.14,0-0.33-6.71-0.41-14.99c-0.08-8.28-0.04-14.99,0.11-14.99c0.14,0,0.33,6.71,0.41,14.99
					C413.31,68.07,413.26,74.78,413.11,74.78z"/>
			</g>
		</g>
	</g>
	<g>
		<g>
			<g>
				<path class="st8" d="M443.76,283.68c-0.07,0.13-4.19-1.85-9.2-4.41c-5.02-2.56-9.03-4.74-8.97-4.87
					c0.07-0.13,4.18,1.85,9.2,4.41C439.81,281.38,443.83,283.56,443.76,283.68z"/>
			</g>
		</g>
		<g>
			<g>
				<path class="st8" d="M430.18,288.2c-0.13-0.06,1.78-4.21,4.27-9.27c2.49-5.06,4.6-9.1,4.73-9.04c0.13,0.06-1.78,4.21-4.27,9.27
					C432.43,284.21,430.31,288.26,430.18,288.2z"/>
			</g>
		</g>
	</g>
	<g>
		<g>
			<g>
				<path class="st8" d="M84.8,213.27c0.05,0.13-4.73,2.17-10.69,4.54c-5.96,2.37-10.83,4.19-10.88,4.06
					c-0.05-0.13,4.73-2.17,10.69-4.54C79.87,214.95,84.74,213.14,84.8,213.27z"/>
			</g>
		</g>
		<g>
			<g>
				<path class="st8" d="M73.76,206.77c-0.04,0.02-0.17-0.29-0.53-0.75c-0.36-0.45-1.01-1.05-2.01-1.3
					c-0.97-0.27-2.31-0.09-3.3,0.82c-1,0.87-1.5,2.5-0.91,3.93c0.56,1.44,2.05,2.28,3.37,2.22c1.34-0.02,2.43-0.82,2.96-1.68
					c0.55-0.87,0.61-1.75,0.56-2.32C73.84,207.1,73.72,206.79,73.76,206.77c0.02-0.01,0.21,0.28,0.33,0.88
					c0.12,0.59,0.11,1.55-0.45,2.54c-0.53,0.97-1.73,1.91-3.26,1.97c-1.5,0.09-3.22-0.85-3.86-2.51c-0.67-1.65-0.07-3.52,1.08-4.48
					c1.15-1.01,2.66-1.15,3.72-0.81c1.08,0.33,1.75,1.03,2.07,1.54C73.72,206.42,73.78,206.77,73.76,206.77z"/>
			</g>
		</g>
		<g>
			<g>
				<path class="st8" d="M81.26,225.58c-0.04,0.02-0.17-0.29-0.53-0.75c-0.36-0.45-1.01-1.05-2.01-1.3
					c-0.97-0.27-2.31-0.09-3.3,0.82c-1,0.87-1.5,2.5-0.91,3.93c0.56,1.44,2.05,2.28,3.37,2.22c1.34-0.02,2.43-0.82,2.96-1.68
					c0.55-0.87,0.61-1.75,0.56-2.32C81.34,225.91,81.21,225.6,81.26,225.58c0.02-0.01,0.21,0.28,0.33,0.88
					c0.12,0.59,0.11,1.55-0.45,2.54c-0.53,0.97-1.73,1.91-3.26,1.97c-1.5,0.09-3.22-0.85-3.86-2.51c-0.67-1.65-0.07-3.52,1.08-4.48
					c1.15-1.01,2.66-1.15,3.72-0.81c1.08,0.33,1.75,1.03,2.07,1.54C81.22,225.23,81.28,225.57,81.26,225.58z"/>
			</g>
		</g>
	</g>
</g>
<g id="Speech_Bubble">
	<g>
		<g>
			<g>
				<path class="st8" d="M140.71,109.32c0,0,0.11,0.27,0.3,0.79c0.19,0.54,0.47,1.31,0.83,2.31c0.72,2.05,1.77,5.03,3.13,8.87
					l0.07,0.18l-0.2-0.03c-3.54-0.48-7.89-1.07-12.88-1.75l0.12-0.03c-3.93,3.09-9.19,5.76-15.41,6.73
					c-1.55,0.25-3.15,0.39-4.79,0.41c-0.82,0.02-1.65-0.06-2.48-0.09c-0.42-0.02-0.84-0.04-1.26-0.06
					c-0.42-0.04-0.84-0.12-1.26-0.18c-3.39-0.4-6.82-1.45-10.1-3.04c-3.28-1.59-6.42-3.77-9.17-6.49c-2.73-2.74-5.04-6.04-6.73-9.73
					c-3.4-7.35-4.11-16.36-1.35-24.63c2.38-7.38,7.46-13.51,13.5-17.53c3.02-2.04,6.38-3.41,9.75-4.33l1.27-0.33l0.63-0.16l0.64-0.1
					c0.86-0.13,1.71-0.26,2.55-0.39c0.85-0.07,1.7-0.09,2.55-0.14c0.85-0.08,1.69-0.02,2.52,0.03c0.83,0.07,1.67,0.03,2.48,0.18
					c0.82,0.13,1.63,0.25,2.43,0.37c0.8,0.13,1.58,0.39,2.36,0.57l1.16,0.3c0.38,0.12,0.75,0.27,1.12,0.4
					c3.02,0.97,5.71,2.53,8.17,4.18c4.84,3.45,8.49,7.83,10.7,12.37c2.27,4.52,3.28,9.07,3.51,13.05c0.31,4-0.24,7.46-0.92,10.19
					c-0.69,2.73-1.56,4.75-2.2,6.09c-0.32,0.67-0.59,1.17-0.77,1.49C140.82,109.15,140.71,109.32,140.71,109.32s0.07-0.17,0.24-0.51
					c0.18-0.34,0.42-0.85,0.73-1.52c0.6-1.34,1.44-3.37,2.1-6.09c0.64-2.72,1.16-6.15,0.82-10.12c-0.26-3.95-1.28-8.45-3.55-12.91
					c-2.21-4.48-5.84-8.78-10.62-12.18c-2.44-1.62-5.09-3.15-8.08-4.1c-0.37-0.13-0.73-0.28-1.11-0.4l-1.15-0.29
					c-0.77-0.18-1.53-0.43-2.33-0.56c-0.79-0.12-1.59-0.24-2.4-0.36c-0.8-0.15-1.63-0.11-2.45-0.17c-0.82-0.05-1.65-0.1-2.48-0.02
					c-0.83,0.05-1.67,0.07-2.51,0.14c-0.83,0.13-1.67,0.26-2.52,0.39l-0.63,0.1l-0.62,0.16l-1.25,0.32
					c-3.32,0.91-6.62,2.27-9.6,4.28c-5.95,3.96-10.94,10-13.29,17.27C77.31,90.88,78,99.75,81.34,107c1.66,3.63,3.94,6.89,6.62,9.6
					c2.7,2.69,5.79,4.84,9.03,6.42c3.23,1.58,6.62,2.63,9.96,3.03c0.42,0.06,0.83,0.14,1.24,0.18c0.42,0.02,0.83,0.04,1.24,0.06
					c0.82,0.03,1.64,0.12,2.45,0.1c1.62-0.01,3.2-0.15,4.73-0.39c6.15-0.93,11.36-3.55,15.27-6.58l0.06-0.04l0.07,0.01
					c4.98,0.71,9.33,1.33,12.87,1.84l-0.13,0.16c-1.31-3.88-2.33-6.89-3.03-8.95c-0.33-1-0.59-1.78-0.77-2.32
					C140.78,109.59,140.71,109.32,140.71,109.32z"/>
			</g>
		</g>
		<g>
			<g>
				<g>
					<g>
						<path class="st11" d="M113.16,85.42c0.45,0.22,0.76,0.67,0.76,1.21l0,6.66c0,0.42-0.2,0.81-0.53,1.07
							c-0.33,0.25-0.77,0.33-1.17,0.22c-1.06-0.3-2.25-0.12-3.26,0.5c-0.93,0.57-1.58,1.43-1.78,2.38c-0.2,0.94,0.05,2,0.68,2.91
							c0.67,0.97,1.7,1.65,2.75,1.82c2.15,0.34,4.54-1.21,5.24-3.39c0.22-0.7,0.98-1.09,1.68-0.87c0.72,0.23,1.09,0.98,0.87,1.68
							c-1.09,3.42-4.77,5.76-8.21,5.22c-1.78-0.28-3.43-1.36-4.53-2.94c-1.04-1.51-1.44-3.32-1.1-4.97
							c0.35-1.67,1.44-3.17,3.01-4.12c1.13-0.69,2.41-1.04,3.67-1.03l0-5.13c0-0.74,0.6-1.34,1.34-1.34
							C112.79,85.29,112.99,85.34,113.16,85.42z"/>
					</g>
				</g>
			</g>
			<g>
				<g>
					<g>
						<path class="st11" d="M111.32,82.62c-0.02-0.6,0.46-1.11,1.07-1.12c0.6-0.02,1.11,0.46,1.12,1.07
							c0.02,0.6-0.46,1.11-1.07,1.12C111.84,83.7,111.34,83.22,111.32,82.62z"/>
					</g>
				</g>
			</g>
		</g>
	</g>
</g>
</svg>
