<?xml version="1.0" encoding="utf-8"?>
<!-- Generator: Adobe Illustrator 24.3.0, SVG Export Plug-In . SVG Version: 6.00 Build 0)  -->
<svg version="1.1" xmlns="http://www.w3.org/2000/svg" xmlns:xlink="http://www.w3.org/1999/xlink" x="0px" y="0px"
	 viewBox="0 0 3710 3710" style="enable-background:new 0 0 3710 3710;" xml:space="preserve">
<style type="text/css">
	.st0{fill:#FFFFFF;}
	.st1{fill:url(#SVGID_1_);}
	.st2{opacity:0.3;}
	.st3{fill:#91B3FA;}
	.st4{fill:#BDD0FB;}
	.st5{fill:#7D97F4;}
	.st6{fill:url(#SVGID_2_);}
	.st7{fill:url(#SVGID_3_);}
	.st8{fill:url(#SVGID_4_);}
	.st9{fill:url(#SVGID_5_);}
	.st10{fill:url(#SVGID_6_);}
	.st11{fill:url(#SVGID_7_);}
	.st12{fill:url(#SVGID_8_);}
	.st13{fill:url(#SVGID_9_);}
	.st14{fill:url(#SVGID_10_);}
	.st15{fill:url(#SVGID_11_);}
	.st16{fill:url(#SVGID_12_);}
	.st17{fill:url(#SVGID_13_);}
	.st18{fill:url(#SVGID_14_);}
	.st19{fill:url(#SVGID_15_);}
	.st20{fill:url(#SVGID_16_);}
	.st21{fill:url(#SVGID_17_);}
	.st22{fill:url(#SVGID_18_);}
	.st23{fill:url(#SVGID_19_);}
	.st24{fill:url(#SVGID_20_);}
	.st25{fill:url(#SVGID_21_);}
	.st26{fill:url(#SVGID_22_);}
	.st27{fill:url(#SVGID_23_);}
	.st28{fill:url(#SVGID_24_);}
	.st29{fill:url(#SVGID_25_);}
	.st30{fill:url(#SVGID_26_);}
	.st31{fill:url(#SVGID_27_);}
	.st32{fill:url(#SVGID_28_);}
	.st33{fill:url(#SVGID_29_);}
	.st34{fill:url(#SVGID_30_);}
	.st35{fill:url(#SVGID_31_);}
	.st36{fill:url(#SVGID_32_);}
	.st37{fill:url(#SVGID_33_);}
	.st38{fill:url(#SVGID_34_);}
	.st39{fill:url(#SVGID_35_);}
	.st40{fill:url(#SVGID_36_);}
	.st41{fill:url(#SVGID_37_);}
	.st42{fill:url(#SVGID_38_);}
	.st43{fill:url(#SVGID_39_);}
	.st44{fill:url(#SVGID_40_);}
	.st45{fill:url(#SVGID_41_);}
	.st46{fill:url(#SVGID_42_);}
	.st47{fill:url(#SVGID_43_);}
	.st48{fill:url(#SVGID_44_);}
	.st49{fill:url(#SVGID_45_);}
	.st50{fill:url(#SVGID_46_);}
	.st51{fill:url(#SVGID_47_);}
	.st52{fill:url(#SVGID_48_);}
	.st53{fill:url(#SVGID_49_);}
</style>
<g id="Background">
	<g>
		<g>
			<rect class="st0" width="3710" height="3710"/>
		</g>
	</g>
</g>
<g id="Illustration">
	<g>
		<linearGradient id="SVGID_1_" gradientUnits="userSpaceOnUse" x1="3430.3115" y1="3511.374" x2="1428.3472" y2="1350.5232">
			<stop  offset="0" style="stop-color:#DAE3FE"/>
			<stop  offset="1" style="stop-color:#E9EFFD"/>
		</linearGradient>
		<path class="st1" d="M3151.32,2279.99c-275.08,642.98-1001.22,919.15-1570.16,872.06c-155.34-12.86-467.9-38.73-711.94-269.51
			C400.56,2439.33,472.74,1512.9,921.39,967.48c57.78-70.24,457.7-540.84,1080.91-534.54c456.28,4.61,776.54,262.36,815.48,294.47
			c49.19,40.56,157.7,136.96,255.48,289.88C3303.03,1376.59,3323.22,1878.19,3151.32,2279.99z"/>
		<g>
			<g>
				<g class="st2">
					<path class="st3" d="M2373.34,949.38c-5.37,0-9.98-4.06-10.55-9.51c-1.25-11.93-2-24.09-2.23-36.14
						c-0.11-5.86,4.55-10.71,10.41-10.82c0.07,0,0.14,0,0.21,0c5.77,0,10.5,4.62,10.61,10.41c0.22,11.45,0.93,23,2.12,34.33
						c0.61,5.83-3.62,11.06-9.45,11.67C2374.08,949.36,2373.71,949.38,2373.34,949.38z M2374.02,856.88c-0.42,0-0.84-0.02-1.26-0.07
						c-5.82-0.69-9.99-5.97-9.3-11.79c1.42-11.96,3.36-23.98,5.77-35.72c1.18-5.74,6.77-9.43,12.54-8.27
						c5.74,1.18,9.44,6.8,8.26,12.54c-2.29,11.16-4.14,22.58-5.48,33.95C2383.92,852.91,2379.33,856.88,2374.02,856.88z
						 M2395.06,766.84c-1.18,0-2.38-0.2-3.56-0.62c-5.52-1.97-8.41-8.04-6.44-13.57c4.03-11.32,8.61-22.61,13.6-33.55
						c2.44-5.33,8.74-7.68,14.07-5.25c5.33,2.43,7.68,8.73,5.25,14.07c-4.74,10.39-9.09,21.11-12.92,31.86
						C2403.51,764.13,2399.42,766.84,2395.06,766.84z M2435.71,683.74c-1.95,0-3.93-0.54-5.7-1.67c-4.94-3.15-6.4-9.72-3.24-14.66
						c6.47-10.14,13.45-20.12,20.76-29.67c3.56-4.65,10.23-5.54,14.89-1.98c4.66,3.56,5.54,10.23,1.98,14.89
						c-6.94,9.07-13.57,18.55-19.72,28.19C2442.64,682.01,2439.21,683.74,2435.71,683.74z M2493.86,611.8
						c-2.74,0-5.48-1.05-7.55-3.16c-4.12-4.17-4.08-10.9,0.09-15.01c8.54-8.43,17.55-16.62,26.8-24.32
						c4.5-3.76,11.2-3.15,14.95,1.36c3.75,4.5,3.15,11.2-1.36,14.96c-8.79,7.32-17.36,15.11-25.48,23.12
						C2499.25,610.78,2496.56,611.8,2493.86,611.8z M2566.48,554.51c-3.55,0-7.02-1.78-9.03-5.01c-3.1-4.98-1.57-11.53,3.41-14.62
						c10.21-6.35,20.81-12.33,31.52-17.79c5.23-2.66,11.62-0.58,14.28,4.64c2.66,5.22,0.58,11.62-4.64,14.28
						c-10.18,5.19-20.25,10.87-29.95,16.9C2570.33,554,2568.4,554.51,2566.48,554.51z M2955.55,529.23c-1.47,0-2.96-0.31-4.39-0.95
						c-10.39-4.72-21.12-9.05-31.9-12.87c-5.53-1.96-8.42-8.02-6.46-13.55c1.96-5.53,8.02-8.42,13.55-6.47
						c11.35,4.02,22.66,8.58,33.59,13.55c5.34,2.43,7.7,8.72,5.27,14.06C2963.44,526.92,2959.58,529.23,2955.55,529.23z
						 M2649.94,514.77c-4.4,0-8.52-2.76-10.04-7.16c-1.91-5.55,1.03-11.59,6.58-13.5c11.36-3.92,23.03-7.39,34.69-10.32
						c5.69-1.4,11.46,2.02,12.89,7.71c1.43,5.69-2.02,11.46-7.71,12.89c-11.07,2.78-22.15,6.08-32.94,9.8
						C2652.25,514.58,2651.08,514.77,2649.94,514.77z M2867.56,500.71c-0.7,0-1.41-0.07-2.13-0.21c-11.19-2.28-22.62-4.1-33.98-5.42
						c-5.83-0.68-10-5.95-9.32-11.77c0.68-5.82,5.95-10.02,11.77-9.32c11.95,1.39,23.98,3.31,35.75,5.7
						c5.75,1.17,9.46,6.78,8.29,12.52C2876.93,497.24,2872.51,500.71,2867.56,500.71z M2740.18,494.67c-5.36,0-9.96-4.04-10.54-9.49
						c-0.62-5.83,3.6-11.06,9.43-11.69c11.94-1.27,24.09-2.05,36.12-2.3c0.07,0,0.15,0,0.23,0c5.76,0,10.49,4.61,10.61,10.39
						c0.12,5.86-4.53,10.72-10.39,10.84c-11.43,0.24-22.97,0.98-34.32,2.19C2740.93,494.65,2740.55,494.67,2740.18,494.67z"/>
					<path class="st3" d="M3020.35,566.09c-2.09,0-4.2-0.61-6.05-1.9c-4.49-3.13-9.13-6.21-13.77-9.17
						c-4.95-3.15-6.4-9.71-3.25-14.66c3.15-4.95,9.72-6.41,14.66-3.25c4.89,3.11,9.76,6.35,14.49,9.64c4.81,3.35,6,9.97,2.66,14.78
						C3027.02,564.5,3023.71,566.09,3020.35,566.09z"/>
				</g>
				<g class="st2">
					<path class="st3" d="M3192.84,840.01c-5.12,0-9.63-3.72-10.47-8.94c-0.86-5.4-1.86-10.88-2.95-16.28
						c-1.17-5.75,2.55-11.35,8.29-12.52c5.77-1.17,11.35,2.55,12.52,8.3c1.15,5.68,2.2,11.45,3.11,17.14
						c0.93,5.79-3.01,11.24-8.8,12.16C3193.96,839.97,3193.4,840.01,3192.84,840.01z"/>
					<path class="st3" d="M2784.99,1319.27c-4.89,0-9.79-0.08-14.71-0.25c-5.86-0.2-10.45-5.11-10.25-10.97
						c0.2-5.86,5.14-10.47,10.97-10.26c11.36,0.38,22.7,0.3,33.85-0.24c5.86-0.28,10.84,4.23,11.13,10.08
						c0.29,5.86-4.23,10.84-10.08,11.13C2798.99,1319.09,2791.96,1319.27,2784.99,1319.27z M2714.52,1313.31
						c-0.59,0-1.2-0.05-1.8-0.15c-11.68-1.99-23.4-4.51-34.84-7.47c-5.68-1.47-9.09-7.26-7.62-12.94c1.47-5.68,7.27-9.1,12.94-7.62
						c10.87,2.81,22,5.2,33.1,7.1c5.78,0.99,9.66,6.47,8.68,12.25C2724.09,1309.65,2719.6,1313.31,2714.52,1313.31z
						 M2861.37,1312.15c-5.01,0-9.46-3.55-10.42-8.65c-1.08-5.77,2.71-11.31,8.47-12.4c11.02-2.07,22.11-4.65,32.95-7.66
						c5.65-1.56,11.5,1.74,13.07,7.39c1.57,5.65-1.74,11.5-7.39,13.07c-11.42,3.17-23.09,5.88-34.7,8.07
						C2862.69,1312.09,2862.02,1312.15,2861.37,1312.15z M2627.01,1288.18c-1.35,0-2.72-0.26-4.04-0.8
						c-10.94-4.51-21.83-9.54-32.34-14.95c-5.21-2.68-7.26-9.08-4.58-14.3c2.68-5.22,9.08-7.27,14.3-4.58
						c9.99,5.14,20.32,9.92,30.71,14.2c5.42,2.23,8.01,8.44,5.77,13.86C2635.14,1285.7,2631.18,1288.18,2627.01,1288.18z
						 M2948.36,1285.53c-4.11,0-8.02-2.4-9.75-6.41c-2.33-5.38,0.15-11.63,5.53-13.96c10.29-4.45,20.54-9.4,30.46-14.71
						c5.17-2.77,11.6-0.83,14.37,4.34c2.77,5.17,0.83,11.6-4.34,14.37c-10.44,5.6-21.23,10.81-32.07,15.49
						C2951.19,1285.24,2949.76,1285.53,2948.36,1285.53z M3027.39,1240.46c-3.28,0-6.52-1.52-8.6-4.38
						c-3.45-4.74-2.4-11.38,2.35-14.83c9.1-6.61,18.02-13.68,26.53-21.02c4.44-3.84,11.14-3.34,14.97,1.1
						c3.83,4.44,3.33,11.14-1.11,14.98c-8.95,7.72-18.34,15.16-27.92,22.11C3031.74,1239.8,3029.56,1240.46,3027.39,1240.46z
						 M3094.72,1179.23c-2.5,0-5-0.87-7.02-2.66c-4.4-3.88-4.82-10.59-0.94-14.98c7.45-8.44,14.62-17.28,21.32-26.29
						c3.5-4.7,10.14-5.69,14.86-2.18c4.7,3.5,5.68,10.15,2.18,14.86c-7.05,9.48-14.6,18.79-22.44,27.67
						C3100.59,1178.01,3097.67,1179.23,3094.72,1179.23z M3147.1,1104.78c-1.73,0-3.48-0.42-5.11-1.31
						c-5.14-2.82-7.01-9.28-4.19-14.42c5.42-9.86,10.48-20.06,15.04-30.32c2.38-5.36,8.66-7.77,14.01-5.4
						c5.36,2.38,7.77,8.66,5.39,14.01c-4.8,10.81-10.13,21.55-15.83,31.93C3154.48,1102.79,3150.84,1104.78,3147.1,1104.78z
						 M3181.86,1020.61c-0.97,0-1.96-0.14-2.94-0.42c-5.63-1.62-8.89-7.51-7.26-13.14c3.1-10.78,5.79-21.84,7.98-32.87
						c1.14-5.75,6.75-9.48,12.48-8.34c5.75,1.14,9.49,6.73,8.35,12.48c-2.31,11.61-5.13,23.25-8.4,34.61
						C3190.72,1017.58,3186.47,1020.61,3181.86,1020.61z M3197.27,930.93c-0.22,0-0.44-0.01-0.66-0.02
						c-5.85-0.36-10.31-5.39-9.95-11.24c0.5-8.26,0.76-16.64,0.76-24.9c0-2.99-0.04-5.98-0.1-8.95
						c-0.13-5.86,4.52-10.72,10.39-10.85c5.93-0.24,10.72,4.52,10.85,10.38c0.07,3.13,0.1,6.27,0.1,9.41c0,8.69-0.27,17.5-0.8,26.19
						C3207.52,926.59,3202.84,930.93,3197.27,930.93z"/>
					<path class="st3" d="M2546.98,1244.24c-2.11,0-4.24-0.63-6.1-1.93c-4.7-3.31-9.42-6.77-14.03-10.31
						c-4.66-3.57-5.54-10.23-1.97-14.89c3.57-4.65,10.23-5.54,14.89-1.97c4.38,3.36,8.86,6.65,13.33,9.79
						c4.8,3.37,5.95,9.99,2.58,14.79C2553.61,1242.67,2550.32,1244.24,2546.98,1244.24z"/>
				</g>
				<g>
					<path class="st3" d="M2561.31,1121.09c1.34,1.64,3.57,2.25,5.56,1.52l56.69-20.85c22.35,17.21,47.6,30.98,75.05,40.42
						l13.83,58.75c0.48,2.06,2.22,3.59,4.33,3.8l72.08,7.3c2.11,0.21,4.12-0.93,5-2.85l25.33-54.79
						c28.79-3.74,56.28-12.17,81.63-24.55l51.35,31.79c1.8,1.11,4.11,0.96,5.75-0.37l56.13-45.8c1.64-1.34,2.25-3.57,1.52-5.56
						l-20.85-56.69c17.21-22.35,30.98-47.6,40.42-75.05l58.75-13.83c2.06-0.48,3.59-2.22,3.8-4.33l7.3-72.08
						c0.21-2.11-0.93-4.12-2.86-5l-54.79-25.33c-3.74-28.79-12.16-56.29-24.54-81.63l31.79-51.36c1.11-1.8,0.96-4.11-0.38-5.75
						l-45.8-56.13c-1.34-1.64-3.57-2.25-5.56-1.52l-56.69,20.85c-22.35-17.21-47.6-30.98-75.05-40.42l-13.83-58.75
						c-0.49-2.06-2.22-3.59-4.33-3.8l-72.08-7.3c-2.11-0.21-4.12,0.93-5,2.85l-25.33,54.79c-28.79,3.74-56.29,12.17-81.63,24.55
						l-51.35-31.79c-1.8-1.12-4.11-0.96-5.75,0.37l-56.13,45.8c-1.64,1.34-2.25,3.57-1.52,5.56l20.85,56.69
						c-17.21,22.35-30.98,47.6-40.42,75.05l-58.75,13.83c-2.06,0.48-3.59,2.22-3.8,4.33l-7.3,72.08c-0.21,2.11,0.93,4.12,2.85,5.01
						l54.79,25.33c3.74,28.78,12.17,56.28,24.54,81.63l-31.79,51.35c-1.11,1.8-0.96,4.11,0.37,5.75L2561.31,1121.09z"/>
					<g>
						<path class="st4" d="M2784.8,964.74c-35.5,0-66.67-26.07-71.99-62.21c-5.85-39.73,21.7-76.81,61.43-82.66
							c19.25-2.84,38.44,1.99,54.05,13.59c15.61,11.6,25.77,28.59,28.61,47.83c5.85,39.73-21.7,76.81-61.42,82.66
							C2791.89,964.49,2788.32,964.74,2784.8,964.74z M2784.97,836.08c-2.74,0-5.5,0.2-8.26,0.61
							c-30.46,4.49-51.58,32.92-47.1,63.38c4.49,30.46,32.91,51.6,63.38,47.1c30.46-4.49,51.58-32.92,47.1-63.38
							c-2.18-14.76-9.96-27.78-21.94-36.68C2808.42,839.87,2796.87,836.08,2784.97,836.08z"/>
					</g>
					<path class="st4" d="M2786.29,1069.92c-6.1,0-12.23-0.31-18.38-0.93l0,0c-1.93-0.19-3.87-0.42-5.8-0.68
						c-9.51-1.27-18.9-3.3-28.03-6.05c-0.12-0.04-0.25-0.07-0.37-0.11c-0.35-0.11-0.71-0.22-1.06-0.33
						c-0.69-0.21-1.37-0.43-2.05-0.65c-1.8-0.58-2.94-2.24-2.94-4.04c0-0.44,0.07-0.88,0.21-1.31c0.72-2.23,3.12-3.45,5.35-2.73
						c11.48,3.72,23.44,6.23,35.55,7.45c60.13,6.1,116.24-19.98,151.18-64.22c19.44-24.61,32.32-54.84,35.71-88.28
						c0.6-5.86,0.89-11.72,0.89-17.53c0-39.13-13.36-76.76-38.43-107.49c-28.8-35.3-69.63-57.27-114.96-61.86
						c-93.61-9.47-177.41,58.94-186.88,152.5c-0.58,5.77-0.87,11.55-0.87,17.31c0,24.96,5.47,49.65,16.09,72.26
						c0.27,0.58,0.4,1.2,0.4,1.8c0,1.59-0.9,3.12-2.44,3.84c-2.13,0.99-4.65,0.09-5.65-2.04c-11.15-23.74-16.89-49.66-16.9-75.87
						c0-6.05,0.3-12.11,0.91-18.17c9.95-98.24,97.99-170.05,196.19-160.1c47.59,4.82,90.44,27.88,120.68,64.94
						c26.33,32.26,40.34,71.76,40.35,112.85c0,6.1-0.31,12.25-0.93,18.4c-4.82,47.59-27.88,90.45-64.94,120.69
						C2866.9,1055.91,2827.38,1069.92,2786.29,1069.92z"/>
				</g>
			</g>
			<g>
				<g class="st2">
					<path class="st3" d="M2011.02,1229.18c-2.84,0-5.45-1.85-6.29-4.71c-1.57-5.34-3-10.8-4.24-16.23
						c-0.81-3.53,1.39-7.04,4.92-7.86c3.53-0.83,7.05,1.4,7.86,4.92c1.19,5.17,2.55,10.38,4.04,15.48c1.02,3.47-0.97,7.11-4.44,8.14
						C2012.25,1229.1,2011.63,1229.18,2011.02,1229.18z"/>
					<path class="st3" d="M2001.31,1179.68c-3.32,0-6.17-2.52-6.52-5.89c-0.97-9.54-1.47-19.23-1.47-28.81
						c0-2.02,0.02-4.04,0.06-6.07c0.08-3.62,3.27-6.36,6.7-6.42c3.62,0.08,6.49,3.07,6.42,6.69c-0.04,1.94-0.06,3.87-0.06,5.8
						c0,9.14,0.47,18.39,1.4,27.48c0.37,3.61-2.25,6.82-5.86,7.19C2001.76,1179.66,2001.53,1179.68,2001.31,1179.68z
						 M2002.75,1111.6c-0.31,0-0.63-0.02-0.94-0.06c-3.59-0.52-6.07-3.84-5.56-7.43c1.65-11.5,4.03-23,7.08-34.18
						c0.95-3.5,4.57-5.55,8.05-4.6c3.5,0.95,5.55,4.55,4.6,8.05c-2.9,10.66-5.17,21.63-6.75,32.6
						C2008.76,1109.25,2005.96,1111.6,2002.75,1111.6z M2020.66,1045.91c-0.83,0-1.68-0.16-2.49-0.49
						c-3.35-1.38-4.94-5.21-3.57-8.56c4.42-10.73,9.55-21.3,15.27-31.41c1.78-3.16,5.77-4.27,8.94-2.48
						c3.15,1.78,4.26,5.78,2.48,8.93c-5.45,9.64-10.35,19.72-14.56,29.95C2025.68,1044.38,2023.23,1045.91,2020.66,1045.91z
						 M2054.17,986.63c-1.36,0-2.72-0.42-3.9-1.29c-2.91-2.16-3.52-6.27-1.36-9.18c6.93-9.34,14.49-18.32,22.49-26.71
						c2.5-2.62,6.65-2.71,9.27-0.22c2.62,2.5,2.72,6.65,0.22,9.27c-7.62,7.99-14.84,16.57-21.44,25.47
						C2058.15,985.71,2056.17,986.63,2054.17,986.63z M2101.14,937.33c-1.9,0-3.78-0.82-5.08-2.4c-2.3-2.8-1.89-6.93,0.91-9.23
						c8.98-7.36,18.49-14.24,28.29-20.44c3.06-1.95,7.11-1.03,9.05,2.03c1.94,3.06,1.03,7.11-2.03,9.05
						c-9.34,5.92-18.42,12.48-26.99,19.5C2104.07,936.84,2102.6,937.33,2101.14,937.33z M2158.64,900.93
						c-2.46,0-4.81-1.39-5.93-3.76c-1.55-3.27-0.14-7.18,3.13-8.73c10.5-4.96,21.4-9.31,32.41-12.92c3.45-1.12,7.15,0.75,8.28,4.19
						c1.13,3.44-0.75,7.15-4.19,8.27c-10.5,3.45-20.89,7.59-30.9,12.31C2160.53,900.73,2159.58,900.93,2158.64,900.93z
						 M2223.28,879.7c-3.07,0-5.82-2.17-6.43-5.3c-0.7-3.55,1.62-7,5.18-7.7c11.35-2.22,23-3.76,34.61-4.57
						c3.62-0.19,6.75,2.48,7,6.09c0.25,3.61-2.47,6.74-6.08,7c-11.08,0.77-22.18,2.24-33.01,4.35
						C2224.12,879.66,2223.7,879.7,2223.28,879.7z M2325.1,878.87c-0.38,0-0.77-0.03-1.15-0.1c-9.41-1.67-19.08-2.86-28.74-3.52
						c-1.46-0.11-2.9-0.2-4.34-0.27c-3.62-0.19-6.4-3.27-6.21-6.89c0.18-3.63,3.3-6.51,6.89-6.21c1.53,0.08,3.06,0.17,4.59,0.29
						c10.09,0.7,20.23,1.94,30.1,3.7c3.57,0.63,5.94,4.03,5.31,7.6C2330.98,876.63,2328.22,878.87,2325.1,878.87z"/>
				</g>
				<g class="st2">
					<path class="st3" d="M2280.42,1427.92c-3.58,0-6.51-2.88-6.55-6.47c-0.05-3.62,2.85-6.6,6.47-6.64
						c10.9-0.14,21.89-0.95,32.65-2.4c3.57-0.45,6.89,2.03,7.38,5.62c0.48,3.59-2.04,6.89-5.62,7.38
						c-11.29,1.52-22.81,2.37-34.24,2.52C2280.48,1427.92,2280.45,1427.92,2280.42,1427.92z M2246.91,1426.33
						c-0.24,0-0.47-0.01-0.71-0.04c-11.35-1.22-22.74-3.14-33.86-5.71c-3.53-0.82-5.73-4.34-4.91-7.86
						c0.81-3.54,4.35-5.72,7.86-4.92c10.61,2.45,21.48,4.28,32.31,5.45c3.6,0.38,6.21,3.62,5.82,7.22
						C2253.06,1423.84,2250.21,1426.33,2246.91,1426.33z M2346.78,1418.95c-2.91,0-5.56-1.95-6.34-4.89
						c-0.92-3.5,1.17-7.08,4.68-8.01c10.55-2.78,21.02-6.22,31.12-10.23c3.38-1.33,7.18,0.31,8.51,3.68
						c1.34,3.36-0.31,7.18-3.67,8.52c-10.59,4.21-21.56,7.81-32.62,10.72C2347.89,1418.88,2347.33,1418.95,2346.78,1418.95z
						 M2181.64,1411.21c-0.75,0-1.5-0.13-2.25-0.4c-10.73-3.91-21.33-8.53-31.5-13.72c-3.23-1.65-4.51-5.6-2.86-8.82
						c1.65-3.21,5.6-4.5,8.82-2.86c9.7,4.95,19.8,9.35,30.03,13.08c3.4,1.24,5.16,5.01,3.91,8.41
						C2186.83,1409.55,2184.32,1411.21,2181.64,1411.21z M2408.99,1394.21c-2.32,0-4.57-1.24-5.76-3.41
						c-1.74-3.18-0.57-7.17,2.61-8.9c9.55-5.21,18.88-11.07,27.74-17.41c2.95-2.11,7.04-1.43,9.15,1.52
						c2.11,2.95,1.43,7.04-1.52,9.15c-9.29,6.64-19.07,12.78-29.08,18.25C2411.13,1393.95,2410.05,1394.21,2408.99,1394.21z
						 M2463.46,1355.27c-1.78,0-3.54-0.72-4.84-2.13c-2.45-2.67-2.27-6.82,0.4-9.27c8.04-7.37,15.71-15.29,22.78-23.54
						c2.36-2.75,6.5-3.07,9.25-0.71c2.75,2.36,3.07,6.49,0.71,9.24c-7.42,8.65-15.45,16.96-23.88,24.68
						C2466.63,1354.7,2465.04,1355.27,2463.46,1355.27z M2507.03,1304.39c-1.25,0-2.51-0.35-3.63-1.1c-3.02-2-3.83-6.08-1.83-9.09
						c6.05-9.07,11.59-18.6,16.47-28.32c1.63-3.23,5.57-4.54,8.8-2.91c3.24,1.63,4.54,5.56,2.92,8.81
						c-5.12,10.18-10.93,20.18-17.27,29.7C2511.23,1303.37,2509.15,1304.39,2507.03,1304.39z"/>
					<path class="st3" d="M2121.71,1380.59c-1.26,0-2.54-0.37-3.67-1.13c-4.65-3.14-9.22-6.44-13.61-9.8
						c-2.87-2.2-3.42-6.32-1.22-9.2c2.21-2.86,6.32-3.41,9.2-1.22c4.18,3.2,8.54,6.35,12.98,9.35c3,2.03,3.78,6.11,1.75,9.11
						C2125.88,1379.58,2123.82,1380.59,2121.71,1380.59z"/>
				</g>
				<g>
					<path class="st3" d="M2127.16,1295.87c0.9,1.1,2.39,1.51,3.72,1.02l37.93-13.95c14.95,11.52,31.85,20.73,50.22,27.04
						l9.25,39.31c0.32,1.38,1.49,2.4,2.9,2.54l48.23,4.89c1.41,0.14,2.75-0.62,3.35-1.91l16.95-36.66
						c19.26-2.5,37.66-8.14,54.62-16.42l34.36,21.27c1.2,0.74,2.75,0.64,3.85-0.25l37.56-30.65c1.1-0.9,1.51-2.39,1.02-3.72
						l-13.95-37.93c11.52-14.95,20.73-31.85,27.04-50.22l39.32-9.25c1.38-0.32,2.4-1.49,2.54-2.9l4.89-48.23
						c0.14-1.41-0.62-2.75-1.91-3.35l-36.66-16.95c-2.5-19.26-8.14-37.66-16.42-54.62l21.27-34.36c0.75-1.2,0.64-2.75-0.25-3.85
						l-30.65-37.56c-0.9-1.1-2.39-1.51-3.72-1.02l-37.93,13.95c-14.95-11.52-31.85-20.73-50.22-27.04l-9.25-39.32
						c-0.32-1.38-1.49-2.4-2.9-2.54l-48.23-4.89c-1.41-0.14-2.75,0.62-3.35,1.91l-16.95,36.66c-19.26,2.5-37.66,8.14-54.62,16.42
						l-34.36-21.27c-1.2-0.75-2.75-0.65-3.85,0.25l-37.56,30.65c-1.1,0.9-1.51,2.39-1.02,3.72l13.95,37.93
						c-11.52,14.95-20.73,31.85-27.04,50.22l-39.32,9.25c-1.38,0.32-2.4,1.49-2.54,2.9l-4.89,48.23c-0.14,1.41,0.62,2.75,1.91,3.35
						l36.66,16.95c2.5,19.26,8.14,37.66,16.42,54.62l-21.27,34.36c-0.75,1.2-0.64,2.75,0.25,3.85L2127.16,1295.87z"/>
					<g>
						<path class="st4" d="M2276.64,1192.13c-10.58,0-20.84-3.37-29.48-9.8c-10.63-7.9-17.55-19.48-19.48-32.58
							c-3.99-27.05,14.78-52.31,41.84-56.3c27.1-3.95,52.32,14.79,56.31,41.84c1.93,13.11-1.35,26.19-9.26,36.82
							c-7.9,10.64-19.47,17.56-32.59,19.49C2281.53,1191.95,2279.08,1192.13,2276.64,1192.13z M2276.77,1106.03
							c-1.76,0-3.55,0.13-5.34,0.39c-19.9,2.94-33.71,21.52-30.77,41.42c1.42,9.64,6.51,18.16,14.33,23.96
							c7.83,5.81,17.44,8.22,27.09,6.81l0,0c9.64-1.42,18.16-6.51,23.97-14.33c5.81-7.83,8.23-17.44,6.81-27.09
							C2310.18,1119.09,2294.56,1106.03,2276.77,1106.03z"/>
					</g>
					<path class="st4" d="M2277.59,1265.34c-4.15,0-8.33-0.21-12.55-0.63c-8.37-0.85-16.66-2.54-24.66-5.05
						c-0.36-0.12-0.72-0.23-1.08-0.35c-2.77-0.9-4.54-3.46-4.54-6.23c0-0.67,0.11-1.36,0.32-2.03c1.11-3.45,4.82-5.32,8.26-4.21
						c7.45,2.41,15.19,4.03,23.01,4.82h0c0.43,0.04,0.86,0.08,1.29,0.12c18.52,1.7,36.77-1.29,53.41-8.46
						c9.03-3.89,17.59-9.03,25.47-15.34c0.06-0.05,0.13-0.1,0.19-0.15c0.2-0.16,0.39-0.31,0.58-0.47
						c22.85-18.65,37.07-45.08,40.04-74.42c0.39-3.8,0.58-7.58,0.58-11.35c0-25.33-8.65-49.69-24.88-69.59
						c-18.65-22.85-45.08-37.07-74.42-40.04c-29.32-2.96-58.09,5.66-80.94,24.3c-22.85,18.65-37.07,45.08-40.04,74.42
						c-0.38,3.73-0.57,7.47-0.57,11.2c0,16.16,3.54,32.14,10.42,46.78c0.42,0.9,0.62,1.85,0.62,2.79c0,2.46-1.39,4.82-3.77,5.94
						c-3.28,1.53-7.18,0.13-8.73-3.15c-7.69-16.38-11.66-34.26-11.66-52.34c0-4.18,0.21-8.36,0.63-12.53
						c3.33-32.83,19.24-62.4,44.81-83.26c25.56-20.86,57.71-30.54,90.55-27.19c32.83,3.32,62.4,19.23,83.26,44.8
						c18.16,22.25,27.83,49.51,27.84,77.85c0,4.21-0.21,8.45-0.64,12.69C2393.95,1217.81,2340.15,1265.34,2277.59,1265.34z"/>
				</g>
			</g>
		</g>
		<g>
			<path class="st5" d="M1663.69,3163.54H624.18V1716.86c0-75.99,61.6-137.59,137.59-137.59h885.97
				c75.99,0,137.59,61.6,137.59,137.59v1325.03C1785.33,3109.07,1730.87,3163.54,1663.69,3163.54z"/>
			<path class="st3" d="M1611.4,3163.54H450.25V1619.7c0-22.33,18.1-40.42,40.42-40.42h1080.3c22.33,0,40.42,18.1,40.42,40.42
				V3163.54z"/>
		</g>
		<g>
			<g>
				<linearGradient id="SVGID_2_" gradientUnits="userSpaceOnUse" x1="2668.1641" y1="2328.7341" x2="2391.3625" y2="2828.4138">
					<stop  offset="0" style="stop-color:#FF928E"/>
					<stop  offset="1" style="stop-color:#FE7062"/>
				</linearGradient>
				<path class="st6" d="M2842.16,2569.84c0,0-148.94-24.95-157.05-24.95h-414.62c-27.68,0-50.32,22.64-50.32,50.32v45.5
					c0,27.67,22.64,50.32,50.32,50.32h414.62c3.92,0,7.72-0.5,11.38-1.36C2745.04,2681.63,2793.6,2641.73,2842.16,2569.84z"/>
				<linearGradient id="SVGID_3_" gradientUnits="userSpaceOnUse" x1="1876.5009" y1="1481.4042" x2="2737.5605" y2="2073.0525">
					<stop  offset="0" style="stop-color:#E1473D"/>
					<stop  offset="1" style="stop-color:#E9605A"/>
				</linearGradient>
				<path class="st7" d="M2840.56,2575.97c565.12-1342.9-481.8-1344.06-351.41-73.22L2840.56,2575.97z"/>
				<linearGradient id="SVGID_4_" gradientUnits="userSpaceOnUse" x1="2599.4558" y1="2608.187" x2="2767.9277" y2="1587.1464">
					<stop  offset="0" style="stop-color:#FF928E"/>
					<stop  offset="1" style="stop-color:#FE7062"/>
				</linearGradient>
				<path class="st8" d="M2801.65,2563.11c565.12-1368.53-512.1-1331.92-381.71-36.82L2801.65,2563.11z"/>
				<g>
					
						<linearGradient id="SVGID_5_" gradientUnits="userSpaceOnUse" x1="12957.2227" y1="3107.9224" x2="13052.3809" y2="2509.3499" gradientTransform="matrix(1 0 0 1 -10487.1201 0)">
						<stop  offset="0" style="stop-color:#FF928E"/>
						<stop  offset="1" style="stop-color:#FE7062"/>
					</linearGradient>
					<rect x="2482.46" y="2653.67" class="st9" width="44.03" height="476.12"/>
					
						<linearGradient id="SVGID_6_" gradientUnits="userSpaceOnUse" x1="12993.9219" y1="3111.303" x2="13093.2314" y2="2486.614" gradientTransform="matrix(1 0 0 1 -10487.1201 0)">
						<stop  offset="0" style="stop-color:#FF928E"/>
						<stop  offset="1" style="stop-color:#FE7062"/>
					</linearGradient>
					<path class="st10" d="M2697.28,3138.97h-385.61v-25.8c0-1.58,1.28-2.86,2.86-2.86h379.68c1.7,0,3.08,1.38,3.08,3.08V3138.97z"
						/>
				</g>
			</g>
			<g>
				
					<linearGradient id="SVGID_7_" gradientUnits="userSpaceOnUse" x1="1024.6298" y1="2973.0269" x2="946.9099" y2="3125.8757" gradientTransform="matrix(-1 0 0 1 3188.5061 0)">
					<stop  offset="0" style="stop-color:#09005D"/>
					<stop  offset="1" style="stop-color:#1A0F91"/>
				</linearGradient>
				<path class="st11" d="M2271.03,3064.36c0,0-125.72,90.62-103.89,151.5c0,0,137.55-59.35,154.17-106.1
					c16.62-46.75-2.81-67.4-2.81-67.4L2271.03,3064.36z"/>
				
					<linearGradient id="SVGID_8_" gradientUnits="userSpaceOnUse" x1="876.8397" y1="3033.854" x2="954.2629" y2="3033.854" gradientTransform="matrix(-1 0 0 1 3188.5061 0)">
					<stop  offset="0" style="stop-color:#FEBBBA"/>
					<stop  offset="1" style="stop-color:#FF928E"/>
				</linearGradient>
				<path class="st12" d="M2289.93,2988.42l20.56,59.43c3.1,8.97,0,19.18-8.02,24.25c-4.02,2.54-9.51,4.89-17.01,6.59
					c-10.59,2.4-21.52-2.49-26.61-12.08l-24.59-46.3L2289.93,2988.42z"/>
				
					<linearGradient id="SVGID_9_" gradientUnits="userSpaceOnUse" x1="769.7" y1="2828.9966" x2="1098.713" y2="2367.8599" gradientTransform="matrix(-1 0 0 1 3188.5061 0)">
					<stop  offset="0" style="stop-color:#09005D"/>
					<stop  offset="1" style="stop-color:#1A0F91"/>
				</linearGradient>
				<path class="st13" d="M2489.98,2453.51c0,0-258.22,44.75-368.99,147.08c-110.77,102.33,101.67,428.73,101.67,428.73
					s34.81-0.21,76.99-36.37c0,0-125.96-245.49-17.41-317.08c122.04-80.48,262.69-98.61,262.69-98.61l-52.45-115.87L2489.98,2453.51
					z"/>
				
					<linearGradient id="SVGID_10_" gradientUnits="userSpaceOnUse" x1="979.5261" y1="3127.5676" x2="710.0969" y2="3479.8977" gradientTransform="matrix(-1 0 0 1 3188.5061 0)">
					<stop  offset="0" style="stop-color:#09005D"/>
					<stop  offset="1" style="stop-color:#1A0F91"/>
				</linearGradient>
				<path class="st14" d="M2188.99,3182.19c27.65-12.8,105.94-67.59,119.13-70.01c13.2-2.42,36.08,13.09,36.08,13.09
					s5.57,10.01-0.39,27.48c-18.38,22.23-59.17,64.62-114.02,80.41c-40.34,11.62-68.56,0.79-86.14-11.89
					C2153.33,3206.55,2170.57,3190.72,2188.99,3182.19z"/>
				
					<linearGradient id="SVGID_11_" gradientUnits="userSpaceOnUse" x1="844.6893" y1="3203.8748" x2="1052.8768" y2="3203.8748" gradientTransform="matrix(-1 0 0 1 3188.5061 0)">
					<stop  offset="0" style="stop-color:#4042E2"/>
					<stop  offset="1" style="stop-color:#4F52FF"/>
				</linearGradient>
				<path class="st15" d="M2229.8,3233.16c54.85-15.79,95.64-58.18,114.02-80.41c-4.03,11.8-13.3,27-33.13,44.82
					c-49.17,44.2-143.09,60.13-163.09,57.06c-16.02-2.46-14.51-17.25-3.94-33.36C2161.23,3233.95,2189.45,3244.78,2229.8,3233.16z"
					/>
				
					<linearGradient id="SVGID_12_" gradientUnits="userSpaceOnUse" x1="820.8535" y1="3105.3035" x2="893.517" y2="3105.3035" gradientTransform="matrix(-1 0 0 1 3188.5061 0)">
					<stop  offset="0" style="stop-color:#FEBBBA"/>
					<stop  offset="1" style="stop-color:#FF928E"/>
				</linearGradient>
				<path class="st16" d="M2367.65,3086.59c-0.31,7.62-15.88,33.75-24.98,48.4c-4.32,6.97-11.9,11.22-20.1,11.24
					c-5.2,0.01-11.18-0.44-16.61-2c-8.15-2.34-12.73-11.02-10.34-19.16l17.78-60.72L2367.65,3086.59z"/>
				
					<linearGradient id="SVGID_13_" gradientUnits="userSpaceOnUse" x1="651.1105" y1="3058.7871" x2="669.2453" y2="2442.2095" gradientTransform="matrix(-1 0 0 1 3188.5061 0)">
					<stop  offset="0" style="stop-color:#09005D"/>
					<stop  offset="1" style="stop-color:#1A0F91"/>
				</linearGradient>
				<path class="st17" d="M2738.54,2376c0,0,57.35,153.34,0,199.97c-57.35,46.63-194.15,99.13-224.72,192.01
					c-30.56,92.88-82.42,273.39-151.83,337.32c0,0-48.76-4.72-67.01-24.15c0,0,39.53-269.47,65.6-338.62
					c22.58-59.88,55.84-146.31,119.59-194.61c18.25-13.83,15.07-35.73,6.61-57.01l-15.41-38.74L2738.54,2376z"/>
				<linearGradient id="SVGID_14_" gradientUnits="userSpaceOnUse" x1="2087.3525" y1="2420.0454" x2="1717.4916" y2="2916.9756">
					<stop  offset="0" style="stop-color:#4042E2"/>
					<stop  offset="1" style="stop-color:#4F52FF"/>
				</linearGradient>
				<path class="st18" d="M2140.44,2255.81c96.16,5.8,66.19-147.82,64.46-153.93l145.94,103.08c0,0-7.73,82.15-129.06,125.24
					c-30.7,10.9-58.76,11.38-83.56,6.05C2148.8,2305.41,2146.65,2277.73,2140.44,2255.81z"/>
				
					<linearGradient id="SVGID_15_" gradientUnits="userSpaceOnUse" x1="1042.8829" y1="2267.3762" x2="1296.3578" y2="2267.3762" gradientTransform="matrix(-1 0 0 1 3188.5061 0)">
					<stop  offset="0" style="stop-color:#FEBBBA"/>
					<stop  offset="1" style="stop-color:#FF928E"/>
				</linearGradient>
				<path class="st19" d="M1954.52,2209.57c35.83-24.92,76.42,0,76.42,0c47.91,31.33,83.35,44.66,109.5,46.24
					c6.2,21.92,8.35,49.6-2.22,80.45c-53.67-11.54-92.07-50.38-108.76-70.31c-6.01-7.18-16.64-8.42-23.99-2.62
					c-7.46,5.89-14.71,13.96-13.39,22.45c2.59,16.74-16.84,22.07-18.3,16c-1.46-6.07,6.65-42.07,6.65-42.07
					s-38.86,39.08-54.03,54.09c-15.17,15.02-34.25,0-34.25,0S1918.68,2234.5,1954.52,2209.57z"/>
				
					<linearGradient id="SVGID_16_" gradientUnits="userSpaceOnUse" x1="925.9752" y1="1963.8186" x2="356.0303" y2="2378.3245" gradientTransform="matrix(-1 0 0 1 3188.5061 0)">
					<stop  offset="0" style="stop-color:#4042E2"/>
					<stop  offset="1" style="stop-color:#4F52FF"/>
				</linearGradient>
				<path class="st20" d="M2588.8,1864.64c0,0-139.89-56.01-400.23,158.92c0,0-21.75,45.01,1.98,85.07
					c23.72,40.06,249.76,235.28,280.82,343.53c0,0,134.66,43.76,273.93-60C2745.3,2392.17,2733.01,2090.88,2588.8,1864.64z"/>
				
					<linearGradient id="SVGID_17_" gradientUnits="userSpaceOnUse" x1="801.0307" y1="1893.2948" x2="969.2085" y2="1893.2948" gradientTransform="matrix(-1 0 0 1 3188.5061 0)">
					<stop  offset="0" style="stop-color:#FEBBBA"/>
					<stop  offset="1" style="stop-color:#FF928E"/>
				</linearGradient>
				<path class="st21" d="M2312.26,1814.66l68.86,83.48c6.84,8.29,8.34,19.82,3.61,29.47c-9.56,19.5-32.24,47.88-82.54,43.96
					c-14.96-1.17-28.21-10.2-34.75-23.71l-48.15-99.54L2312.26,1814.66z"/>
				
					<linearGradient id="SVGID_18_" gradientUnits="userSpaceOnUse" x1="844.2405" y1="1851.4333" x2="274.2949" y2="2265.9397" gradientTransform="matrix(-1 0 0 1 3188.5061 0)">
					<stop  offset="0" style="stop-color:#4042E2"/>
					<stop  offset="1" style="stop-color:#4F52FF"/>
				</linearGradient>
				<path class="st22" d="M2697.11,2222.19c16.24-66.14-148.25-213.59-148.25-213.59l39.95-143.96c0,0,355.19,236.45,264.68,426.6
					c-12.98,27.26-30.21,46.35-50.19,59.12C2774.68,2273.38,2729.1,2238.07,2697.11,2222.19z"/>
				<linearGradient id="SVGID_19_" gradientUnits="userSpaceOnUse" x1="2858.5562" y1="1497.5137" x2="2722.4109" y2="1846.9532">
					<stop  offset="0" style="stop-color:#09005D"/>
					<stop  offset="1" style="stop-color:#1A0F91"/>
				</linearGradient>
				<path class="st23" d="M2697.22,2212.56c1.75,0,3.33-1.18,3.77-2.96c16.61-67.62-142.65-211.32-149.43-217.4
					c-1.59-1.43-4.05-1.3-5.49,0.3c-1.43,1.6-1.3,4.06,0.3,5.49c1.63,1.46,162.58,146.64,147.08,209.76
					c-0.51,2.08,0.76,4.19,2.85,4.7C2696.6,2212.52,2696.91,2212.56,2697.22,2212.56z"/>
				
					<linearGradient id="SVGID_20_" gradientUnits="userSpaceOnUse" x1="686.3458" y1="2270.4272" x2="42.4726" y2="3389.2891" gradientTransform="matrix(-1 0 0 1 3188.5061 0)">
					<stop  offset="0" style="stop-color:#FEBBBA"/>
					<stop  offset="1" style="stop-color:#FF928E"/>
				</linearGradient>
				<path class="st24" d="M2447.96,2216.49c0,0,195.03,75.72,242.63,18.76c3.23-3.86,5.33-8.26,6.51-13.07
					c32,15.89,77.58,51.19,106.18,128.18c-102.57,65.54-277.9-36.46-325.3-66.53c-7.8-4.95-17.15-6.68-26.2-4.81
					c-18.28,3.79-49.87,9.37-66.91,6.74c-24.92-3.84-60.72,84.07-101.11,56.96C2283.77,2342.72,2318.36,2189.92,2447.96,2216.49z"/>
				<g>
					
						<linearGradient id="SVGID_21_" gradientUnits="userSpaceOnUse" x1="1343.7479" y1="226.3017" x2="1133.5063" y2="504.4341" gradientTransform="matrix(-0.9683 -0.2499 -0.2499 0.9683 3559.759 1820.1976)">
						<stop  offset="0" style="stop-color:#FEBBBA"/>
						<stop  offset="1" style="stop-color:#FF928E"/>
					</linearGradient>
					<path class="st25" d="M2162.41,1692.03c-0.69,2.68,16.14,185.18,16.14,185.18l104-11.83l9.74-175.34
						C2292.29,1690.05,2174.01,1647.1,2162.41,1692.03z"/>
					
						<linearGradient id="SVGID_22_" gradientUnits="userSpaceOnUse" x1="1183.1807" y1="293.3944" x2="1434.3154" y2="293.3944" gradientTransform="matrix(-0.9683 -0.2499 -0.2499 0.9683 3559.759 1820.1976)">
						<stop  offset="0" style="stop-color:#09005D"/>
						<stop  offset="1" style="stop-color:#1A0F91"/>
					</linearGradient>
					<path class="st26" d="M2265.21,1726.38l2.1,92.7c0.03,1.19-0.1,2.35-0.4,3.5c-1.81,7.05-9.81,30.85-33.66,21.17
						c-21.64-8.78-41.52-16.47-56.14-13.69c-6.56,1.25-11.1,7.26-10.49,13.91c1.53,16.58,5.68,53.88,14.23,85.73
						c1.73,6.46,8.17,10.46,14.76,9.3c19.86-3.5,61.54-12.05,93.47-26.78c4.33-2,7.23-6.14,7.55-10.9
						c1.56-23.17,6.56-93.59,10.98-112.99c4.16-18.21,28.01-26.78,38.28-29.66c3.37-0.95,6.17-3.21,7.82-6.3
						c5.81-10.92,14.99-36.64-17.11-51.12c-6.72-3.03-9.57-10.94-6.33-17.57c6.44-13.19,10.81-33.9-13.67-48.27
						c-24.89-14.6-45.97-2.8-57.77,7.39c-4.77,4.12-11.7,4.06-16.62,0.14c-2.81-2.24-6.62-3.29-11.63-0.88
						c-6.76,3.25-14.83-0.36-17.36-7.41c-4.86-13.55-16.12-28.74-42.23-27.16c-46.33,2.8-57.01,52.62-48.25,83.47
						c8.76,30.84,58.81,24.96,84.93,12.76c19.86-9.27,42.72,5.24,52.53,12.73C2263.29,1718.81,2265.12,1722.47,2265.21,1726.38z"/>
					
						<linearGradient id="SVGID_23_" gradientUnits="userSpaceOnUse" x1="1035.829" y1="446.5623" x2="1204.4574" y2="273.554" gradientTransform="matrix(-0.9683 -0.2499 -0.2499 0.9683 3559.759 1820.1976)">
						<stop  offset="0" style="stop-color:#FEBBBA"/>
						<stop  offset="1" style="stop-color:#FF928E"/>
					</linearGradient>
					<path class="st27" d="M2308.03,1822.1c0,0-12.95-54.4,7.66-65.11c20.61-10.71,48.33-0.93,37.9,36.3
						C2340.63,1839.6,2308.03,1822.1,2308.03,1822.1z"/>
				</g>
			</g>
			<g>
				
					<linearGradient id="SVGID_24_" gradientUnits="userSpaceOnUse" x1="12815.7705" y1="2948.7568" x2="12486.084" y2="3039.1152" gradientTransform="matrix(0.9988 -0.0494 0.0494 0.9988 -10528.5889 -55.0328)">
					<stop  offset="0" style="stop-color:#09005D"/>
					<stop  offset="1" style="stop-color:#1A0F91"/>
				</linearGradient>
				<path class="st28" d="M2348.05,2365.81c-0.31,0.02-0.63,0.02-0.94,0.02l-409.19-0.45c-10.11-0.01-18.31-8.22-18.3-18.33
					c0.01-10.12,8.25-18.48,18.34-18.3l409.19,0.45c10.12,0.01,18.31,8.22,18.3,18.33
					C2365.43,2357.33,2357.73,2365.33,2348.05,2365.81z"/>
				
					<linearGradient id="SVGID_25_" gradientUnits="userSpaceOnUse" x1="12458.376" y1="2044.106" x2="12224.4482" y2="2291.353" gradientTransform="matrix(1 0 0 1 -10487.1201 0)">
					<stop  offset="0" style="stop-color:#09005D"/>
					<stop  offset="1" style="stop-color:#1A0F91"/>
				</linearGradient>
				<path class="st29" d="M1570.07,1994.29h340.78c25.14,0,48.02,14.51,58.74,37.24l157.54,334.06h-423.49
					c-16.2,0-30.76-9.9-36.71-24.97l-122.17-309.12C1537.7,2013.64,1550.87,1994.29,1570.07,1994.29z"/>
				<path class="st5" d="M1810.15,2165.57c7.38,22.94,1.93,45.23-12.18,49.77c-14.11,4.54-31.54-10.37-38.93-33.32
					c-7.38-22.94-1.93-45.23,12.18-49.77C1785.34,2127.71,1802.77,2142.63,1810.15,2165.57z"/>
			</g>
			<g>
				<g>
					<linearGradient id="SVGID_26_" gradientUnits="userSpaceOnUse" x1="1608.1274" y1="2820.9827" x2="2003.1536" y2="2820.9827">
						<stop  offset="0" style="stop-color:#4042E2"/>
						<stop  offset="1" style="stop-color:#4F52FF"/>
					</linearGradient>
					<path class="st30" d="M1625.32,3243.44c-2.27,0-4.57-0.44-6.79-1.36c-8.72-3.63-12.75-13.43-9-21.87l360.63-811.62
						c3.75-8.44,13.86-12.34,22.59-8.71c8.72,3.63,12.75,13.43,9,21.87l-360.63,811.62
						C1638.32,3239.67,1631.98,3243.44,1625.32,3243.44z"/>
					<linearGradient id="SVGID_27_" gradientUnits="userSpaceOnUse" x1="1653.7457" y1="2820.9812" x2="2048.7717" y2="2820.9812">
						<stop  offset="0" style="stop-color:#4042E2"/>
						<stop  offset="1" style="stop-color:#4F52FF"/>
					</linearGradient>
					<path class="st31" d="M2031.58,3243.44c-6.66,0-13.01-3.77-15.8-10.07l-360.63-811.62c-3.75-8.45,0.28-18.24,9-21.87
						c8.72-3.63,18.84,0.27,22.59,8.71l360.63,811.62c3.75,8.45-0.28,18.24-9,21.87C2036.15,3243,2033.85,3243.44,2031.58,3243.44z"
						/>
					<linearGradient id="SVGID_28_" gradientUnits="userSpaceOnUse" x1="2724.4224" y1="2820.9827" x2="3119.4482" y2="2820.9827">
						<stop  offset="0" style="stop-color:#4042E2"/>
						<stop  offset="1" style="stop-color:#4F52FF"/>
					</linearGradient>
					<path class="st32" d="M2741.61,3243.44c-2.27,0-4.57-0.44-6.79-1.36c-8.72-3.63-12.75-13.43-9-21.87l360.63-811.62
						c3.75-8.44,13.86-12.34,22.59-8.71c8.72,3.63,12.75,13.43,9,21.87l-360.63,811.62
						C2754.62,3239.67,2748.28,3243.44,2741.61,3243.44z"/>
					<linearGradient id="SVGID_29_" gradientUnits="userSpaceOnUse" x1="2770.0378" y1="2820.9812" x2="3165.0635" y2="2820.9812">
						<stop  offset="0" style="stop-color:#4042E2"/>
						<stop  offset="1" style="stop-color:#4F52FF"/>
					</linearGradient>
					<path class="st33" d="M3147.87,3243.44c-6.66,0-13.01-3.77-15.8-10.07l-360.63-811.62c-3.75-8.45,0.28-18.24,9-21.87
						c8.72-3.63,18.84,0.27,22.59,8.71l360.63,811.62c3.75,8.45-0.28,18.24-9,21.87C3152.45,3243,3150.14,3243.44,3147.87,3243.44z"
						/>
				</g>
				<path class="st4" d="M3190.17,2383.53c0.92-5.32-0.33-10.83-3.42-15.01c-3.08-4.18-7.67-6.6-12.51-6.6H1533.65
					c-6.37,0-12.3,3.63-15.73,9.64c-3.43,6.01-3.89,13.56-1.22,20.03l17.78,43.08c4.07,9.87,12.89,16.18,22.6,16.18h1605.91
					c9.03,0,16.79-7.17,18.5-17.09L3190.17,2383.53z"/>
			</g>
		</g>
		<g>
			<path class="st5" d="M1055.55,2310.18c0,0,173.91-305.17,119.96-350.62c-53.95-45.45-54.91,86.57-76.75,67.87
				c-21.84-18.7,13.78-128.94,4.07-205.54c-9.7-76.6-30.77-179.08-57.98-76.1c-27.21,102.98-23.81,204.51-35.6,152.05
				c-11.79-52.46-52.43-325.92-104.7-244.32c-52.27,81.6-63.24,187.83-10.55,249.72c52.69,61.89,123.42,131.01,36.46,85.38
				c-86.96-45.62-146.23-25.27-53.22,57.39c0,0,139.87,115.75,79.15,110.33c-60.72-5.42-157.4,58.66-57.77,104.98
				C898.64,2261.31,1040.18,2281.87,1055.55,2310.18z"/>
			<linearGradient id="SVGID_30_" gradientUnits="userSpaceOnUse" x1="647.4958" y1="2361.9585" x2="1046.8799" y2="2361.9585">
				<stop  offset="0" style="stop-color:#4042E2"/>
				<stop  offset="1" style="stop-color:#4F52FF"/>
			</linearGradient>
			<path class="st34" d="M983.29,2588.49c0,0-338.97-16.08-323.97-94.57c15-78.49,125.63-25.93,174.86-20.95
				c49.23,4.98,20.34-28.67-79.93-99.26c-100.27-70.59-155.4-173.97-49.22-125.76c106.17,48.21,148.61,138.73,141.42,74.88
				c-7.19-63.85-143.67-243.6-28.23-170c115.44,73.6,107.54,141.71,111.02,195.45c3.48,53.74,18.86-104,54.95-80.5
				c36.09,23.5,15.6,47.64,2.68,110.1c-12.92,62.46,23.25,12.11,35.21-8.39c11.95-20.5,41.33,28.67,12.55,96.51
				C1005.86,2533.84,983.29,2588.49,983.29,2588.49z"/>
			<path class="st5" d="M1050.81,2945.82c-0.23,0.19-0.38,0.43-0.44,0.68c-0.03,0.02-0.04,0.48-0.02,0.12l0.05-0.96l0.19-3.85
				l0.32-7.87l0.53-15.92l0.82-31.95l1.11-64c0.54-42.68,0.73-85.38,0.6-128.07c-0.25-85.39-1.79-170.77-5.05-256.07
				c-1.69-42.64-3.85-85.26-6.53-127.83c-2.82-42.56-6.26-85.07-10.6-127.45c-4.38-42.38-9.9-84.62-17.24-126.46
				c-7.51-41.73-16.58-83.42-31.57-122.47l-0.08-0.21c-1.47-3.84,0.44-8.15,4.28-9.62c3.8-1.46,8.07,0.42,9.58,4.19
				c16.24,40.66,25.94,82.86,34.15,125.09c8.02,42.29,14.16,84.82,19.16,127.44c4.96,42.62,8.99,85.32,12.41,128.04
				c3.28,42.73,6.03,85.5,8.31,128.28c4.43,85.56,7.15,171.18,8.57,256.82c0.72,42.82,1.11,85.64,1.15,128.48l-0.23,64.27
				l-0.38,32.17l-0.31,16.14l-0.22,8.15l-0.15,4.16l-0.04,1.04c-0.01,0.31-0.1,1.44-0.17,2.12c-0.17,1.58-0.43,3.15-0.77,4.67
				c-2.52,7.57-10.71,11.67-18.28,9.14C1052.38,2961.58,1048.28,2953.4,1050.81,2945.82z"/>
			<linearGradient id="SVGID_31_" gradientUnits="userSpaceOnUse" x1="888.8822" y1="2649.0625" x2="1077.7081" y2="2649.0625">
				<stop  offset="0" style="stop-color:#4042E2"/>
				<stop  offset="1" style="stop-color:#4F52FF"/>
			</linearGradient>
			<path class="st35" d="M1048.93,2962.27c-0.13,0.38-0.18,0.79-0.17,1.19c-0.01,0.1,0.07,0.6,0.04,0.37l-0.09-0.6l-0.35-2.42
				l-0.76-4.98l-1.6-10.09l-3.35-20.25l-7.01-40.52c-4.79-27.01-9.78-53.99-14.95-80.93c-10.33-53.89-21.39-107.64-33.4-161.15
				c-12.08-53.49-25.07-106.77-40.11-159.39c-7.53-26.3-15.67-52.4-24.8-78.07c-9.21-25.58-19.29-50.99-32.43-74.13l-0.11-0.19
				c-2.03-3.58-0.78-8.12,2.8-10.15c3.53-2,8-0.8,10.07,2.66c14.55,24.42,25.31,50.15,35.28,76.04
				c9.85,25.94,18.64,52.18,26.81,78.57c16.3,52.8,30.5,106.11,43.79,159.62c13.21,53.52,25.46,107.26,36.99,161.14
				c5.77,26.94,11.35,53.92,16.74,80.95l7.92,40.59l3.82,20.36l1.85,10.24l0.9,5.2l0.44,2.68l0.11,0.67l0.2,1.65
				c0.12,1.25,0.16,2.51,0.13,3.75c-0.78,7.94-7.85,13.75-15.79,12.97C1053.96,2977.28,1048.15,2970.21,1048.93,2962.27z"/>
			<linearGradient id="SVGID_32_" gradientUnits="userSpaceOnUse" x1="1033.2037" y1="2139.2888" x2="1434.6586" y2="2139.2888">
				<stop  offset="0" style="stop-color:#4042E2"/>
				<stop  offset="1" style="stop-color:#4F52FF"/>
			</linearGradient>
			<path class="st36" d="M1121.6,2371.79c0,0,343.64-54.76,310.86-127.63c-32.78-72.87-128.22,3.9-174.96,20.15
				c-46.73,16.26-53.44,8.15,27.74-83.76c81.18-91.91,88.76-187.27-3.35-115.76c-92.11,71.5-60.23,137.82-68.03,74.04
				c-7.81-63.78,115.31-307.29,20.08-208.94c-95.23,98.35-106.87,182.07-97.8,235.15c9.07,53.08-42.45-96.79-72.11-65.57
				c-29.66,31.22-4.14,49.96,22.91,107.72c27.05,57.76-19.81,17.17-36.19,0c-16.38-17.17-33.55,37.47,10.16,96.79
				C1104.61,2363.31,1121.6,2371.79,1121.6,2371.79z"/>
			<linearGradient id="SVGID_33_" gradientUnits="userSpaceOnUse" x1="1094.0349" y1="2572.7007" x2="1172.7113" y2="2572.7007">
				<stop  offset="0" style="stop-color:#4042E2"/>
				<stop  offset="1" style="stop-color:#4F52FF"/>
			</linearGradient>
			<path class="st37" d="M1095.7,2954.96c-0.32-1.36-0.57-2.76-0.73-4.17c-0.07-0.6-0.15-1.64-0.15-1.87l-0.03-0.79l-0.11-3.15
				l-0.15-6.13l-0.21-12.1l-0.23-24.09l-0.07-48.1c0.1-32.05,0.47-64.09,1.08-96.12c1.21-64.07,3.39-128.12,6.86-192.14
				c3.56-64.01,8.34-128,15.95-191.8c3.81-31.9,8.48-63.74,14.57-95.42c6.23-31.64,13.56-63.26,25.86-93.87
				c1.53-3.81,5.87-5.67,9.68-4.13c3.77,1.52,5.62,5.77,4.18,9.55l-0.08,0.22c-11.05,29-17.76,60.11-23.28,91.25
				c-5.4,31.23-9.45,62.78-12.65,94.44c-6.38,63.34-9.98,127.03-12.36,190.77c-2.29,63.75-3.29,127.57-3.33,191.39
				c-0.03,31.91,0.19,63.82,0.67,95.72l0.94,47.82l0.66,23.86l0.42,11.87l0.25,5.85l0.15,2.84l0.04,0.71
				c0.02,0.27-0.01-0.27-0.04-0.38c-0.07-0.41-0.24-0.82-0.48-1.18c2.52,7.57-1.57,15.76-9.14,18.28
				C1106.41,2966.63,1098.23,2962.54,1095.7,2954.96z"/>
			<g>
				<linearGradient id="SVGID_34_" gradientUnits="userSpaceOnUse" x1="1319.5265" y1="2391.093" x2="744.3556" y2="3678.0364">
					<stop  offset="0" style="stop-color:#4042E2"/>
					<stop  offset="1" style="stop-color:#4F52FF"/>
				</linearGradient>
				<path class="st38" d="M931.2,2888.71h284.54c18.65,0,32.45,17.35,28.25,35.52c-18.2,78.87-40.02,158.9-84.67,240.13
					c-8.25,15-23.95,24.41-41.07,24.41h-92.85c-16.86,0-32.33-9.26-40.32-24.11c-35.77-66.46-70.18-145.69-87.17-235.61
					C893.97,2908.12,909.9,2888.71,931.2,2888.71z"/>
			</g>
		</g>
		<g>
			<g>
				<linearGradient id="SVGID_35_" gradientUnits="userSpaceOnUse" x1="1137.2142" y1="841.022" x2="706.0815" y2="1648.4141">
					<stop  offset="0" style="stop-color:#4042E2"/>
					<stop  offset="1" style="stop-color:#4F52FF"/>
				</linearGradient>
				<path class="st39" d="M566.73,723.9c0,0-110.49,61.21-119.63,164.8c-9.14,103.59-0.76,533.55,220.8,639.38
					c221.56,105.83,514.84,81.44,627.1,69.87c112.26-11.57,174.5-87.86,188.41-140.39c13.9-52.53,36.36-248.21-81.73-311.33
					c-118.09-63.12-242.13-159.82-366.07-253.98C911.66,798.08,699.26,644.37,566.73,723.9z"/>
				<linearGradient id="SVGID_36_" gradientUnits="userSpaceOnUse" x1="1396.9797" y1="1240.2509" x2="1505.0881" y2="1353.1642">
					<stop  offset="0" style="stop-color:#09005D"/>
					<stop  offset="1" style="stop-color:#1A0F91"/>
				</linearGradient>
				<path class="st40" d="M1366.85,1181.94c0,0-29.82,1.58-33.48,62.93c0,0,69.15,61.99,162.56,76.74
					c7.01,1.11-9.8-47.87-12.33-54.5C1471.57,1235.54,1433.69,1215.21,1366.85,1181.94z"/>
				<linearGradient id="SVGID_37_" gradientUnits="userSpaceOnUse" x1="1582.584" y1="201.6114" x2="1444.7439" y2="564.0798">
					<stop  offset="0" style="stop-color:#09005D"/>
					<stop  offset="1" style="stop-color:#1A0F91"/>
				</linearGradient>
				<path class="st41" d="M1031,1109.8h62.93c0,0,193.15-213.32,319.83-234.84c0,0,88.18,112.56-4.7,322.89
					c-7.47,16.92-28.37,24.44-43.96,14.48c-4.66-2.98-8.01-6.97-10.04-11.97l7.47-179.58c0,0-164.76,144.1-193.39,171.91
					C1140.5,1220.49,994.93,1203.54,1031,1109.8z"/>
				<linearGradient id="SVGID_38_" gradientUnits="userSpaceOnUse" x1="1540.3918" y1="1523.6636" x2="1744.8827" y2="1673.7485">
					<stop  offset="0" style="stop-color:#09005D"/>
					<stop  offset="1" style="stop-color:#1A0F91"/>
				</linearGradient>
				<path class="st42" d="M1639.4,1557.66c-26.37-23.11-68.39-49.04-129.05-56.47l-20.51,12.55c0,0,13.08,19.29,36.98,39.68
					c21.96,12.76,55.88,30.03,83.99,33.78C1638.14,1590.83,1642.18,1574.32,1639.4,1557.66z"/>
				<path class="st5" d="M1483.6,1267.11c-16.25,5.26-23.39,28.28-64.62,13.05c-39.88-14.73-69.53-33.72-84.79-44.67
					c-0.34,2.97-0.63,6.07-0.82,9.37c0,0,72.91,69.35,166.32,84.11c7.01,1.11,12.57-5.89,10.04-12.53
					C1505.19,1304.54,1497.02,1286.49,1483.6,1267.11z"/>
				<path class="st3" d="M1659.26,1577.4c-5.2-5.91-11.83-12.7-19.87-19.73c2.78,16.65-1.25,33.17-28.59,29.53
					c-28.12-3.74-62.03-21.02-83.99-33.78c27.53,23.48,69.41,48.39,122.27,46.93C1660.83,1600.02,1667.02,1586.21,1659.26,1577.4z"
					/>
				<linearGradient id="SVGID_39_" gradientUnits="userSpaceOnUse" x1="1648.1571" y1="226.5463" x2="1510.3167" y2="589.0155">
					<stop  offset="0" style="stop-color:#09005D"/>
					<stop  offset="1" style="stop-color:#1A0F91"/>
				</linearGradient>
				<path class="st43" d="M1033.3,1155.33l294.7,3.19c0,0,168.29,139.24,198.82,351.55c0,0,5.07,15.62-25.35,18.29
					c0,0-101.75-66.45-168.09-183.95c-81.35-144.06-242.51-79.21-242.51-79.21c-52.95-38.18-127.78-45.95-184.15-58.67
					L1033.3,1155.33z"/>
				<linearGradient id="SVGID_40_" gradientUnits="userSpaceOnUse" x1="1210.0138" y1="968.9802" x2="1071.1849" y2="1134.0739">
					<stop  offset="0" style="stop-color:#FEBBBA"/>
					<stop  offset="1" style="stop-color:#FF928E"/>
				</linearGradient>
				<path class="st44" d="M1040.26,917.94c0,0,31.72,158.99,187.17,221.89l55.29-6.52l13.05,20.8l-129.7,4.13
					c0,0-110.87-43.91-169.6-163.56C994.52,990.73,962.18,923.94,1040.26,917.94z"/>
				<linearGradient id="SVGID_41_" gradientUnits="userSpaceOnUse" x1="685.6011" y1="192.9772" x2="908.0323" y2="973.3423">
					<stop  offset="0" style="stop-color:#FF928E"/>
					<stop  offset="1" style="stop-color:#FE7062"/>
				</linearGradient>
				<path class="st45" d="M1057.26,1152.73c0,0-36.08-98.07-43.83-193.35c0,0,26.39-22.68,42.89-32.47
					c5.34-3.17,7.36-9.87,4.66-15.47c-12.13-25.12-85.47-123.78-90.97-125.15c-29.86-7.45-152.34-65.69-238.59,52.3
					c-37.02,50.64,7.35,206.51,175.29,367.94l34.65,6.63L1057.26,1152.73z"/>
				<linearGradient id="SVGID_42_" gradientUnits="userSpaceOnUse" x1="1048.1338" y1="1119.196" x2="1325.6299" y2="739.5662">
					<stop  offset="0" style="stop-color:#FEBBBA"/>
					<stop  offset="1" style="stop-color:#FF928E"/>
				</linearGradient>
				<path class="st46" d="M918.25,980.87c0,0,100.23,118.68,228.38,136.03c0,0,33.12-30.19,57.74-19.41
					c24.63,10.78,58.39,58.36,58.39,58.36h-164.54c0,0-155.58-5.48-233.32-99.82C871.16,1023.01,889.89,1003.29,918.25,980.87z"/>
				<linearGradient id="SVGID_43_" gradientUnits="userSpaceOnUse" x1="878.3813" y1="804.597" x2="888.6028" y2="712.6041">
					<stop  offset="0" style="stop-color:#FEBBBA"/>
					<stop  offset="1" style="stop-color:#FF928E"/>
				</linearGradient>
				<path class="st47" d="M859.78,703.05l-21.93,73.14c-1,3.35,0.24,6.98,3.12,8.96c10.56,7.23,38.15,21.61,76.01,7.64
					c4.33-1.6,7.3-5.64,7.67-10.24l5.2-63.72L859.78,703.05z"/>
				<g>
					<linearGradient id="SVGID_44_" gradientUnits="userSpaceOnUse" x1="932.8991" y1="724.352" x2="887.8464" y2="575.7578">
						<stop  offset="0" style="stop-color:#FEBBBA"/>
						<stop  offset="1" style="stop-color:#FF928E"/>
					</linearGradient>
					<path class="st48" d="M988.19,643.82c0,0-10.78,75.82-39.91,99.14c-29.13,23.32-85.87,5.76-105.04-51.4l38.19-97.73
						L988.19,643.82z"/>
					<linearGradient id="SVGID_45_" gradientUnits="userSpaceOnUse" x1="892.3347" y1="452.026" x2="934.1279" y2="690.4017">
						<stop  offset="0" style="stop-color:#09005D"/>
						<stop  offset="1" style="stop-color:#1A0F91"/>
					</linearGradient>
					<path class="st49" d="M877.13,657.07c2.22,0.71,4.53-0.71,4.88-3.01c1.05-7,3.68-20.85,8.99-30.29c0,0-2.78-9.95,25.14,5.08
						c27.92,15.03,69.86,37.1,94.54,23.96c24.07-12.82,48.45-77.32-15.16-65.37c-2.42,0.45-4.65-1.47-4.46-3.93
						c0.78-10.6-0.27-34.99-24.97-42.82c-23.11-7.33-10.7,4.55-15.92,10.85c-1.53,1.85,1.94-6.31-30.9-1.53
						c-11.27,1.64-25.73-28.28-53.4-16.08c-22.8,10.05-26.34,24.09-25.97,32.84c0.12,2.84-2.76,4.76-5.33,3.57
						c-6.98-3.22-18.21-4.89-28.97,8.59c-14.87,18.63,6.38,34.79,12.76,39.03c1.04,0.69,1.69,1.84,1.7,3.1
						c0.06,9.69,1.57,51.96,22.76,75.81c1.83,2.06,5.23,1.46,6.29-1.09l16.31-38.87c0.76-1.8,2.77-2.73,4.63-2.13L877.13,657.07z"/>
					<linearGradient id="SVGID_46_" gradientUnits="userSpaceOnUse" x1="886.234" y1="738.5006" x2="841.1813" y2="589.906">
						<stop  offset="0" style="stop-color:#FEBBBA"/>
						<stop  offset="1" style="stop-color:#FF928E"/>
					</linearGradient>
					<path class="st50" d="M877.48,664.96c0,0-9.96-40.57-25.09-27.4c-15.13,13.17,3.94,42.17,21.28,47.69L877.48,664.96z"/>
				</g>
				<path class="st5" d="M1254.48,1165.05l73.88-246.38c3.01-10.05,11.94-17.18,22.41-17.9l99.74-6.82
					c10.14-0.69,17.68,9.21,14.31,18.8l-82.59,235.29c-2.66,7.58-9.47,12.94-17.46,13.74l-98.22,10.91L1254.48,1165.05z"/>
				<path class="st3" d="M1390.73,1002.18c-5.52,11.13-15.04,17.66-21.27,14.57c-6.23-3.09-6.82-14.62-1.3-25.75
					c5.52-11.13,15.04-17.66,21.27-14.57C1395.66,979.52,1396.25,991.05,1390.73,1002.18z"/>
				<path class="st5" d="M1266.56,1172.69c-0.16,0-0.32,0-0.48-0.01l-209.29-10.58c-5.17-0.26-9.16-4.67-8.9-9.84
					c0.26-5.18,4.69-9.24,9.84-8.9l209.29,10.58c5.17,0.26,9.16,4.67,8.89,9.84C1275.67,1168.8,1271.52,1172.69,1266.56,1172.69z"/>
				<linearGradient id="SVGID_47_" gradientUnits="userSpaceOnUse" x1="994.7999" y1="907.9663" x2="1015.0928" y2="907.9663">
					<stop  offset="0" style="stop-color:#E1473D"/>
					<stop  offset="1" style="stop-color:#E9605A"/>
				</linearGradient>
				<path class="st51" d="M1013.43,961.04c-0.91,0-1.67-0.75-1.66-1.67c0.14-43.72-16.73-101.77-16.91-102.35
					c-0.26-0.88,0.24-1.8,1.13-2.06c0.89-0.25,1.81,0.24,2.06,1.13c0.17,0.59,17.18,59.09,17.03,103.3
					C1015.09,960.3,1014.35,961.04,1013.43,961.04z"/>
				<linearGradient id="SVGID_48_" gradientUnits="userSpaceOnUse" x1="854.8555" y1="931.7499" x2="919.9127" y2="931.7499">
					<stop  offset="0" style="stop-color:#E1473D"/>
					<stop  offset="1" style="stop-color:#E9605A"/>
				</linearGradient>
				<path class="st52" d="M918.25,982.53c-0.49,0-0.98-0.22-1.31-0.63c-0.46-0.58-46.24-58.77-61.97-98.65
					c-0.34-0.86,0.08-1.82,0.93-2.15c0.86-0.34,1.82,0.08,2.15,0.93c15.56,39.43,61.03,97.24,61.5,97.81
					c0.57,0.72,0.44,1.77-0.28,2.33C918.98,982.41,918.61,982.53,918.25,982.53z"/>
				<linearGradient id="SVGID_49_" gradientUnits="userSpaceOnUse" x1="744.8843" y1="1015.9172" x2="862.5188" y2="1015.9172">
					<stop  offset="0" style="stop-color:#E1473D"/>
					<stop  offset="1" style="stop-color:#E9605A"/>
				</linearGradient>
				<path class="st53" d="M853.84,1071.49l-1.23-0.53c-66.22-28.35-107.13-107.42-107.53-108.21c-0.42-0.82-0.09-1.82,0.73-2.23
					c0.8-0.41,1.8-0.1,2.23,0.72c0.4,0.78,40.26,77.82,104.65,106.14l6.82-9.64c0.54-0.76,1.58-0.92,2.32-0.4
					c0.75,0.53,0.93,1.57,0.4,2.32L853.84,1071.49z"/>
			</g>
		</g>
	</g>
</g>
</svg>
